<svg width="80" height="80" viewBox="0 0 80 80" fill="none" xmlns="http://www.w3.org/2000/svg">
<path d="M11.1946 63.325H29.5307V64.9454C29.5307 66.8946 31.1163 68.4801 33.0655 68.4801H46.6659C48.6152 68.4801 50.2007 66.8946 50.2007 64.9454V63.325H68.5239C69.1833 63.325 69.718 62.7903 69.718 62.1309V54.1538C69.718 53.4943 69.1833 52.9597 68.5239 52.9597H50.2007V51.3462C50.2007 49.3965 48.6151 47.8108 46.6659 47.8108H43.9097V43.7826C51.1394 41.9683 56.5156 35.4336 56.5156 27.6496C56.5156 18.4683 49.0464 11 39.8659 11C30.6846 11 23.2147 18.4686 23.2147 27.6496C23.2147 35.4336 28.5915 41.9685 35.8212 43.7826V47.8108H33.065C31.1158 47.8108 29.5303 49.3964 29.5303 51.3462V52.9597H11.1941C10.5346 52.9597 10 53.4943 10 54.1538V62.1309C9.99937 62.7903 10.5346 63.325 11.1941 63.325H11.1946ZM67.3302 55.3483V60.9367L50.2021 60.9361V55.3483L67.3302 55.3483ZM25.6047 27.6486C25.6047 19.7849 32.002 13.3875 39.8664 13.3875C47.7302 13.3875 54.1275 19.7849 54.1275 27.6486C54.1275 35.5131 47.7302 41.9104 39.8664 41.9104C32.002 41.911 25.6047 35.5131 25.6047 27.6486ZM38.2106 44.2156C38.7553 44.2694 39.3071 44.2992 39.8664 44.2992C40.4251 44.2992 40.9769 44.2694 41.5217 44.2156V47.8098H38.2106V44.2156ZM31.9196 51.3459C31.9196 50.7137 32.434 50.1993 33.0656 50.1993H46.6653C47.2969 50.1993 47.8113 50.7137 47.8113 51.3459V64.9457C47.8113 65.5772 47.2969 66.0916 46.6653 66.0916H33.0649C32.4333 66.0916 31.919 65.5772 31.919 64.9457L31.9196 51.3459ZM12.3883 55.3482H29.5309V60.9366L12.3883 60.9359V55.3482Z" fill="#4BB134"/>
<path d="M43.8869 27.6539C43.8869 26.9812 43.7051 26.3566 43.4118 25.7986L47.8979 21.3124C48.3642 20.8462 48.3642 20.0898 47.8979 19.6236C47.4317 19.1567 46.6753 19.1567 46.2091 19.6236L41.723 24.1098C41.1655 23.8165 40.5403 23.6347 39.8676 23.6347C37.6511 23.6347 35.8477 25.4381 35.8477 27.654C35.8477 29.8705 37.6511 31.6739 39.8676 31.6739C42.0834 31.6739 43.8869 29.8711 43.8869 27.654L43.8869 27.6539ZM38.2363 27.6539C38.2363 26.7544 38.968 26.0233 39.8676 26.0233C40.7671 26.0233 41.4981 26.7543 41.4981 27.6539C41.4981 28.5535 40.7665 29.2851 39.8676 29.2851C38.968 29.2851 38.2363 28.5535 38.2363 27.6539Z" fill="#4BB134"/>
<path d="M40.5542 53.6797L45.5703 58.0735M45.5703 58.0735L40.5542 61.9792M45.5703 58.0735H33.1211" stroke="#4BB134" stroke-width="2"/>
</svg>
