<svg width="78" height="83" viewBox="0 0 78 83" fill="none" xmlns="http://www.w3.org/2000/svg">
<path d="M22.7614 29.1683H25.0575L25.0584 22.6649C24.9485 20.0054 25.5437 17.3837 26.705 15.0833C27.8764 12.7623 29.6277 10.7622 31.8118 9.37352C34.0258 7.96633 36.5154 7.26172 39.0002 7.26172C41.4849 7.26172 43.9745 7.96627 46.1885 9.37352C48.3725 10.7616 50.1237 12.7619 51.2953 15.0833C52.461 17.3926 53.0563 20.025 52.9411 22.6952L52.9424 29.1683H55.2373C56.9373 29.1683 58.4847 29.9051 59.6045 31.0887C60.7274 32.2769 61.4242 33.9134 61.4242 35.711V60.3909C61.4242 62.9 60.4536 65.1808 58.8909 66.8331C57.3282 68.4855 55.1712 69.5117 52.7982 69.5117H25.2012C22.8282 69.5117 20.6702 68.4855 19.1075 66.8331C17.5448 65.1808 16.5742 62.899 16.5742 60.3909V35.711C16.5742 33.9157 17.2701 32.2797 18.3913 31.0933L18.3974 31.0868C19.519 29.9032 21.065 29.1683 22.7623 29.1683L22.7614 29.1683ZM42.3923 48.0834L43.3921 59.3461C43.4384 59.8956 43.0547 60.3835 42.5354 60.4326L35.5488 60.4405C35.0247 60.4405 34.5995 59.9909 34.5995 59.4367L35.6067 48.084C35.0817 47.6302 34.6414 47.0727 34.3146 46.4438C33.9048 45.6547 33.6726 44.7527 33.6726 43.7992C33.6726 42.2631 34.2722 40.8718 35.2406 39.8637C36.2037 38.8603 37.5346 38.2388 39.0002 38.2388C40.4657 38.2388 41.7966 38.8603 42.7597 39.8637C43.7281 40.8717 44.3277 42.2631 44.3277 43.7992C44.3277 44.7526 44.095 45.6546 43.6857 46.4438C43.3589 47.0731 42.9187 47.6306 42.3936 48.084L42.3923 48.0834ZM41.4107 58.4323L40.464 47.7697C40.4057 47.3878 40.5603 46.9876 40.8879 46.7659C41.3613 46.4423 41.7529 45.9992 42.0227 45.4785C42.2806 44.9813 42.4272 44.4089 42.4272 43.7986C42.4272 42.8181 42.0457 41.9315 41.4306 41.2909C40.8115 40.6457 39.9509 40.2465 38.9993 40.2465C38.0477 40.2465 37.1871 40.6457 36.568 41.2909C35.9524 41.9315 35.5713 42.8181 35.5713 43.7986C35.5713 44.4088 35.7179 44.9813 35.9758 45.4785C36.2456 45.9987 36.6377 46.4422 37.1107 46.7659C37.3963 46.9629 37.5725 47.3159 37.5407 47.6997L36.5883 58.4323L41.4107 58.4323ZM26.956 29.1686H28.8305V22.5919C28.7333 20.6192 29.163 18.6754 30.0161 16.9765C30.8683 15.2774 32.1523 13.8127 33.7544 12.7945C35.3701 11.7668 37.1862 11.2528 38.9985 11.2528C40.8108 11.2528 42.627 11.7669 44.2427 12.7945C45.8452 13.8128 47.1288 15.2774 47.981 16.9765C48.8306 18.6685 49.2602 20.6029 49.1666 22.5653V29.1692H51.041L51.0446 22.6484C51.1523 20.3242 50.637 18.0331 49.6241 16.0249C48.6111 14.0177 47.0983 12.2893 45.2141 11.0917C43.3051 9.87911 41.152 9.27084 38.9976 9.27084C36.8436 9.27084 34.6902 9.87874 32.7812 11.0917C30.897 12.2894 29.3846 14.0177 28.3712 16.0249C27.3684 18.0125 26.854 20.2765 26.9476 22.5756L26.9542 29.1692L26.956 29.1686ZM30.7319 29.1686H47.2688L47.275 22.4723C47.3518 20.8783 47.0008 19.3012 46.3053 17.9173C45.6085 16.5283 44.5664 15.3335 43.2713 14.5117C41.9606 13.6783 40.4801 13.2609 38.999 13.2609C37.518 13.2609 36.0374 13.6783 34.7268 14.5117C33.4317 15.3339 32.3896 16.5283 31.6928 17.9173C30.9951 19.3063 30.6436 20.8891 30.724 22.4882C30.7787 24.6845 30.7421 26.948 30.7324 29.1687L30.7319 29.1686ZM55.236 31.1767H22.7601C21.5794 31.1767 20.5067 31.6857 19.7318 32.5055C18.9529 33.3287 18.4712 34.4628 18.4712 35.7112V60.3911C18.4712 62.3456 19.2285 64.1239 20.4481 65.4136C21.6677 66.7032 23.3496 67.5039 25.1989 67.5039H52.7959C54.6447 67.5039 56.3262 66.7032 57.5459 65.4136C58.7656 64.124 59.5228 62.3461 59.5228 60.3911V35.7112C59.5228 34.4636 59.0406 33.3277 58.2643 32.5068C57.488 31.686 56.4146 31.1761 55.2347 31.1761L55.236 31.1767Z" fill="#43B02A"/>
</svg>
