<svg width="81" height="80" viewBox="0 0 81 80" fill="none" xmlns="http://www.w3.org/2000/svg">
<path d="M65.0599 36.2094H60.4948L60.4952 33.55H62.4292C62.6354 33.55 62.8292 33.4504 62.9492 33.2826C63.0698 33.1151 63.1019 32.9 63.0354 32.704L61.8408 29.1817H62.4292C62.6354 29.1817 62.8292 29.0821 62.9493 28.9143C63.0698 28.7469 63.1019 28.5317 63.0354 28.3357L61.8408 24.8134H62.4292C62.6354 24.8134 62.8292 24.7139 62.9493 24.546C63.0698 24.3786 63.102 24.1634 63.0354 23.9675L61.5537 19.6C61.4658 19.3402 61.222 19.1656 60.9475 19.1656H59.126L58.5117 14.5554C58.4693 14.2375 58.1983 14 57.8778 14H55.7345C55.4139 14 55.1425 14.2375 55.1001 14.5554L54.4858 19.1656H52.6643C52.3898 19.1656 52.146 19.3402 52.0581 19.6L50.5768 23.9684C50.5107 24.1639 50.5424 24.3791 50.663 24.5469C50.783 24.7148 50.9768 24.8143 51.183 24.8143H51.7714L50.5768 28.3366C50.5107 28.5322 50.5424 28.7474 50.663 28.9152C50.7831 29.0831 50.9768 29.1826 51.1831 29.1826H51.7715L50.5768 32.7049C50.5107 32.9004 50.5424 33.1156 50.663 33.2835C50.7831 33.4513 50.9768 33.5509 51.1831 33.5509H53.117V36.2103L43.7894 36.2094V33.55H45.7233C45.9296 33.55 46.1233 33.4504 46.2434 33.2826C46.3639 33.1152 46.3961 32.9 46.3296 32.704L45.1349 29.1817H45.7233C45.9296 29.1817 46.1233 29.0822 46.2434 28.9143C46.3639 28.7469 46.3961 28.5317 46.3296 28.3357L45.1349 24.8135H45.7233C45.9296 24.8135 46.1233 24.7139 46.2434 24.546C46.364 24.3786 46.3961 24.1635 46.3296 23.9675L44.8483 19.6C44.7604 19.3402 44.5166 19.1657 44.2421 19.1657H42.4206L41.8063 14.5554C41.7639 14.2375 41.4925 14 41.1719 14H39.0282C38.7076 14 38.4362 14.2375 38.3938 14.5554L37.7795 19.1657H35.958C35.6835 19.1657 35.4397 19.3402 35.3517 19.6L33.8705 23.9684C33.8044 24.1639 33.8361 24.3791 33.9567 24.547C34.0767 24.7148 34.2705 24.8144 34.4767 24.8144H35.0651L33.8705 28.3367C33.8044 28.5322 33.8361 28.7474 33.9567 28.9152C34.0768 29.0831 34.2705 29.1826 34.4768 29.1826H35.0651L33.8705 32.7049C33.8044 32.9004 33.8361 33.1156 33.9567 33.2835C34.0768 33.4513 34.2705 33.5509 34.4768 33.5509H36.4107V36.2103L27.0831 36.2094V33.55H29.017C29.2233 33.55 29.417 33.4504 29.5371 33.2826C29.6576 33.1152 29.6898 32.9 29.6233 32.704L28.4286 29.1817H29.017C29.2233 29.1817 29.417 29.0822 29.5371 28.9143C29.6576 28.7469 29.6898 28.5317 29.6233 28.3358L28.4286 24.8135H29.017C29.2233 24.8135 29.417 24.7139 29.5371 24.5461C29.6577 24.3787 29.6898 24.1635 29.6233 23.9675L28.142 19.6001C28.0541 19.3402 27.8103 19.1657 27.5358 19.1657H25.7143L25.1 14.5554C25.0576 14.2376 24.7862 14 24.4656 14H22.3223C22.0018 14 21.7303 14.2375 21.6879 14.5554L21.0736 19.1657H19.2522C18.9776 19.1657 18.7338 19.3402 18.6459 19.6001L17.1646 23.9684C17.0986 24.1639 17.1303 24.3791 17.2508 24.547C17.3709 24.7148 17.5646 24.8144 17.7709 24.8144H18.3593L17.1647 28.3367C17.0986 28.5322 17.1303 28.7474 17.2508 28.9152C17.3709 29.0831 17.5647 29.1826 17.7709 29.1826H18.3593L17.1647 32.7049C17.0986 32.9005 17.1303 33.1157 17.2508 33.2835C17.3709 33.4514 17.5647 33.5509 17.7709 33.5509H19.7049V36.2103L15.1402 36.2094C14.7866 36.2094 14.5 36.4961 14.5 36.8496V41.7827C14.5 42.1362 14.7862 42.4228 15.1402 42.4228H15.7969V58.9874H15.1402C14.7866 58.9874 14.5 59.274 14.5 59.6276V64.5602C14.5 64.9137 14.7862 65.2004 15.1402 65.2004H65.0602C65.4138 65.2004 65.7004 64.9137 65.7004 64.5602V59.6271C65.7004 59.2736 65.4142 58.987 65.0602 58.987H64.4035L64.403 42.4224H65.0597C65.4133 42.4224 65.6999 42.1358 65.6999 41.7822V36.8492C65.6999 36.4961 65.4138 36.2094 65.0597 36.2094L65.0599 36.2094ZM56.2952 15.2802H57.3171L57.835 19.166H55.7769L56.2952 15.2802ZM53.1233 20.4458H60.4889L61.5358 23.5338H60.9479L52.6644 23.5343H52.0765L53.1233 20.4458ZM60.4889 24.8142L61.5358 27.9022H52.0764L53.1233 24.8142H60.4889ZM53.1233 29.1821H60.4889L61.5358 32.2701L52.0764 32.2705L53.1233 29.1821ZM54.3971 33.5504H59.2153V36.2098H54.3971V33.5504ZM39.5891 15.2807H40.6114L41.1292 19.1664H39.0707L39.5891 15.2807ZM36.4172 20.4463H43.7832L44.8301 23.5343H44.2422L35.9583 23.5347H35.3703L36.4172 20.4463ZM43.7832 24.8146L44.8301 27.9026H35.3703L36.4172 24.8146H43.7832ZM36.4172 29.1825H43.7832L44.8301 32.2705H35.3703L36.4172 29.1825ZM37.6909 33.5509H42.5096V36.2103H37.6909V33.5509ZM22.8829 15.2812H23.9048L24.4226 19.1669H22.3646L22.8829 15.2812ZM19.711 20.4468H27.0766L28.1235 23.5348H27.5355L19.2524 23.5352H18.6645L19.711 20.4468ZM27.0766 24.8151L28.1235 27.9031H18.6645L19.7114 24.8151H27.0766ZM19.711 29.183H27.0766L28.1235 32.271L18.664 32.2714L19.711 29.183ZM20.9847 33.5513H25.803V36.2108H20.9847V33.5513ZM64.4201 63.9216H15.7801V60.2685H64.4201V63.9216ZM63.1232 58.9886H17.0764V42.424H63.1232V58.9886ZM64.4201 41.144H15.7801V37.4909H64.4201V41.144Z" fill="#4BB134" stroke="#4BB134" stroke-width="0.5"/>
<path d="M35.919 51.6161C36.0395 51.7518 36.2123 51.8303 36.394 51.8312L37.3176 51.837L36.6944 55.983C36.6538 56.2548 36.7913 56.5223 37.0355 56.6477C37.1279 56.695 37.2279 56.7182 37.3274 56.7182C37.4904 56.7182 37.652 56.6557 37.7743 56.5366L44.3694 50.1035C44.5556 49.9218 44.6132 49.6459 44.5158 49.4049C44.4185 49.1638 44.1846 49.0058 43.9248 49.0053L41.7966 48.9995L43.3229 45.4062C43.4073 45.2085 43.3868 44.9817 43.268 44.8027C43.1493 44.6237 42.9493 44.5156 42.7341 44.5156H37.0877C36.7622 44.5156 36.489 44.7598 36.452 45.083L35.7618 51.1187C35.7417 51.299 35.7984 51.4803 35.9189 51.616L35.919 51.6161ZM37.6592 45.7955H41.7667L40.2417 49.3861C40.1573 49.5834 40.1779 49.8098 40.2962 49.9888C40.4145 50.1678 40.6145 50.2758 40.8288 50.2763L42.355 50.2803L38.2438 54.2906L38.6938 51.2964C38.7215 51.1129 38.6675 50.9263 38.547 50.7852C38.4264 50.6442 38.2501 50.5629 38.0644 50.5616L37.1148 50.5558L37.6592 45.7955Z" fill="#4BB134" stroke="#4BB134" stroke-width="0.5"/>
</svg>
