<svg width="80" height="80" viewBox="0 0 80 80" fill="none" xmlns="http://www.w3.org/2000/svg">
<path d="M35.1248 29.6992C36.3456 28.9042 37.144 27.6993 37.144 26.3342C37.144 23.9772 34.8069 22.0625 31.9151 22.0103C31.9151 22.0072 31.9171 22.0045 31.9171 22.0005V19.0006C31.9171 18.4489 31.4379 18.0007 30.848 18.0007H27.6408L27.6413 13.0009C27.6413 12.4491 27.1621 12.0009 26.5722 12.0009C25.9824 12.0009 25.5032 12.4491 25.5032 13.0009V18.0007H22.296C21.7061 18.0007 21.2269 18.4489 21.2269 19.0006V22.0005C21.2269 22.0036 21.2289 22.0063 21.2289 22.0103C18.3371 22.0621 16 23.9772 16 26.3342C16 27.6993 16.7985 28.9042 18.0192 29.6992V50.3017C16.7984 51.0968 16 52.3016 16 53.6667C16 56.0237 18.3371 57.9384 21.2289 57.9906C21.2289 57.9938 21.2269 57.9964 21.2269 58.0004V61.0003C21.2269 61.5521 21.7061 62.0003 22.296 62.0003H25.5032V67C25.5032 67.5518 25.9824 68 26.5722 68C27.1621 68 27.6413 67.5518 27.6413 67V62.0003H30.8485C31.4384 62.0003 31.9175 61.5521 31.9175 61.0003V58.0004C31.9175 57.9973 31.9156 57.9946 31.9156 57.9906C34.8073 57.9388 37.1445 56.0237 37.1445 53.6667C37.1445 52.3016 36.346 51.0968 35.1252 50.3017L35.1248 29.6992ZM20.1579 37.9998H32.9867V41.9996H20.1579V37.9998ZM23.3651 20.0006H29.7795V22.0005H23.3651V20.0006ZM21.3459 24.0004H31.7979C33.5361 24.0004 35.005 25.0695 35.005 26.3333C35.005 27.5971 33.5361 28.6662 31.7979 28.6662H21.3459C19.6077 28.6662 18.1387 27.5971 18.1387 26.3333C18.1387 25.0695 19.6086 24.0004 21.3459 24.0004ZM21.3459 30.6671H31.7979C32.2073 30.6671 32.6016 30.622 32.9858 30.5501V35.9999H20.1571V30.5501C20.5417 30.622 20.9364 30.6671 21.3459 30.6671H21.3459ZM29.7795 59.9983H23.3651V57.9984H29.7795V59.9983ZM31.7992 55.9985H21.3472C19.609 55.9985 18.1401 54.9293 18.1401 53.6656C18.1401 52.4017 19.609 51.3326 21.3472 51.3326H31.7992C33.5374 51.3326 35.0064 52.4018 35.0064 53.6656C35.0064 54.9294 33.5374 55.9985 31.7992 55.9985ZM31.7992 49.3318H21.3472C20.9377 49.3318 20.5435 49.3769 20.1593 49.4488V43.999H32.988V49.4488C32.6029 49.3769 32.2087 49.3318 31.7992 49.3318H31.7992ZM62.9803 50.2996V29.6983C64.2011 28.9032 64.9995 27.6984 64.9995 26.3333C64.9995 23.9763 62.6624 22.0616 59.7707 22.0094C59.7707 22.0062 59.7726 22.0036 59.7726 21.9995V18.9997C59.7726 18.4479 59.2934 17.9997 58.7035 17.9997H55.4963L55.4968 13C55.4968 12.4482 55.0176 12 54.4278 12C53.8379 12 53.3587 12.4482 53.3587 13V17.9997H50.1515C49.5616 17.9997 49.0825 18.4479 49.0825 18.9997V21.9995C49.0825 22.0027 49.0844 22.0054 49.0844 22.0094C46.1927 22.0612 43.8555 23.9763 43.8555 26.3333C43.8555 27.6984 44.654 28.9032 45.8748 29.6983V50.3008C44.6539 51.0958 43.8555 52.3007 43.8555 53.6658C43.8555 56.0228 46.1927 57.9375 49.0844 57.9897C49.0844 57.9928 49.0825 57.9955 49.0825 57.9995V60.9994C49.0825 61.5511 49.5616 61.9993 50.1515 61.9993H53.3587V66.9991C53.3587 67.5509 53.8379 67.9991 54.4278 67.9991C55.0176 67.9991 55.4968 67.5509 55.4968 66.9991V61.9993H58.704C59.2939 61.9993 59.7731 61.5511 59.7731 60.9994V57.9995C59.7731 57.9964 59.7711 57.9937 59.7711 57.9897C62.6629 57.9379 65 56.0228 65 53.6658C64.9995 52.2993 64.2011 51.0945 62.9803 50.2994L62.9803 50.2996ZM48.0135 37.9996H60.8422V41.9994H48.0135V37.9996ZM51.2206 20.0004H57.635V22.0003H51.2206V20.0004ZM49.2009 24.0003H59.6529C61.3911 24.0003 62.8601 25.0694 62.8601 26.3332C62.8601 27.597 61.3911 28.6661 59.6529 28.6661H49.2009C47.4627 28.6661 45.9937 27.5969 45.9937 26.3332C45.9937 25.0693 47.4627 24.0003 49.2009 24.0003ZM49.2009 30.6669H59.6529C60.0624 30.6669 60.4566 30.6218 60.8408 30.55V35.9998H48.0121V30.55C48.3972 30.6218 48.7914 30.6669 49.2009 30.6669H49.2009ZM48.0135 43.9989H60.8422V49.4487C60.4585 49.3777 60.0638 49.3317 59.6543 49.3317H49.2023C48.7928 49.3317 48.3986 49.3768 48.0144 49.4487V43.9989H48.0135ZM57.635 59.9982H51.2207V57.9983H57.635V59.9982ZM59.6543 55.9983H49.2023C47.4641 55.9983 45.9951 54.9292 45.9951 53.6654C45.9951 52.4016 47.4641 51.3325 49.2023 51.3325H59.6543C61.3925 51.3325 62.8614 52.4017 62.8614 53.6654C62.8614 54.9293 61.3915 55.9983 59.6543 55.9983Z" fill="#4BB134"/>
</svg>
