<svg width="78" height="83" viewBox="0 0 78 83" fill="none" xmlns="http://www.w3.org/2000/svg">
<path d="M56.0437 10.1945C51.9621 7.25777 46.7217 6.16339 41.8247 8.61044C41.092 8.1826 38.2176 6.88667 35.5744 9.72187H31.4349C30.8377 9.72187 30.3537 10.2573 30.3537 10.9178L30.3533 11.6569C23.6962 12.8597 22.6276 21.7323 22.6276 26.5783V49.9798H22.2601C21.7049 49.9798 21.2394 50.4452 21.1849 51.0558L20.482 58.8187C20.4515 59.1548 20.5511 59.4904 20.756 59.7406C20.9606 59.9908 21.2521 60.1343 21.5575 60.1343H25.9687C26.2772 60.1343 26.5702 59.9891 26.7755 59.735C26.9809 59.4806 27.0778 59.1411 27.0427 58.803L26.2397 51.04C26.1772 50.4363 25.7151 49.9811 25.1654 49.9811H24.7886V26.5796C24.7886 18.1771 27.5202 14.6696 30.3526 14.0793V14.7044C30.3526 15.3641 30.8366 15.9 31.4338 15.9H34.4808C34.7576 16.6566 35.1776 17.3287 35.7049 17.8808C31.3501 19.5622 28.2167 24.1501 28.2167 29.5329V67.2786C28.2167 67.9383 28.7007 68.4742 29.2976 68.4742H49.4451C50.0427 68.4742 50.5263 67.9388 50.5263 67.2786L50.5271 29.5307C50.5271 24.1478 47.394 19.5598 43.0391 17.8786C43.2792 17.6271 43.4973 17.3504 43.69 17.0511C44.276 17.0097 48.3764 16.8116 53.1741 19.0742C54.3013 19.464 54.6696 18.4021 54.6789 18.0067C54.7206 16.301 53.491 14.5772 50.1056 12.5674C52.1307 12.3744 54.3763 12.3637 55.4278 12.391C56.3701 12.4248 57.0724 11.005 56.0435 10.1934L56.0437 10.1945ZM22.7535 57.7429L23.2395 52.3715H24.203L24.7581 57.7429H22.7535ZM34.1144 13.5076H32.5166L32.517 12.1144H34.3252C34.2059 12.5589 34.1333 13.0251 34.1144 13.5076ZM39.3738 10.33C41.0843 10.33 42.4764 11.8702 42.4764 13.7621C42.4764 14.0469 42.4443 14.3227 42.3849 14.5883H40.1674L41.1098 12.6165C41.2491 12.3244 41.1484 11.9632 40.8851 11.8091C40.6207 11.6541 40.2941 11.7668 40.1547 12.058L38.9449 14.5879L36.3619 14.5887C36.3028 14.3232 36.2704 14.0469 36.2704 13.7625C36.2708 11.8698 37.6625 10.33 39.3738 10.33ZM41.8784 15.7842C41.3132 16.6382 40.4014 17.1945 39.3738 17.1945C38.3462 17.1945 37.4335 16.6382 36.8683 15.7842H41.8784ZM30.3811 32.6306H38.8329V53.0381H30.3811V32.6306ZM48.3672 66.0828H30.3811V59.775H48.3672V66.0828ZM48.3672 29.5317V58.5789H30.3811V54.2326H39.3741C39.6726 54.2326 39.915 53.9645 39.915 53.6344V32.0311C39.915 31.7006 39.6726 31.4328 39.3741 31.4328H30.3811V29.5311C30.3811 24.0466 34.4151 19.5847 39.3741 19.5847C44.3328 19.5851 48.3668 24.0466 48.3668 29.5311L48.3672 29.5317ZM46.1684 10.9354C45.0068 11.6339 45.372 12.8295 46.1522 13.177C46.1691 13.1843 49.1821 14.5476 50.3619 15.4989C47.8611 14.7859 45.7928 14.642 44.5791 14.6347C44.7906 12.7244 44.2698 11.3226 43.6464 10.3653C45.0531 9.8188 47.6129 9.19674 50.7236 10.1185C49.0455 10.2428 47.2979 10.4828 46.1684 10.9354Z" fill="#43B02A"/>
</svg>
