<svg width="78" height="83" viewBox="0 0 78 83" fill="none" xmlns="http://www.w3.org/2000/svg">
<path d="M64.2659 65.5197H63.2131V36.3907H64.2659C64.8473 36.3907 65.3188 35.8891 65.3188 35.2704C65.3188 34.6517 64.8473 34.1501 64.2659 34.1501H56.1444L42.1107 24.8176C42.8144 24.0009 43.2054 22.9341 43.2087 21.8263C43.2087 21.2076 42.7373 20.7059 42.1558 20.7059C41.5744 20.7059 41.103 21.2076 41.103 21.8263C41.1006 22.521 40.7942 23.1752 40.2743 23.5953L39.5552 23.1171C39.5096 23.0946 39.4631 23.0761 39.4151 23.0611C39.3465 23.0236 39.2741 22.9946 39.1994 22.9746C39.0659 22.9646 38.9324 22.9641 38.7994 22.9736C38.72 22.9941 38.6433 23.0251 38.571 23.0646C38.5258 23.0791 38.4821 23.0966 38.4394 23.1176L37.7202 23.5958C37.2502 23.2156 36.9522 22.6425 36.8996 22.0168C36.8469 21.3911 37.0443 20.7709 37.4438 20.3082C37.8429 19.8456 38.4069 19.583 38.9972 19.5855C39.2764 19.5855 39.5444 19.4675 39.7418 19.2574C39.9392 19.0473 40.0501 18.7622 40.0501 18.4652V13.9838C41.2632 13.9818 42.4383 13.5351 43.3778 12.7189C44.3173 11.9026 44.9637 10.7668 45.2081 9.50241H51.6315C52.2129 9.50241 52.6844 9.00075 52.6844 8.38206C52.6844 7.76338 52.2129 7.26172 51.6315 7.26172H26.363C25.7816 7.26172 25.3101 7.76338 25.3101 8.38206C25.3101 9.00075 25.7816 9.50241 26.363 9.50241H32.7864C33.0308 10.7668 33.6771 11.9026 34.6167 12.7189C35.5562 13.5351 36.7313 13.9818 37.9444 13.9838V17.4868C36.5165 17.8729 35.3837 19.0288 34.9616 20.5307C34.5395 22.0326 34.8897 23.6601 35.8838 24.8174L21.8502 34.1499H13.7286C13.1472 34.1499 12.6758 34.6515 12.6758 35.2702C12.6758 35.8889 13.1472 36.3905 13.7286 36.3905H14.7815V65.5195H13.7286C13.1472 65.5195 12.6758 66.0212 12.6758 66.6399C12.6758 67.2585 13.1472 67.7602 13.7286 67.7602H64.2656C64.8471 67.7602 65.3185 67.2585 65.3185 66.6399C65.3185 66.0212 64.8471 65.5195 64.2656 65.5195L64.2659 65.5197ZM34.9665 9.50247H43.0283C42.8098 10.1572 42.4065 10.7244 41.8735 11.1255C41.34 11.5266 40.7031 11.7422 40.0503 11.7432H37.9446C37.2917 11.7422 36.6548 11.5266 36.1214 11.1255C35.5884 10.7244 35.185 10.1572 34.9665 9.50247ZM37.8834 26.1284C38.6091 26.367 39.3856 26.367 40.1114 26.1284L52.1729 34.1498H25.8226L37.8834 26.1284ZM16.8877 65.5197V36.3907H61.1076V65.5197H16.8877Z" fill="#43B02A"/>
<path d="M26.3622 38.8555H20.045C19.4636 38.8555 18.9922 39.3571 18.9922 39.9758V62.3827C18.9922 62.6798 19.1031 62.9649 19.3005 63.175C19.4979 63.385 19.7658 63.5031 20.045 63.5031H26.3622C26.6414 63.5031 26.9093 63.385 27.1067 63.175C27.3041 62.9649 27.415 62.6798 27.415 62.3827V39.9758C27.415 39.6787 27.3041 39.3936 27.1067 39.1836C26.9093 38.9735 26.6414 38.8555 26.3622 38.8555ZM25.3093 61.2624H21.0979V41.0962H25.3093V61.2624Z" fill="#43B02A"/>
<path d="M57.9481 38.8555H51.631C51.0496 38.8555 50.5781 39.3571 50.5781 39.9758V62.3827C50.5781 62.6798 50.6891 62.9649 50.8865 63.175C51.0839 63.385 51.3518 63.5031 51.631 63.5031H57.9481C58.2273 63.5031 58.4952 63.385 58.6926 63.175C58.89 62.9649 59.001 62.6798 59.001 62.3827V39.9758C59.001 39.6787 58.89 39.3936 58.6926 39.1836C58.4952 38.9735 58.2273 38.8555 57.9481 38.8555ZM56.8952 61.2624H52.6838V41.0962H56.8952V61.2624Z" fill="#43B02A"/>
<path d="M42.1551 38.8555H35.838C35.2566 38.8555 34.7852 39.3571 34.7852 39.9758V62.3827C34.7852 62.6798 34.8961 62.9649 35.0935 63.175C35.2909 63.385 35.5588 63.5031 35.838 63.5031H42.1551C42.4343 63.5031 42.7022 63.385 42.8997 63.175C43.0971 62.9649 43.208 62.6798 43.208 62.3827V39.9758C43.208 39.6787 43.0971 39.3936 42.8997 39.1836C42.7022 38.9735 42.4343 38.8555 42.1551 38.8555ZM41.1023 61.2624H36.8909V41.0962H41.1023V61.2624Z" fill="#43B02A"/>
</svg>
