<svg width="78" height="83" viewBox="0 0 78 83" fill="none" xmlns="http://www.w3.org/2000/svg">
<path d="M19.2661 22.8847C18.6368 22.8862 18.0333 23.1528 17.588 23.6267C17.1426 24.1006 16.892 24.7423 16.8906 25.4124V27.1686C16.892 27.8388 17.1426 28.481 17.588 28.9544C18.0333 29.4282 18.6368 29.6949 19.2661 29.6964C19.3501 29.9386 19.443 30.1773 19.5449 30.4125C19.0995 30.8874 18.8494 31.531 18.8494 32.2022C18.8494 32.8733 19.0995 33.5169 19.5449 33.9918L20.7115 35.2332C21.1573 35.7086 21.7626 35.9758 22.3933 35.9758C23.0245 35.9758 23.6299 35.7086 24.0752 35.2332C24.2958 35.3416 24.5201 35.44 24.7482 35.5299C24.7496 36.2 25.0002 36.8422 25.4455 37.3156C25.8908 37.7895 26.4943 38.0561 27.1237 38.0576H28.7741C29.4038 38.0561 30.0074 37.7895 30.4527 37.3156C30.8976 36.8422 31.1486 36.2 31.15 35.5299C31.3776 35.4405 31.6019 35.3416 31.823 35.2332H31.8225C32.2683 35.7086 32.8732 35.9758 33.5044 35.9758C34.1356 35.9758 34.7404 35.7086 35.1863 35.2332L36.3529 33.9918H36.3533C36.7987 33.517 37.0488 32.8733 37.0488 32.2022C37.0488 31.531 36.7987 30.8874 36.3533 30.4125C36.4552 30.1778 36.5476 29.9391 36.6321 29.6964H36.6316C37.2614 29.6949 37.8649 29.4282 38.3102 28.9544C38.7551 28.481 39.0062 27.8388 39.0076 27.1686V25.4124C39.0062 24.7423 38.7551 24.1006 38.3102 23.6267C37.8649 23.1528 37.2614 22.8862 36.6316 22.8847C36.5476 22.6425 36.4547 22.4038 36.3529 22.1686H36.3533C36.7987 21.6937 37.0488 21.05 37.0488 20.3789C37.0488 19.7078 36.7987 19.0641 36.3533 18.5892L35.1867 17.3478H35.1863C34.7404 16.8724 34.1356 16.6053 33.5044 16.6053C32.8732 16.6053 32.2683 16.8724 31.8225 17.3478C31.6019 17.2395 31.3776 17.1411 31.1496 17.0512H31.15C31.1486 16.3811 30.8976 15.7394 30.4527 15.2655C30.0074 14.7916 29.4039 14.5249 28.7741 14.5234H27.1448C26.5197 14.5264 25.9209 14.7906 25.4775 15.2595C25.034 15.7284 24.7815 16.3636 24.7745 17.0287C24.5469 17.1181 24.3226 17.217 24.1015 17.3253C23.6562 16.8499 23.0508 16.5828 22.4197 16.5828C21.789 16.5828 21.1836 16.8499 20.7378 17.3253L19.5552 18.5557C19.1099 19.0306 18.8598 19.6743 18.8598 20.3454C18.8598 21.0166 19.1099 21.6602 19.5552 22.1351C19.4534 22.3698 19.3609 22.6085 19.2765 22.8512L19.2661 22.8847ZM20.6801 25.1218C20.8124 25.1213 20.9255 25.0199 20.9481 24.8811C21.1301 23.8509 21.5112 22.8717 22.0677 22.0063C22.1447 21.8905 22.1316 21.7317 22.0363 21.6318L21.0377 20.5692C20.9856 20.5148 20.9565 20.4399 20.9565 20.3625C20.9565 20.2846 20.9856 20.2102 21.0377 20.1552L22.2043 18.9138C22.2559 18.8584 22.3258 18.8274 22.399 18.8274C22.4718 18.8274 22.5422 18.8584 22.5933 18.9138L23.5919 19.9765C23.6421 20.0299 23.7102 20.0599 23.781 20.0604C23.8374 20.0609 23.8923 20.0434 23.9387 20.0099C24.752 19.4177 25.6718 19.0122 26.6403 18.8185C26.7675 18.801 26.8655 18.6916 26.8768 18.5558V17.0288C26.8768 16.9519 26.9054 16.878 26.9571 16.8236C27.0082 16.7686 27.0777 16.7382 27.1499 16.7382H28.8003C28.8731 16.7382 28.9425 16.7686 28.9937 16.8236C29.0448 16.878 29.0739 16.9519 29.0739 17.0288V18.5558C29.0744 18.6966 29.1697 18.8165 29.2996 18.8409C30.2682 19.0347 31.188 19.4402 32.0012 20.0324C32.0477 20.0653 32.1026 20.0833 32.1589 20.0828C32.2298 20.0823 32.2978 20.0524 32.348 19.9989L33.3466 18.9363C33.3982 18.8809 33.4682 18.8494 33.5414 18.8494C33.6141 18.8494 33.6845 18.8809 33.7357 18.9363L34.9023 20.1777C34.9543 20.2321 34.9839 20.307 34.9839 20.3844C34.9839 20.4623 34.9543 20.5367 34.9023 20.5917L33.9036 21.6543C33.8084 21.7542 33.7952 21.9125 33.8722 22.0288C34.4288 22.8942 34.8098 23.873 34.9919 24.9036C35.0149 25.0424 35.1275 25.1433 35.2598 25.1442H36.6738C36.7461 25.1442 36.8155 25.1747 36.8672 25.2291C36.9183 25.2836 36.9469 25.358 36.9469 25.4349V27.1686C36.9469 27.3294 36.8245 27.4592 36.6738 27.4592H35.2862C35.1538 27.4602 35.0412 27.5611 35.0182 27.6999C34.8361 28.7305 34.4551 29.7093 33.8985 30.5746C33.8216 30.691 33.8347 30.8493 33.93 30.9491L34.9286 32.0118C34.9807 32.0667 35.0102 32.1411 35.0102 32.219C35.0102 32.2964 34.9807 32.3713 34.9286 32.4257L33.7357 33.6562C33.6845 33.7116 33.6141 33.7425 33.5414 33.7425C33.4682 33.7425 33.3983 33.7116 33.3467 33.6562L32.348 32.5935C32.287 32.5426 32.2087 32.5221 32.1326 32.5376C32.0763 32.5371 32.0214 32.5546 31.975 32.588C31.1617 33.1803 30.2419 33.5857 29.2734 33.779C29.1434 33.8035 29.0481 33.9238 29.0477 34.0646V35.5692V35.5687C29.0477 35.7295 28.9252 35.8599 28.7741 35.8599H27.1448C26.9942 35.8599 26.8717 35.7295 26.8717 35.5687V34.0533C26.8713 33.9124 26.776 33.7926 26.6455 33.7681C25.6774 33.5749 24.7571 33.1689 23.944 32.5767C23.8975 32.5437 23.8426 32.5262 23.7863 32.5267C23.7154 32.5267 23.6474 32.5567 23.5972 32.6106L22.5934 33.6563C22.5422 33.7117 22.4719 33.7427 22.3991 33.7427C22.3259 33.7427 22.256 33.7117 22.2044 33.6563L21.0378 32.4259C20.9857 32.3714 20.9566 32.2965 20.9566 32.2191C20.9566 32.1412 20.9857 32.0668 21.0378 32.0119L22.0364 30.9493C22.1316 30.8494 22.1448 30.6911 22.0678 30.5747C21.5113 29.7094 21.1302 28.7306 20.9481 27.7C20.9256 27.5612 20.8125 27.4603 20.6802 27.4593H19.2662C19.1156 27.4593 18.9931 27.3295 18.9931 27.1687V25.4125C18.9931 25.3356 19.0217 25.2617 19.0733 25.2068C19.1245 25.1523 19.1939 25.1219 19.2662 25.1219L20.6801 25.1218Z" fill="#43B02A"/>
<path d="M27.966 31.1857C29.1856 31.1857 30.3551 30.6699 31.2176 29.7521C32.0801 28.8342 32.5649 27.5899 32.5649 26.2921C32.5649 24.9938 32.0801 23.7493 31.2176 22.8316C30.3551 21.9138 29.1856 21.3984 27.966 21.3984C26.746 21.3984 25.5765 21.9138 24.714 22.8316C23.8516 23.7494 23.3672 24.9938 23.3672 26.2921C23.3686 27.5894 23.8534 28.8333 24.7155 29.7507C25.5775 30.668 26.7464 31.1843 27.9662 31.1859L27.966 31.1857ZM27.966 23.6409C28.6282 23.6409 29.2631 23.9206 29.7309 24.4189C30.1993 24.9173 30.4625 25.5929 30.4625 26.2974C30.4625 27.002 30.1993 27.6777 29.7309 28.176C29.2631 28.6738 28.6281 28.954 27.966 28.954C27.3039 28.954 26.6685 28.6738 26.2007 28.176C25.7323 27.6776 25.4695 27.002 25.4695 26.2974C25.4695 25.5929 25.7323 24.9172 26.2007 24.4189C26.6685 23.9206 27.3039 23.6409 27.966 23.6409Z" fill="#43B02A"/>
<path d="M72.0754 61.3398H6.90273C6.32225 61.3398 5.85156 61.8407 5.85156 62.4584V66.9326C5.85156 67.2292 5.96231 67.5139 6.15941 67.7236C6.3565 67.9333 6.62399 68.0512 6.90273 68.0512H72.0754C72.3541 68.0512 72.6216 67.9333 72.8187 67.7236C73.0158 67.5139 73.1266 67.2292 73.1266 66.9326V62.4584C73.1266 62.1618 73.0158 61.8771 72.8187 61.6674C72.6216 61.4577 72.3541 61.3398 72.0754 61.3398ZM8.51613 65.8141H7.95394V63.577H10.6185L8.51613 65.8141ZM13.2939 65.8141H11.4914L13.5937 63.577H15.4018L13.2939 65.8141ZM18.0716 65.8141H16.2686L18.371 63.577H20.1791L18.0716 65.8141ZM22.8493 65.8141H21.0463L23.1487 63.577H24.9568L22.8493 65.8141ZM27.627 65.8141H25.8241L27.9264 63.577H29.7345L27.627 65.8141ZM32.4048 65.8141H30.607L32.7093 63.577H34.5174L32.4048 65.8141ZM38.4331 65.8141H35.3847L37.487 63.577H38.4383L38.4331 65.8141ZM71.0194 65.8141H40.5402V63.577H71.0242L71.0194 65.8141Z" fill="#43B02A"/>
<path d="M43.4033 22.8847C42.7735 22.8862 42.17 23.1529 41.7247 23.6267C41.2798 24.1006 41.0287 24.7423 41.0273 25.4125V27.1687C41.0288 27.8388 41.2798 28.481 41.7247 28.9544C42.17 29.4283 42.7735 29.6949 43.4033 29.6964C43.4873 29.9386 43.5802 30.1773 43.6821 30.4125H43.6816C43.2363 30.8874 42.9861 31.5311 42.9861 32.2022C42.9861 32.8733 43.2362 33.517 43.6816 33.9919L44.8482 35.2333H44.8487C45.2945 35.7087 45.8994 35.9758 46.5305 35.9758C47.1617 35.9758 47.7666 35.7087 48.2124 35.2333C48.433 35.3416 48.6573 35.44 48.8854 35.5299H48.8849C48.8863 36.2 49.1374 36.8422 49.5822 37.3156C50.0276 37.7895 50.6311 38.0562 51.2609 38.0577H52.9113C53.5406 38.0562 54.1441 37.7895 54.5894 37.3156C55.0348 36.8422 55.2854 36.2 55.2868 35.5299C55.5144 35.4405 55.7387 35.3416 55.9597 35.2333C56.405 35.7087 57.0104 35.9758 57.6416 35.9758C58.2723 35.9758 58.8776 35.7087 59.3235 35.2333L60.5163 34.0089C60.9617 33.5335 61.2118 32.8898 61.2118 32.2192C61.2118 31.548 60.9617 30.9044 60.5163 30.4295C60.6182 30.1948 60.7106 29.9561 60.7951 29.7134C61.4244 29.7119 62.0279 29.4452 62.4732 28.9714C62.9186 28.4975 63.1692 27.8553 63.1706 27.1856V25.4124C63.1692 24.7423 62.9186 24.1006 62.4732 23.6267C62.0279 23.1528 61.4244 22.8862 60.7951 22.8847C60.7111 22.6425 60.6182 22.4038 60.5163 22.1686C60.9617 21.6937 61.2118 21.05 61.2118 20.3789C61.2118 19.7078 60.9617 19.0641 60.5163 18.5892L59.3497 17.3478C58.9039 16.8724 58.2986 16.6053 57.6679 16.6053C57.0367 16.6053 56.4313 16.8724 55.986 17.3478C55.7654 17.2395 55.5411 17.1411 55.313 17.0512C55.3116 16.3811 55.061 15.7394 54.6157 15.2655C54.1704 14.7916 53.5669 14.5249 52.9376 14.5234H51.282C50.6522 14.5249 50.0487 14.7916 49.6034 15.2655C49.158 15.7394 48.9074 16.381 48.906 17.0512C48.6784 17.1406 48.4541 17.2395 48.2331 17.3478H48.2335C47.7877 16.8724 47.1824 16.6053 46.5517 16.6053C45.9205 16.6053 45.3151 16.8724 44.8698 17.3478L43.6975 18.5558C43.2522 19.0306 43.0021 19.6743 43.0021 20.3454C43.0021 21.0166 43.2522 21.6602 43.6975 22.1351C43.5957 22.3698 43.5033 22.6085 43.4188 22.8512L43.4033 22.8847ZM44.8173 25.1218C44.9492 25.1213 45.0623 25.0199 45.0853 24.8811C45.2669 23.8509 45.6484 22.8717 46.2045 22.0064C46.2819 21.8905 46.2683 21.7317 46.173 21.6318L45.1744 20.5692C45.1223 20.5148 45.0932 20.4399 45.0932 20.3625C45.0932 20.2846 45.1223 20.2102 45.1744 20.1553L46.3255 18.9139C46.3767 18.8584 46.4471 18.8275 46.5198 18.8275C46.593 18.8275 46.6629 18.8584 46.7146 18.9139L47.7132 19.9765C47.7634 20.0299 47.8314 20.0599 47.9023 20.0604C47.9586 20.0609 48.0135 20.0434 48.06 20.0099C48.8732 19.4177 49.793 19.0122 50.7615 18.8185C50.8915 18.7945 50.9868 18.6742 50.9873 18.5334V17.0287C50.9873 16.9518 51.0164 16.8779 51.0675 16.8235C51.1187 16.7686 51.1881 16.7381 51.2609 16.7381H52.9113C52.9835 16.7381 53.053 16.7686 53.1041 16.8235C53.1557 16.8779 53.1844 16.9518 53.1844 17.0287V18.5557C53.1848 18.6965 53.2801 18.8164 53.4106 18.8409C54.3787 19.0346 55.2989 19.4401 56.1117 20.0323C56.1586 20.0653 56.2135 20.0833 56.2693 20.0828C56.3407 20.0823 56.4087 20.0523 56.4589 19.9989L57.4575 18.9362C57.5087 18.8808 57.5786 18.8493 57.6518 18.8493C57.725 18.8493 57.7949 18.8808 57.8461 18.9362L59.0127 20.1776H59.0132C59.0652 20.2321 59.0943 20.307 59.0943 20.3844C59.0943 20.4623 59.0652 20.5367 59.0132 20.5916L58.0145 21.6542C57.9193 21.7541 57.9057 21.9124 57.9831 22.0287C58.5392 22.8941 58.9207 23.8729 59.1023 24.9035C59.1253 25.0423 59.2384 25.1432 59.3703 25.1442H60.7843C60.857 25.1442 60.9264 25.1746 60.9776 25.2291C61.0288 25.2835 61.0578 25.3579 61.0578 25.4348V27.1685C61.0578 27.3293 60.9354 27.4591 60.7843 27.4591H59.3703C59.2384 27.4601 59.1253 27.561 59.1023 27.6998C58.9207 28.7305 58.5392 29.7092 57.9831 30.5746C57.9057 30.6909 57.9193 30.8492 58.0146 30.9491L59.0132 32.0117C59.0653 32.0666 59.0944 32.141 59.0944 32.2189C59.0944 32.2963 59.0653 32.3712 59.0132 32.4257L57.8883 33.6561C57.8372 33.7115 57.7668 33.7425 57.694 33.7425C57.6208 33.7425 57.5509 33.7115 57.4993 33.6561L56.5007 32.5934C56.4467 32.55 56.3791 32.53 56.3116 32.5375C56.2553 32.537 56.2003 32.5545 56.1539 32.588C55.3406 33.1802 54.4208 33.5857 53.4523 33.7789C53.3223 33.8034 53.2271 33.9237 53.2266 34.0645V35.5692V35.5687C53.2266 35.7295 53.1041 35.8598 52.953 35.8598H51.282C51.1308 35.8598 51.0084 35.7295 51.0084 35.5687V34.0532C51.0079 33.9124 50.9126 33.7925 50.7826 33.768C49.8141 33.5748 48.8943 33.1688 48.0811 32.5766C48.0271 32.5426 47.9642 32.5291 47.9023 32.5376C47.8314 32.5376 47.7634 32.5681 47.7132 32.6215L46.73 33.6562C46.6784 33.7171 46.6047 33.7516 46.5278 33.7516C46.4508 33.7516 46.3771 33.7171 46.3255 33.6562L45.1744 32.4258C45.1223 32.3714 45.0932 32.2965 45.0932 32.2191C45.0932 32.1412 45.1223 32.0668 45.1744 32.0118L46.173 30.9492C46.2683 30.8493 46.2819 30.691 46.2045 30.5747C45.6484 29.7093 45.2668 28.7305 45.0852 27.6999C45.0622 27.5611 44.9492 27.4602 44.8173 27.4592H43.4033C43.2522 27.4592 43.1297 27.3294 43.1297 27.1686V25.4124C43.1297 25.3355 43.1588 25.2616 43.21 25.2067C43.2611 25.1523 43.3306 25.1218 43.4033 25.1218L44.8173 25.1218Z" fill="#43B02A"/>
<path d="M52.1028 31.1857C53.3224 31.1857 54.4923 30.6699 55.3548 29.7521C56.2173 28.8342 56.7016 27.5899 56.7016 26.2921C56.7016 24.9938 56.2173 23.7493 55.3548 22.8316C54.4923 21.9138 53.3224 21.3984 52.1028 21.3984C50.8832 21.3984 49.7132 21.9138 48.8507 22.8316C47.9882 23.7494 47.5039 24.9938 47.5039 26.2921C47.5053 27.5894 47.9901 28.8333 48.8527 29.7507C49.7147 30.668 50.8836 31.1843 52.1029 31.1859L52.1028 31.1857ZM52.1028 23.6409C52.7649 23.6409 53.3998 23.9206 53.8681 24.4189C54.3365 24.9173 54.5992 25.5929 54.5992 26.2974C54.5992 27.002 54.3365 27.6777 53.8681 28.176C53.3998 28.6738 52.7649 28.954 52.1028 28.954C51.4406 28.954 50.8057 28.6738 50.3374 28.176C49.8691 27.6776 49.6063 27.002 49.6063 26.2974C49.6063 25.5929 49.8691 24.9172 50.3374 24.4189C50.8057 23.9206 51.4406 23.6409 52.1028 23.6409Z" fill="#43B02A"/>
<path d="M31.3525 43.0175C30.7228 43.019 30.1192 43.2857 29.6739 43.7595C29.229 44.2334 28.978 44.8751 28.9766 45.5453V47.3015C28.978 47.9716 29.229 48.6138 29.6739 49.0872C30.1192 49.5611 30.7227 49.8277 31.3525 49.8292C31.4365 50.0714 31.5295 50.3101 31.6313 50.5453H31.6308C31.1855 51.0202 30.9353 51.6639 30.9353 52.335C30.9353 53.0061 31.1855 53.6498 31.6308 54.1247L32.7974 55.3661H32.7979C33.2437 55.8415 33.8486 56.1086 34.4798 56.1086C35.1109 56.1086 35.7158 55.8415 36.1616 55.3661C36.3822 55.4744 36.6065 55.5728 36.8346 55.6627H36.8341C36.8355 56.3328 37.0866 56.975 37.5315 57.4484C37.9768 57.9223 38.5803 58.189 39.2101 58.1905H40.8605C41.4898 58.189 42.0933 57.9223 42.5386 57.4484C42.984 56.975 43.2346 56.3329 43.236 55.6627C43.4636 55.5733 43.6879 55.4744 43.9089 55.3661C44.3543 55.8415 44.9596 56.1086 45.5908 56.1086C46.2215 56.1086 46.8269 55.8415 47.2727 55.3661L48.4656 54.1417C48.9109 53.6663 49.161 53.0226 49.161 52.352C49.161 51.6808 48.9109 51.0372 48.4656 50.5623C48.5674 50.3276 48.6598 50.0889 48.7443 49.8462C49.3736 49.8447 49.9771 49.578 50.4225 49.1042C50.8678 48.6303 51.1184 47.9881 51.1198 47.3184V45.5452C51.1184 44.8751 50.8678 44.2334 50.4225 43.7595C49.9771 43.2856 49.3736 43.019 48.7443 43.0175C48.6603 42.7753 48.5674 42.5366 48.4656 42.3014C48.9109 41.8265 49.161 41.1828 49.161 40.5117C49.161 39.8406 48.9109 39.1969 48.4656 38.722L47.299 37.4806C46.8532 37.0052 46.2478 36.7381 45.6171 36.7381C44.9859 36.7381 44.3805 37.0052 43.9352 37.4806C43.7147 37.3723 43.4903 37.2739 43.2623 37.184C43.2609 36.5139 43.0103 35.8722 42.5649 35.3983C42.1196 34.9244 41.5161 34.6577 40.8868 34.6562H39.2312C38.6014 34.6577 37.9979 34.9244 37.5526 35.3983C37.1072 35.8722 36.8566 36.5139 36.8552 37.184C36.6276 37.2734 36.4033 37.3723 36.1823 37.4806H36.1828C35.737 37.0052 35.1316 36.7381 34.5009 36.7381C33.8697 36.7381 33.2643 37.0052 32.819 37.4806L31.6468 38.6886C31.2014 39.1634 30.9513 39.8071 30.9513 40.4783C30.9513 41.1494 31.2014 41.793 31.6468 42.2679C31.5449 42.5026 31.4525 42.7413 31.368 42.984L31.3525 43.0175ZM32.7665 45.2546C32.8984 45.2541 33.0115 45.1527 33.0345 45.0139C33.2161 43.9838 33.5976 43.0045 34.1537 42.1392C34.2311 42.0233 34.2175 41.8645 34.1222 41.7647L33.1236 40.702C33.0715 40.6476 33.0424 40.5727 33.0424 40.4953C33.0424 40.4174 33.0715 40.343 33.1236 40.2881L34.2748 39.0467C34.3259 38.9912 34.3963 38.9603 34.469 38.9603C34.5422 38.9603 34.6122 38.9912 34.6638 39.0467L35.6624 40.1093C35.7126 40.1627 35.7807 40.1927 35.8515 40.1932C35.9078 40.1937 35.9627 40.1762 36.0092 40.1428C36.8224 39.5505 37.7422 39.145 38.7108 38.9513C38.8407 38.9273 38.936 38.807 38.9365 38.6662V37.1615C38.9365 37.0846 38.9656 37.0107 39.0167 36.9563C39.0679 36.9014 39.1373 36.8709 39.2101 36.8709H40.8605C40.9327 36.8709 41.0022 36.9014 41.0533 36.9563C41.105 37.0107 41.1336 37.0846 41.1336 37.1615V38.6885C41.1341 38.8294 41.2293 38.9492 41.3598 38.9737C42.3279 39.1674 43.2482 39.5729 44.0609 40.1651C44.1078 40.1981 44.1627 40.2161 44.2185 40.2156C44.2899 40.2151 44.3579 40.1851 44.4081 40.1317L45.4067 39.069C45.4579 39.0136 45.5278 38.9822 45.601 38.9822C45.6742 38.9822 45.7441 39.0136 45.7953 39.069L46.9619 40.3104H46.9624C47.0145 40.3649 47.0436 40.4398 47.0436 40.5172C47.0436 40.5951 47.0145 40.6695 46.9624 40.7244L45.9638 41.787C45.8685 41.8869 45.8549 42.0452 45.9323 42.1615C46.4884 43.0269 46.8699 44.0057 47.0515 45.0363C47.0745 45.1751 47.1876 45.276 47.3195 45.277H48.7335C48.8062 45.277 48.8757 45.3074 48.9268 45.3619C48.978 45.4163 49.0071 45.4907 49.0071 45.5676V47.3013C49.0071 47.4621 48.8846 47.5919 48.7335 47.5919H47.3195C47.1876 47.5929 47.0745 47.6938 47.0515 47.8326C46.8699 48.8633 46.4884 49.842 45.9323 50.7074C45.8549 50.8237 45.8685 50.982 45.9638 51.0819L46.9624 52.1445C47.0145 52.1994 47.0436 52.2738 47.0436 52.3517C47.0436 52.4291 47.0145 52.504 46.9624 52.5585L45.8375 53.7889C45.7864 53.8443 45.716 53.8753 45.6433 53.8753C45.5701 53.8753 45.5001 53.8443 45.4485 53.7889L44.4499 52.7263C44.3959 52.6828 44.3284 52.6628 44.2608 52.6703C44.2045 52.6698 44.1496 52.6873 44.1031 52.7208C43.2899 53.313 42.3701 53.7185 41.4015 53.9117C41.2715 53.9362 41.1763 54.0565 41.1758 54.1974V55.702V55.7015C41.1758 55.8623 41.0533 55.9926 40.9022 55.9926H39.2312C39.0801 55.9926 38.9576 55.8623 38.9576 55.7015V54.186C38.9571 54.0452 38.8619 53.9253 38.7319 53.9009C37.7633 53.7076 36.8435 53.3016 36.0303 52.7094C35.9763 52.6754 35.9134 52.662 35.8515 52.6704C35.7806 52.6704 35.7126 52.7009 35.6624 52.7543L34.6793 53.789C34.6276 53.8499 34.554 53.8844 34.477 53.8844C34.4 53.8844 34.3264 53.8499 34.2747 53.789L33.1236 52.5586C33.0715 52.5042 33.0424 52.4293 33.0424 52.3519C33.0424 52.274 33.0715 52.1996 33.1236 52.1446L34.1222 51.082C34.2175 50.9821 34.2311 50.8238 34.1537 50.7075C33.5976 49.8421 33.2161 48.8633 33.0345 47.8327C33.0115 47.6939 32.8984 47.593 32.7665 47.5921H31.3525C31.2014 47.5921 31.0789 47.4622 31.0789 47.3014V45.5452C31.0789 45.4683 31.108 45.3944 31.1592 45.3395C31.2103 45.2851 31.2798 45.2546 31.3525 45.2546L32.7665 45.2546Z" fill="#43B02A"/>
<path d="M40.0559 51.3185C41.2755 51.3185 42.4455 50.8027 43.3079 49.8849C44.1704 48.9671 44.6547 47.7227 44.6547 46.4249C44.6547 45.1266 44.1704 43.8821 43.3079 42.9644C42.4454 42.0466 41.2755 41.5312 40.0559 41.5312C38.8363 41.5312 37.6663 42.0466 36.8039 42.9644C35.9413 43.8822 35.457 45.1266 35.457 46.4249C35.4584 47.7222 35.9432 48.9661 36.8058 49.8835C37.6678 50.8008 38.8368 51.3171 40.056 51.3187L40.0559 51.3185ZM40.0559 43.7737C40.718 43.7737 41.353 44.0534 41.8212 44.5517C42.2896 45.0501 42.5524 45.7257 42.5524 46.4303C42.5524 47.1348 42.2896 47.8105 41.8212 48.3088C41.3529 48.8066 40.718 49.0868 40.0559 49.0868C39.3938 49.0868 38.7588 48.8066 38.2905 48.3088C37.8222 47.8104 37.5594 47.1348 37.5594 46.4303C37.5594 45.7257 37.8222 45.05 38.2905 44.5517C38.7588 44.0534 39.3938 43.7737 40.0559 43.7737Z" fill="#43B02A"/>
</svg>
