<svg width="240" height="175" viewBox="0 0 240 175" fill="none" xmlns="http://www.w3.org/2000/svg">
<path d="M1.5 31V31.5H2H6.80729H7.30729V31V11.3419L13.1167 24.828L13.2469 25.1301H13.5759H18.0371H18.3661L18.4963 24.828L24.3058 11.3419V31V31.5H24.8058H29.6131H30.1131V31V1V0.5H29.6131H23.5751H23.2457L23.1157 0.802699L15.8065 17.8225L8.49738 0.802699L8.36738 0.5H8.03795H2H1.5V1V31ZM36.8002 31V31.5H37.3002H42.2998H42.7998V31V1V0.5H42.2998H37.3002H36.8002V1V31ZM49.4767 31V31.5H49.9767H57.976C62.9974 31.5 66.8071 30.263 69.296 27.6901L69.2961 27.69C71.8062 25.0943 73.0133 21.1634 73.0133 16C73.0133 10.8386 71.8071 6.92036 69.2962 4.3512C66.8075 1.75083 62.9977 0.5 57.976 0.5H49.9767H49.4767V1V31ZM63.4006 24.9663L63.3973 24.9681C62.1344 25.6301 60.4408 25.9795 58.2837 25.9795H55.284V6.02055H58.2837C60.4408 6.02055 62.1344 6.3699 63.3972 7.03189L63.4006 7.03364C64.6729 7.68823 65.6074 8.71817 66.2063 10.1516C66.8123 11.6022 67.1291 13.5431 67.1291 16C67.1291 18.4273 66.8129 20.3696 66.2056 21.8498C65.6067 23.2825 64.6725 24.312 63.4006 24.9663ZM77.8592 31V31.5H78.3592H86.3585C91.3799 31.5 95.1896 30.263 97.6785 27.6901L97.6786 27.69C100.189 25.0943 101.396 21.1634 101.396 16C101.396 10.8386 100.19 6.92038 97.6788 4.35122C95.19 1.75084 91.3802 0.5 86.3585 0.5H78.3592H77.8592V1V31ZM91.7831 24.9663L91.7798 24.9681C90.5169 25.6301 88.8233 25.9795 86.6662 25.9795H83.6665V6.02055H86.6662C88.8233 6.02055 90.5169 6.3699 91.7798 7.03189L91.7832 7.03364C93.0554 7.68823 93.9899 8.71817 94.5888 10.1516C95.1948 11.6022 95.5116 13.5431 95.5116 16C95.5116 18.4273 95.1954 20.3696 94.5881 21.8498C93.9892 23.2825 93.055 24.312 91.7831 24.9663ZM106.242 31V31.5H106.742H126.586H127.086V31V26.4384V25.9384H126.586H112.164V1V0.5H111.664H106.742H106.242V1V31ZM131.732 31V31.5H132.232H151H151.5V31V26.5616V26.0616H151H137.54V18.0205H150.231H150.731V17.5205V13.1644V12.6644H150.231H137.54V5.93835H151H151.5V5.43835V1V0.5H151H132.232H131.732V1V31Z" fill="white" stroke="#0084C7"/>
<path d="M1.5 78.5733V79.0733H2H21.0502H21.5502V78.5733V73.9653V73.4653H21.0502H7.37966V65.0787H20.2694H20.7694V64.5787V60.056V59.556H20.2694H7.37966V52.5347H21.0502H21.5502V52.0347V47.4267V46.9267H21.0502H2H1.5V47.4267V78.5733ZM24.7433 78.419L24.5309 79.0733H25.2189H30.567H30.9388L31.0459 78.7173L33.1832 71.6067H44.0342L46.1715 78.7173L46.2786 79.0733H46.6504H51.9985H52.6857L52.4742 78.4195L42.4026 47.2728L42.2907 46.9267H41.9269H35.3296H34.9662L34.854 47.2723L24.7433 78.419ZM38.6087 53.5564L42.3101 65.8707H34.9073L38.6087 53.5564ZM59.9957 78.8447L59.9956 78.8448L60.0045 78.8468C61.8636 79.2823 63.7497 79.5 65.6618 79.5C69.2936 79.5 72.1789 78.7038 74.2504 77.0435C76.3365 75.3714 77.3655 73.0288 77.3655 70.0827C77.3655 68.6952 77.1365 67.4715 76.66 66.4263C76.2145 65.3643 75.5595 64.4511 74.6977 63.6916C73.8471 62.9418 72.8143 62.3052 71.6072 61.7768C70.4404 61.2265 69.1332 60.722 67.6871 60.2622L67.6871 60.2621L67.6784 60.2595C66.541 59.9204 65.5636 59.597 64.7446 59.2893C63.9357 58.9854 63.2671 58.6589 62.732 58.3133C62.2169 57.9806 61.8493 57.5966 61.6089 57.1667C61.3723 56.7435 61.2431 56.2197 61.2431 55.576C61.2431 54.4811 61.6624 53.69 62.5024 53.1343C63.3739 52.5578 64.704 52.236 66.5596 52.236C67.9744 52.236 69.4179 52.4154 70.8909 52.7763L70.8909 52.7764L70.8996 52.7784C72.3729 53.1115 73.6844 53.5814 74.8381 54.1844L75.3991 54.4777L75.5545 53.8641L76.7646 49.0854L76.8643 48.6916L76.4993 48.5134C75.2283 47.8927 73.7026 47.4121 71.9304 47.0649C70.1794 46.6883 68.4019 46.5 66.5987 46.5C63.0494 46.5 60.2318 47.2515 58.2126 48.8227C56.17 50.3834 55.1683 52.6465 55.1683 55.5333C55.1683 56.8675 55.3853 58.0727 55.8316 59.1396L55.8316 59.1396L55.8336 59.1444C56.2774 60.1752 56.9158 61.0844 57.7447 61.8697L57.7447 61.8697L57.7519 61.8763C58.57 62.6215 59.5323 63.2719 60.6343 63.83L60.6412 63.8335L60.6481 63.8368C61.7675 64.3611 63.0149 64.8248 64.3886 65.229L64.3898 65.2294C65.5518 65.568 66.5806 65.9055 67.4772 66.2415L67.4772 66.2417L67.4902 66.2462C68.3734 66.5496 69.0866 66.8882 69.6399 67.2563L69.6508 67.2636L69.6621 67.2703C70.231 67.607 70.6337 67.9941 70.8953 68.423C71.1498 68.8402 71.2907 69.371 71.2907 70.04C71.2907 71.2611 70.8474 72.1561 69.975 72.7923C69.1057 73.4168 67.795 73.764 65.9741 73.764C65.0186 73.764 64.0078 73.6678 62.9407 73.4734C61.874 73.2791 60.8329 73.0016 59.8174 72.6408C58.799 72.2791 57.8606 71.863 57.0011 71.3932L56.4305 71.0814L56.2757 71.713L55.1045 76.4917L55.0155 76.8549L55.3389 77.0429C56.6124 77.7833 58.168 78.3815 59.9957 78.8447ZM89.0172 78.5733V79.0733H89.5172H94.553H95.053V78.5733V52.6627H104H104.5V52.1627V47.4267V46.9267H104H80.1092H79.6092V47.4267V52.1627V52.6627H80.1092H89.0172V78.5733Z" fill="white" stroke="#0084C7"/>
<path d="M1.5 125.573V126.073H2H6.85763H7.35763V125.573V115.961H11.0546C15.08 115.961 18.1873 115.082 20.2843 113.234L20.2844 113.234L20.2874 113.231C22.3936 111.345 23.4072 108.558 23.4072 104.965C23.4072 101.287 22.3407 98.4767 20.1189 96.6456C17.9422 94.8019 14.6553 93.9267 10.3551 93.9267H2H1.5V94.4267V125.573ZM10.4717 110.268H7.35763V99.62H10.4717C13.0495 99.62 14.8154 100.086 15.8749 100.921L15.8749 100.921L15.8808 100.925C16.9071 101.709 17.4718 103.012 17.4718 104.965C17.4718 106.884 16.9101 108.193 15.8778 109.008C14.8171 109.816 13.0493 110.268 10.4717 110.268ZM33.3922 124.466L33.3944 124.467C35.6857 125.829 38.3676 126.5 41.422 126.5C44.5012 126.5 47.1846 125.829 49.4518 124.466C51.7139 123.106 53.4617 121.184 54.6935 118.714C55.9268 116.241 56.5337 113.331 56.5337 110C56.5337 106.669 55.9268 103.759 54.6935 101.286C53.4617 98.8163 51.7139 96.8942 49.4518 95.5342C47.1846 94.171 44.5012 93.5 41.422 93.5C38.3676 93.5 35.6857 94.1714 33.3944 95.5328L33.3922 95.5342C31.1302 96.8942 29.3823 98.8163 28.1504 101.286C26.9172 103.759 26.3103 106.669 26.3103 110C26.3103 113.331 26.9172 116.241 28.1504 118.714C29.3823 121.184 31.1302 123.106 33.3922 124.466ZM46.2859 119.475L46.2825 119.477C44.9515 120.328 43.3389 120.764 41.422 120.764C39.4789 120.764 37.8395 120.327 36.4821 119.476C35.1467 118.623 34.1071 117.407 33.3665 115.809C32.6514 114.21 32.2845 112.279 32.2845 110C32.2845 107.721 32.6514 105.79 33.3665 104.191C34.1071 102.593 35.1467 101.377 36.4821 100.524C37.8395 99.6726 39.4789 99.236 41.422 99.236C43.3389 99.236 44.9515 99.6725 46.2825 100.523L46.2859 100.525C47.6481 101.38 48.7001 102.596 49.44 104.194C50.1798 105.792 50.5595 107.722 50.5595 110C50.5595 112.278 50.1798 114.208 49.44 115.806C48.7001 117.404 47.6481 118.62 46.2859 119.475ZM64.8949 125.675L64.9778 126.073H65.3844H71.3301H71.7329L71.8186 125.68L76.0711 106.155L80.3236 125.68L80.4094 126.073H80.8122H86.719H87.1256L87.2085 125.675L93.6983 94.5287L93.8238 93.9267H93.2088H88.2346H87.8199L87.7432 94.3342L83.6218 116.225L79.5137 96.8828L79.4295 96.4867H79.0246H73.0788H72.6739L72.5897 96.8828L68.4816 116.224L64.3602 94.3342L64.2835 93.9267H63.8688H58.8946H58.2797L58.4051 94.5287L64.8949 125.675ZM98.1651 125.573V126.073H98.6651H117.629H118.129V125.573V120.965V120.465H117.629H104.023V112.079H116.852H117.352V111.579V107.056V106.556H116.852H104.023V99.5347H117.629H118.129V99.0347V94.4267V93.9267H117.629H98.6651H98.1651V94.4267V125.573ZM123.961 125.573V126.073H124.461H129.318H129.818V125.573V113.871H130.063L140.561 125.902L140.71 126.073H140.938H147H148.111L147.374 125.242L137.128 113.68C139.524 113.35 141.458 112.588 142.895 111.362C144.902 109.647 145.868 107.099 145.868 103.813C145.868 100.468 144.847 97.9219 142.72 96.292C140.646 94.6836 137.441 93.9267 133.204 93.9267H124.461H123.961V94.4267V125.573ZM133.437 108.433H129.818V99.62H133.437C135.871 99.62 137.515 100.004 138.473 100.681L138.478 100.684C139.419 101.332 139.932 102.404 139.932 104.027C139.932 105.649 139.419 106.721 138.478 107.37L138.473 107.373C137.515 108.049 135.871 108.433 133.437 108.433Z" fill="white" stroke="#0084C7"/>
<mask id="path-4-outside-1_360_5665" maskUnits="userSpaceOnUse" x="0" y="140" width="240" height="35" fill="black">
<rect fill="white" y="140" width="240" height="35"/>
<path d="M11.9817 174C10.1246 174 8.29336 173.78 6.48789 173.34C4.70821 172.871 3.21225 172.269 2 171.536L3.16066 166.608C4.03761 167.107 4.99187 167.547 6.02357 167.928C7.05527 168.309 8.1128 168.603 9.19608 168.808C10.2794 169.013 11.3111 169.116 12.2912 169.116C14.1483 169.116 15.5669 168.749 16.547 168.016C17.5529 167.253 18.0558 166.168 18.0558 164.76C18.0558 163.997 17.901 163.352 17.5915 162.824C17.282 162.296 16.8178 161.841 16.1988 161.46C15.6055 161.049 14.8575 160.683 13.9548 160.36C13.052 160.008 12.0203 159.656 10.8597 159.304C9.51846 158.893 8.30622 158.424 7.22293 157.896C6.16544 157.339 5.24985 156.693 4.47608 155.96C3.70231 155.197 3.10907 154.317 2.69639 153.32C2.28371 152.293 2.07736 151.12 2.07736 149.8C2.07736 146.955 3.0188 144.784 4.90165 143.288C6.7845 141.763 9.45399 141 12.9102 141C14.6641 141 16.3922 141.191 18.0945 141.572C19.8226 141.924 21.2927 142.408 22.505 143.024L21.3056 147.952C20.1192 147.307 18.778 146.808 17.282 146.456C15.786 146.075 14.3159 145.884 12.8715 145.884C10.9887 145.884 9.55721 146.221 8.5771 146.896C7.59698 147.571 7.10692 148.553 7.10692 149.844C7.10692 150.577 7.24873 151.208 7.53245 151.736C7.81616 152.264 8.24173 152.719 8.80917 153.1C9.3766 153.481 10.073 153.833 10.8984 154.156C11.7237 154.479 12.7039 154.816 13.8387 155.168C15.2573 155.637 16.5341 156.151 17.6689 156.708C18.8296 157.236 19.8097 157.867 20.6092 158.6C21.4088 159.333 22.015 160.213 22.4277 161.24C22.8661 162.237 23.0853 163.425 23.0853 164.804C23.0853 167.708 22.1181 169.967 20.1837 171.58C18.2493 173.193 15.5152 174 11.9817 174Z"/>
<path d="M42.0292 174C39.063 174 36.4838 173.325 34.2914 171.976C32.1248 170.627 30.4483 168.72 29.2619 166.256C28.0754 163.792 27.4822 160.873 27.4822 157.5C27.4822 154.127 28.0754 151.208 29.2619 148.744C30.4483 146.28 32.1248 144.373 34.2914 143.024C36.4838 141.675 39.063 141 42.0292 141C45.0211 141 47.6003 141.675 49.7669 143.024C51.9335 144.373 53.61 146.28 54.7964 148.744C55.9829 151.208 56.5761 154.127 56.5761 157.5C56.5761 160.873 55.9829 163.792 54.7964 166.256C53.61 168.72 51.9335 170.627 49.7669 171.976C47.6003 173.325 45.0211 174 42.0292 174ZM42.0292 169.116C44.0152 169.116 45.7175 168.647 47.1361 167.708C48.5805 166.769 49.6896 165.435 50.4633 163.704C51.2371 161.973 51.6239 159.905 51.6239 157.5C51.6239 155.095 51.2371 153.027 50.4633 151.296C49.6896 149.565 48.5805 148.231 47.1361 147.292C45.7175 146.353 44.0152 145.884 42.0292 145.884C40.0173 145.884 38.2893 146.353 36.8449 147.292C35.4263 148.231 34.3301 149.565 33.5564 151.296C32.8084 153.027 32.4344 155.095 32.4344 157.5C32.4344 159.905 32.8084 161.973 33.5564 163.704C34.3301 165.435 35.4263 166.769 36.8449 167.708C38.2893 168.647 40.0173 169.116 42.0292 169.116Z"/>
<path d="M62.4184 173.56V141.44H67.3706V168.676H82.3818V173.56H62.4184Z"/>
<path d="M96.9354 174C93.2213 174 90.397 173.017 88.4626 171.052C86.5282 169.087 85.561 166.227 85.561 162.472V141.44H90.397V161.46C90.397 164.159 90.9129 166.109 91.9446 167.312C92.9763 168.515 94.6399 169.116 96.9354 169.116C99.2051 169.116 100.856 168.515 101.888 167.312C102.919 166.109 103.435 164.159 103.435 161.46V141.44H108.271V162.472C108.271 166.227 107.304 169.087 105.37 171.052C103.461 173.017 100.65 174 96.9354 174Z"/>
<path d="M122.717 173.56V146.324H113.394V141.44H137.071V146.324H127.708V173.56H122.717Z"/>
<path d="M142.794 173.56V141.44H147.823V173.56H142.794Z"/>
<path d="M168.546 174C165.58 174 163 173.325 160.808 171.976C158.641 170.627 156.965 168.72 155.779 166.256C154.592 163.792 153.999 160.873 153.999 157.5C153.999 154.127 154.592 151.208 155.779 148.744C156.965 146.28 158.641 144.373 160.808 143.024C163 141.675 165.58 141 168.546 141C171.538 141 174.117 141.675 176.284 143.024C178.45 144.373 180.127 146.28 181.313 148.744C182.499 151.208 183.093 154.127 183.093 157.5C183.093 160.873 182.499 163.792 181.313 166.256C180.127 168.72 178.45 170.627 176.284 171.976C174.117 173.325 171.538 174 168.546 174ZM168.546 169.116C170.532 169.116 172.234 168.647 173.653 167.708C175.097 166.769 176.206 165.435 176.98 163.704C177.754 161.973 178.141 159.905 178.141 157.5C178.141 155.095 177.754 153.027 176.98 151.296C176.206 149.565 175.097 148.231 173.653 147.292C172.234 146.353 170.532 145.884 168.546 145.884C166.534 145.884 164.806 146.353 163.362 147.292C161.943 148.231 160.847 149.565 160.073 151.296C159.325 153.027 158.951 155.095 158.951 157.5C158.951 159.905 159.325 161.973 160.073 163.704C160.847 165.435 161.943 166.769 163.362 167.708C164.806 168.647 166.534 169.116 168.546 169.116Z"/>
<path d="M188.935 173.56V141.44H194.081L206.732 164.496H206.809V141.44H211.607V173.56H206.461L193.849 150.504H193.771V173.56H188.935Z"/>
<path d="M227.896 174C226.039 174 224.208 173.78 222.403 173.34C220.623 172.871 219.127 172.269 217.915 171.536L219.075 166.608C219.952 167.107 220.907 167.547 221.938 167.928C222.97 168.309 224.027 168.603 225.111 168.808C226.194 169.013 227.226 169.116 228.206 169.116C230.063 169.116 231.481 168.749 232.462 168.016C233.467 167.253 233.97 166.168 233.97 164.76C233.97 163.997 233.816 163.352 233.506 162.824C233.197 162.296 232.732 161.841 232.113 161.46C231.52 161.049 230.772 160.683 229.869 160.36C228.967 160.008 227.935 159.656 226.774 159.304C225.433 158.893 224.221 158.424 223.138 157.896C222.08 157.339 221.165 156.693 220.391 155.96C219.617 155.197 219.024 154.317 218.611 153.32C218.198 152.293 217.992 151.12 217.992 149.8C217.992 146.955 218.933 144.784 220.816 143.288C222.699 141.763 225.369 141 228.825 141C230.579 141 232.307 141.191 234.009 141.572C235.737 141.924 237.207 142.408 238.42 143.024L237.22 147.952C236.034 147.307 234.693 146.808 233.197 146.456C231.701 146.075 230.231 145.884 228.786 145.884C226.903 145.884 225.472 146.221 224.492 146.896C223.512 147.571 223.022 148.553 223.022 149.844C223.022 150.577 223.163 151.208 223.447 151.736C223.731 152.264 224.157 152.719 224.724 153.1C225.291 153.481 225.988 153.833 226.813 154.156C227.638 154.479 228.619 154.816 229.753 155.168C231.172 155.637 232.449 156.151 233.584 156.708C234.744 157.236 235.724 157.867 236.524 158.6C237.323 159.333 237.93 160.213 238.342 161.24C238.781 162.237 239 163.425 239 164.804C239 167.708 238.033 169.967 236.098 171.58C234.164 173.193 231.43 174 227.896 174Z"/>
</mask>
<path d="M11.9817 174C10.1246 174 8.29336 173.78 6.48789 173.34C4.70821 172.871 3.21225 172.269 2 171.536L3.16066 166.608C4.03761 167.107 4.99187 167.547 6.02357 167.928C7.05527 168.309 8.1128 168.603 9.19608 168.808C10.2794 169.013 11.3111 169.116 12.2912 169.116C14.1483 169.116 15.5669 168.749 16.547 168.016C17.5529 167.253 18.0558 166.168 18.0558 164.76C18.0558 163.997 17.901 163.352 17.5915 162.824C17.282 162.296 16.8178 161.841 16.1988 161.46C15.6055 161.049 14.8575 160.683 13.9548 160.36C13.052 160.008 12.0203 159.656 10.8597 159.304C9.51846 158.893 8.30622 158.424 7.22293 157.896C6.16544 157.339 5.24985 156.693 4.47608 155.96C3.70231 155.197 3.10907 154.317 2.69639 153.32C2.28371 152.293 2.07736 151.12 2.07736 149.8C2.07736 146.955 3.0188 144.784 4.90165 143.288C6.7845 141.763 9.45399 141 12.9102 141C14.6641 141 16.3922 141.191 18.0945 141.572C19.8226 141.924 21.2927 142.408 22.505 143.024L21.3056 147.952C20.1192 147.307 18.778 146.808 17.282 146.456C15.786 146.075 14.3159 145.884 12.8715 145.884C10.9887 145.884 9.55721 146.221 8.5771 146.896C7.59698 147.571 7.10692 148.553 7.10692 149.844C7.10692 150.577 7.24873 151.208 7.53245 151.736C7.81616 152.264 8.24173 152.719 8.80917 153.1C9.3766 153.481 10.073 153.833 10.8984 154.156C11.7237 154.479 12.7039 154.816 13.8387 155.168C15.2573 155.637 16.5341 156.151 17.6689 156.708C18.8296 157.236 19.8097 157.867 20.6092 158.6C21.4088 159.333 22.015 160.213 22.4277 161.24C22.8661 162.237 23.0853 163.425 23.0853 164.804C23.0853 167.708 22.1181 169.967 20.1837 171.58C18.2493 173.193 15.5152 174 11.9817 174Z" fill="white"/>
<path d="M42.0292 174C39.063 174 36.4838 173.325 34.2914 171.976C32.1248 170.627 30.4483 168.72 29.2619 166.256C28.0754 163.792 27.4822 160.873 27.4822 157.5C27.4822 154.127 28.0754 151.208 29.2619 148.744C30.4483 146.28 32.1248 144.373 34.2914 143.024C36.4838 141.675 39.063 141 42.0292 141C45.0211 141 47.6003 141.675 49.7669 143.024C51.9335 144.373 53.61 146.28 54.7964 148.744C55.9829 151.208 56.5761 154.127 56.5761 157.5C56.5761 160.873 55.9829 163.792 54.7964 166.256C53.61 168.72 51.9335 170.627 49.7669 171.976C47.6003 173.325 45.0211 174 42.0292 174ZM42.0292 169.116C44.0152 169.116 45.7175 168.647 47.1361 167.708C48.5805 166.769 49.6896 165.435 50.4633 163.704C51.2371 161.973 51.6239 159.905 51.6239 157.5C51.6239 155.095 51.2371 153.027 50.4633 151.296C49.6896 149.565 48.5805 148.231 47.1361 147.292C45.7175 146.353 44.0152 145.884 42.0292 145.884C40.0173 145.884 38.2893 146.353 36.8449 147.292C35.4263 148.231 34.3301 149.565 33.5564 151.296C32.8084 153.027 32.4344 155.095 32.4344 157.5C32.4344 159.905 32.8084 161.973 33.5564 163.704C34.3301 165.435 35.4263 166.769 36.8449 167.708C38.2893 168.647 40.0173 169.116 42.0292 169.116Z" fill="white"/>
<path d="M62.4184 173.56V141.44H67.3706V168.676H82.3818V173.56H62.4184Z" fill="white"/>
<path d="M96.9354 174C93.2213 174 90.397 173.017 88.4626 171.052C86.5282 169.087 85.561 166.227 85.561 162.472V141.44H90.397V161.46C90.397 164.159 90.9129 166.109 91.9446 167.312C92.9763 168.515 94.6399 169.116 96.9354 169.116C99.2051 169.116 100.856 168.515 101.888 167.312C102.919 166.109 103.435 164.159 103.435 161.46V141.44H108.271V162.472C108.271 166.227 107.304 169.087 105.37 171.052C103.461 173.017 100.65 174 96.9354 174Z" fill="white"/>
<path d="M122.717 173.56V146.324H113.394V141.44H137.071V146.324H127.708V173.56H122.717Z" fill="white"/>
<path d="M142.794 173.56V141.44H147.823V173.56H142.794Z" fill="white"/>
<path d="M168.546 174C165.58 174 163 173.325 160.808 171.976C158.641 170.627 156.965 168.72 155.779 166.256C154.592 163.792 153.999 160.873 153.999 157.5C153.999 154.127 154.592 151.208 155.779 148.744C156.965 146.28 158.641 144.373 160.808 143.024C163 141.675 165.58 141 168.546 141C171.538 141 174.117 141.675 176.284 143.024C178.45 144.373 180.127 146.28 181.313 148.744C182.499 151.208 183.093 154.127 183.093 157.5C183.093 160.873 182.499 163.792 181.313 166.256C180.127 168.72 178.45 170.627 176.284 171.976C174.117 173.325 171.538 174 168.546 174ZM168.546 169.116C170.532 169.116 172.234 168.647 173.653 167.708C175.097 166.769 176.206 165.435 176.98 163.704C177.754 161.973 178.141 159.905 178.141 157.5C178.141 155.095 177.754 153.027 176.98 151.296C176.206 149.565 175.097 148.231 173.653 147.292C172.234 146.353 170.532 145.884 168.546 145.884C166.534 145.884 164.806 146.353 163.362 147.292C161.943 148.231 160.847 149.565 160.073 151.296C159.325 153.027 158.951 155.095 158.951 157.5C158.951 159.905 159.325 161.973 160.073 163.704C160.847 165.435 161.943 166.769 163.362 167.708C164.806 168.647 166.534 169.116 168.546 169.116Z" fill="white"/>
<path d="M188.935 173.56V141.44H194.081L206.732 164.496H206.809V141.44H211.607V173.56H206.461L193.849 150.504H193.771V173.56H188.935Z" fill="white"/>
<path d="M227.896 174C226.039 174 224.208 173.78 222.403 173.34C220.623 172.871 219.127 172.269 217.915 171.536L219.075 166.608C219.952 167.107 220.907 167.547 221.938 167.928C222.97 168.309 224.027 168.603 225.111 168.808C226.194 169.013 227.226 169.116 228.206 169.116C230.063 169.116 231.481 168.749 232.462 168.016C233.467 167.253 233.97 166.168 233.97 164.76C233.97 163.997 233.816 163.352 233.506 162.824C233.197 162.296 232.732 161.841 232.113 161.46C231.52 161.049 230.772 160.683 229.869 160.36C228.967 160.008 227.935 159.656 226.774 159.304C225.433 158.893 224.221 158.424 223.138 157.896C222.08 157.339 221.165 156.693 220.391 155.96C219.617 155.197 219.024 154.317 218.611 153.32C218.198 152.293 217.992 151.12 217.992 149.8C217.992 146.955 218.933 144.784 220.816 143.288C222.699 141.763 225.369 141 228.825 141C230.579 141 232.307 141.191 234.009 141.572C235.737 141.924 237.207 142.408 238.42 143.024L237.22 147.952C236.034 147.307 234.693 146.808 233.197 146.456C231.701 146.075 230.231 145.884 228.786 145.884C226.903 145.884 225.472 146.221 224.492 146.896C223.512 147.571 223.022 148.553 223.022 149.844C223.022 150.577 223.163 151.208 223.447 151.736C223.731 152.264 224.157 152.719 224.724 153.1C225.291 153.481 225.988 153.833 226.813 154.156C227.638 154.479 228.619 154.816 229.753 155.168C231.172 155.637 232.449 156.151 233.584 156.708C234.744 157.236 235.724 157.867 236.524 158.6C237.323 159.333 237.93 160.213 238.342 161.24C238.781 162.237 239 163.425 239 164.804C239 167.708 238.033 169.967 236.098 171.58C234.164 173.193 231.43 174 227.896 174Z" fill="white"/>
<path d="M11.9817 174C10.1246 174 8.29336 173.78 6.48789 173.34C4.70821 172.871 3.21225 172.269 2 171.536L3.16066 166.608C4.03761 167.107 4.99187 167.547 6.02357 167.928C7.05527 168.309 8.1128 168.603 9.19608 168.808C10.2794 169.013 11.3111 169.116 12.2912 169.116C14.1483 169.116 15.5669 168.749 16.547 168.016C17.5529 167.253 18.0558 166.168 18.0558 164.76C18.0558 163.997 17.901 163.352 17.5915 162.824C17.282 162.296 16.8178 161.841 16.1988 161.46C15.6055 161.049 14.8575 160.683 13.9548 160.36C13.052 160.008 12.0203 159.656 10.8597 159.304C9.51846 158.893 8.30622 158.424 7.22293 157.896C6.16544 157.339 5.24985 156.693 4.47608 155.96C3.70231 155.197 3.10907 154.317 2.69639 153.32C2.28371 152.293 2.07736 151.12 2.07736 149.8C2.07736 146.955 3.0188 144.784 4.90165 143.288C6.7845 141.763 9.45399 141 12.9102 141C14.6641 141 16.3922 141.191 18.0945 141.572C19.8226 141.924 21.2927 142.408 22.505 143.024L21.3056 147.952C20.1192 147.307 18.778 146.808 17.282 146.456C15.786 146.075 14.3159 145.884 12.8715 145.884C10.9887 145.884 9.55721 146.221 8.5771 146.896C7.59698 147.571 7.10692 148.553 7.10692 149.844C7.10692 150.577 7.24873 151.208 7.53245 151.736C7.81616 152.264 8.24173 152.719 8.80917 153.1C9.3766 153.481 10.073 153.833 10.8984 154.156C11.7237 154.479 12.7039 154.816 13.8387 155.168C15.2573 155.637 16.5341 156.151 17.6689 156.708C18.8296 157.236 19.8097 157.867 20.6092 158.6C21.4088 159.333 22.015 160.213 22.4277 161.24C22.8661 162.237 23.0853 163.425 23.0853 164.804C23.0853 167.708 22.1181 169.967 20.1837 171.58C18.2493 173.193 15.5152 174 11.9817 174Z" stroke="#0084C7" stroke-width="2" mask="url(#path-4-outside-1_360_5665)"/>
<path d="M42.0292 174C39.063 174 36.4838 173.325 34.2914 171.976C32.1248 170.627 30.4483 168.72 29.2619 166.256C28.0754 163.792 27.4822 160.873 27.4822 157.5C27.4822 154.127 28.0754 151.208 29.2619 148.744C30.4483 146.28 32.1248 144.373 34.2914 143.024C36.4838 141.675 39.063 141 42.0292 141C45.0211 141 47.6003 141.675 49.7669 143.024C51.9335 144.373 53.61 146.28 54.7964 148.744C55.9829 151.208 56.5761 154.127 56.5761 157.5C56.5761 160.873 55.9829 163.792 54.7964 166.256C53.61 168.72 51.9335 170.627 49.7669 171.976C47.6003 173.325 45.0211 174 42.0292 174ZM42.0292 169.116C44.0152 169.116 45.7175 168.647 47.1361 167.708C48.5805 166.769 49.6896 165.435 50.4633 163.704C51.2371 161.973 51.6239 159.905 51.6239 157.5C51.6239 155.095 51.2371 153.027 50.4633 151.296C49.6896 149.565 48.5805 148.231 47.1361 147.292C45.7175 146.353 44.0152 145.884 42.0292 145.884C40.0173 145.884 38.2893 146.353 36.8449 147.292C35.4263 148.231 34.3301 149.565 33.5564 151.296C32.8084 153.027 32.4344 155.095 32.4344 157.5C32.4344 159.905 32.8084 161.973 33.5564 163.704C34.3301 165.435 35.4263 166.769 36.8449 167.708C38.2893 168.647 40.0173 169.116 42.0292 169.116Z" stroke="#0084C7" stroke-width="2" mask="url(#path-4-outside-1_360_5665)"/>
<path d="M62.4184 173.56V141.44H67.3706V168.676H82.3818V173.56H62.4184Z" stroke="#0084C7" stroke-width="2" mask="url(#path-4-outside-1_360_5665)"/>
<path d="M96.9354 174C93.2213 174 90.397 173.017 88.4626 171.052C86.5282 169.087 85.561 166.227 85.561 162.472V141.44H90.397V161.46C90.397 164.159 90.9129 166.109 91.9446 167.312C92.9763 168.515 94.6399 169.116 96.9354 169.116C99.2051 169.116 100.856 168.515 101.888 167.312C102.919 166.109 103.435 164.159 103.435 161.46V141.44H108.271V162.472C108.271 166.227 107.304 169.087 105.37 171.052C103.461 173.017 100.65 174 96.9354 174Z" stroke="#0084C7" stroke-width="2" mask="url(#path-4-outside-1_360_5665)"/>
<path d="M122.717 173.56V146.324H113.394V141.44H137.071V146.324H127.708V173.56H122.717Z" stroke="#0084C7" stroke-width="2" mask="url(#path-4-outside-1_360_5665)"/>
<path d="M142.794 173.56V141.44H147.823V173.56H142.794Z" stroke="#0084C7" stroke-width="2" mask="url(#path-4-outside-1_360_5665)"/>
<path d="M168.546 174C165.58 174 163 173.325 160.808 171.976C158.641 170.627 156.965 168.72 155.779 166.256C154.592 163.792 153.999 160.873 153.999 157.5C153.999 154.127 154.592 151.208 155.779 148.744C156.965 146.28 158.641 144.373 160.808 143.024C163 141.675 165.58 141 168.546 141C171.538 141 174.117 141.675 176.284 143.024C178.45 144.373 180.127 146.28 181.313 148.744C182.499 151.208 183.093 154.127 183.093 157.5C183.093 160.873 182.499 163.792 181.313 166.256C180.127 168.72 178.45 170.627 176.284 171.976C174.117 173.325 171.538 174 168.546 174ZM168.546 169.116C170.532 169.116 172.234 168.647 173.653 167.708C175.097 166.769 176.206 165.435 176.98 163.704C177.754 161.973 178.141 159.905 178.141 157.5C178.141 155.095 177.754 153.027 176.98 151.296C176.206 149.565 175.097 148.231 173.653 147.292C172.234 146.353 170.532 145.884 168.546 145.884C166.534 145.884 164.806 146.353 163.362 147.292C161.943 148.231 160.847 149.565 160.073 151.296C159.325 153.027 158.951 155.095 158.951 157.5C158.951 159.905 159.325 161.973 160.073 163.704C160.847 165.435 161.943 166.769 163.362 167.708C164.806 168.647 166.534 169.116 168.546 169.116Z" stroke="#0084C7" stroke-width="2" mask="url(#path-4-outside-1_360_5665)"/>
<path d="M188.935 173.56V141.44H194.081L206.732 164.496H206.809V141.44H211.607V173.56H206.461L193.849 150.504H193.771V173.56H188.935Z" stroke="#0084C7" stroke-width="2" mask="url(#path-4-outside-1_360_5665)"/>
<path d="M227.896 174C226.039 174 224.208 173.78 222.403 173.34C220.623 172.871 219.127 172.269 217.915 171.536L219.075 166.608C219.952 167.107 220.907 167.547 221.938 167.928C222.97 168.309 224.027 168.603 225.111 168.808C226.194 169.013 227.226 169.116 228.206 169.116C230.063 169.116 231.481 168.749 232.462 168.016C233.467 167.253 233.97 166.168 233.97 164.76C233.97 163.997 233.816 163.352 233.506 162.824C233.197 162.296 232.732 161.841 232.113 161.46C231.52 161.049 230.772 160.683 229.869 160.36C228.967 160.008 227.935 159.656 226.774 159.304C225.433 158.893 224.221 158.424 223.138 157.896C222.08 157.339 221.165 156.693 220.391 155.96C219.617 155.197 219.024 154.317 218.611 153.32C218.198 152.293 217.992 151.12 217.992 149.8C217.992 146.955 218.933 144.784 220.816 143.288C222.699 141.763 225.369 141 228.825 141C230.579 141 232.307 141.191 234.009 141.572C235.737 141.924 237.207 142.408 238.42 143.024L237.22 147.952C236.034 147.307 234.693 146.808 233.197 146.456C231.701 146.075 230.231 145.884 228.786 145.884C226.903 145.884 225.472 146.221 224.492 146.896C223.512 147.571 223.022 148.553 223.022 149.844C223.022 150.577 223.163 151.208 223.447 151.736C223.731 152.264 224.157 152.719 224.724 153.1C225.291 153.481 225.988 153.833 226.813 154.156C227.638 154.479 228.619 154.816 229.753 155.168C231.172 155.637 232.449 156.151 233.584 156.708C234.744 157.236 235.724 157.867 236.524 158.6C237.323 159.333 237.93 160.213 238.342 161.24C238.781 162.237 239 163.425 239 164.804C239 167.708 238.033 169.967 236.098 171.58C234.164 173.193 231.43 174 227.896 174Z" stroke="#0084C7" stroke-width="2" mask="url(#path-4-outside-1_360_5665)"/>
</svg>
