<svg width="62" height="56" viewBox="0 0 62 56" fill="none" xmlns="http://www.w3.org/2000/svg">
<path fill-rule="evenodd" clip-rule="evenodd" d="M5.75195 7.557C5.75195 6.23294 6.91409 5.16016 8.34854 5.16016H25.6581C27.0919 5.16016 28.2547 6.2329 28.2547 7.557V23.535C28.2547 24.8585 27.0919 25.9319 25.6581 25.9319H8.34854C6.91413 25.9319 5.75195 24.8586 5.75195 23.535V7.557ZM8.34854 6.75787C7.87039 6.75787 7.48281 7.11564 7.48281 7.557V23.535C7.48281 23.9764 7.87039 24.3336 8.34854 24.3336H25.6581C26.1362 24.3336 26.5232 23.9764 26.5232 23.535V7.557C26.5232 7.11564 26.1362 6.75787 25.6581 6.75787H8.34854Z" fill="#43B02A" stroke="#43B02A"/>
<path fill-rule="evenodd" clip-rule="evenodd" d="M0.5 32.567C0.5 31.1905 1.70865 30.0742 3.19987 30.0742H24.8027C26.2939 30.0742 27.5032 31.1905 27.5032 32.567V52.5081C27.5032 53.8846 26.294 55.0003 24.8027 55.0003H3.19987C1.70868 55.0003 0.5 53.8846 0.5 52.5081V32.567ZM3.19987 31.7365C2.70323 31.7365 2.30012 32.108 2.30012 32.567V52.5081C2.30012 52.9665 2.70322 53.3386 3.19987 53.3386H24.8027C25.3 53.3386 25.7025 52.9665 25.7025 52.5081V32.567C25.7025 32.108 25.3 31.7365 24.8027 31.7365H3.19987Z" fill="#43B02A" stroke="#43B02A"/>
<path fill-rule="evenodd" clip-rule="evenodd" d="M33.5039 3.49219C33.5039 2.11571 34.7132 1 36.2044 1H57.8073C59.2985 1 60.5071 2.11568 60.5071 3.49219V23.4333C60.5071 24.8098 59.2985 25.9261 57.8073 25.9261H36.2044C34.7132 25.9261 33.5039 24.8098 33.5039 23.4333V3.49219ZM36.2044 2.66165C35.7071 2.66165 35.3047 3.03374 35.3047 3.49219V23.4333C35.3047 23.8923 35.7071 24.2638 36.2044 24.2638H57.8073C58.3039 24.2638 58.707 23.8923 58.707 23.4333V3.49219C58.707 3.03375 58.3039 2.66165 57.8073 2.66165H36.2044Z" fill="#43B02A" stroke="#43B02A"/>
<path fill-rule="evenodd" clip-rule="evenodd" d="M32.752 32.4711C32.752 31.1476 33.9147 30.0742 35.3485 30.0742H52.6581C54.0925 30.0742 55.2547 31.1475 55.2547 32.4711V48.4491C55.2547 49.7732 54.0925 50.8459 52.6581 50.8459H35.3485C33.9147 50.8459 32.752 49.7732 32.752 48.4491V32.4711ZM35.3485 31.6725C34.8704 31.6725 34.4834 32.0297 34.4834 32.4711V48.4491C34.4834 48.8905 34.8704 49.2482 35.3485 49.2482H52.6581C53.1362 49.2482 53.5238 48.8905 53.5238 48.4491V32.4711C53.5238 32.0297 53.1362 31.6725 52.6581 31.6725H35.3485Z" fill="#43B02A" stroke="#43B02A"/>
</svg>
