<svg width="78" height="83" viewBox="0 0 78 83" fill="none" xmlns="http://www.w3.org/2000/svg">
<path d="M34.2397 15.0029C33.9619 15.0588 33.7623 15.3189 33.7676 15.6189V21.3385C32.1373 21.8355 30.6218 22.6084 29.2255 23.4764L25.4644 19.49V19.4896C25.3549 19.3697 25.2041 19.3022 25.0467 19.3022C24.889 19.3022 24.7381 19.3697 24.6286 19.4896L18.2331 26.2684H18.2335C18.0092 26.5088 18.0092 26.8952 18.2335 27.1351L22.0123 31.1407C21.1972 32.6199 20.4603 34.2341 19.9955 35.9549H14.5816C14.2604 35.9549 14 36.2309 14 36.5714V46.4312C14 46.7717 14.2604 47.0476 14.5816 47.0476H19.9955C20.4603 48.762 21.2001 50.3689 22.0123 51.8429L18.2335 55.8485V55.8481C18.0092 56.0884 18.0092 56.4749 18.2335 56.7148L24.629 63.4936H24.6286C24.7381 63.6135 24.889 63.6815 25.0467 63.6815C25.2041 63.6815 25.3549 63.6135 25.4644 63.4936L29.2255 59.5073C30.6239 60.3739 32.1393 61.1512 33.7676 61.6451V67.384V67.3835C33.7676 67.724 34.0276 68 34.3488 68H43.6512C43.9724 68 44.2324 67.724 44.2324 67.3835V61.6447C45.8603 61.1512 47.3761 60.3735 48.7745 59.5068L52.5356 63.4932V63.4936C52.6451 63.6135 52.7959 63.6815 52.9533 63.6815C53.111 63.6815 53.2619 63.6135 53.3714 63.4936L59.7669 56.7148H59.7665C59.9908 56.4749 59.9908 56.0884 59.7665 55.8481L55.9877 51.8425C56.8 50.3684 57.5392 48.7616 58.0045 47.0472H63.4184V47.0476C63.7396 47.0476 64 46.7717 64 46.4312V36.5714C64 36.2309 63.7396 35.9549 63.4184 35.9549H58.0045C57.5401 34.2341 56.8028 32.6194 55.9877 31.1407L59.7665 27.1351C59.9908 26.8952 59.9908 26.5088 59.7665 26.2684L53.371 19.4896H53.3714C53.2619 19.3697 53.111 19.3022 52.9533 19.3022C52.7959 19.3022 52.6451 19.3697 52.5356 19.4896L48.7745 23.4759C47.3782 22.6084 45.8631 21.8355 44.2324 21.3385V15.6189C44.2324 15.2785 43.9724 15.0029 43.6512 15.0029H34.3488C34.3127 14.999 34.2762 14.999 34.2397 15.0029ZM34.9299 16.2353H43.0692V21.7624H43.0696C43.0696 22.0431 43.2488 22.289 43.5055 22.3591C45.2786 22.8268 47.0115 23.7583 48.5927 24.7664C48.8218 24.91 49.1138 24.8704 49.3016 24.6701L52.9531 20.7994L58.5128 26.7116L54.8608 30.5823C54.6779 30.7856 54.6479 31.0947 54.7882 31.3333C55.7372 33.0064 56.599 34.8231 57.041 36.7064C57.1002 36.9858 57.3338 37.1857 57.6043 37.1874H62.8366V45.8148H57.6043V45.8152C57.3391 45.8152 57.1075 46.0052 57.041 46.2773C56.5986 48.1606 55.7371 49.9769 54.7882 51.6504C54.6479 51.889 54.6779 52.1976 54.8608 52.4014L58.5128 56.2914L52.9531 62.1843L49.3012 58.3136H49.3016C49.1138 58.1133 48.8218 58.0733 48.5927 58.2173C47.0143 59.2232 45.2822 60.1556 43.5055 60.6247V60.6242C43.2488 60.6947 43.0696 60.9402 43.0696 61.2213V66.7676H34.9303V61.2213C34.9303 60.9402 34.7511 60.6947 34.4944 60.6242C32.7177 60.1556 30.9856 59.2233 29.4072 58.2169V58.2173C29.1781 58.0733 28.8861 58.1133 28.6983 58.3136L25.0463 62.1843L19.4867 56.2914L23.1386 52.4014H23.1391C23.322 52.1976 23.352 51.889 23.2116 51.6504C22.2627 49.9773 21.4009 48.1606 20.9589 46.2773C20.8924 46.0052 20.6608 45.8152 20.3956 45.8152H15.1633V37.1878H20.3956V37.1874C20.6661 37.1857 20.8997 36.9858 20.9589 36.7064C21.4013 34.8231 22.2627 33.0064 23.2116 31.3333C23.352 31.0947 23.322 30.7856 23.1391 30.5823L19.4871 26.7116L25.0467 20.7994L28.6987 24.6701H28.6983C28.8861 24.8704 29.1781 24.91 29.4072 24.7664C30.9884 23.7588 32.7213 22.8272 34.4944 22.3591C34.7511 22.289 34.9303 22.0431 34.9303 21.7624V16.2353L34.9299 16.2353ZM38.9995 26.7115C31.3003 26.7115 25.0462 33.3403 25.0462 41.5011C25.0462 49.662 31.3001 56.2907 38.9995 56.2907C46.699 56.2907 52.9529 49.6615 52.9529 41.5011C52.9529 33.3407 46.699 26.7115 38.9995 26.7115ZM38.9995 27.944C46.0706 27.944 51.7901 34.0066 51.7901 41.5021C51.7901 47.7122 47.8556 52.9308 42.4877 54.5397V47.9922C45.2227 46.6006 47.1389 43.6938 47.1389 40.2698C47.1389 36.6855 45.0682 33.5971 42.1243 32.2972L42.1251 32.2968C41.9447 32.2194 41.7399 32.2426 41.5793 32.3587C41.4187 32.4748 41.3234 32.6682 41.3254 32.8746V39.9805L39 41.9446L36.6747 39.9805V32.8746C36.6787 32.6845 36.6005 32.5036 36.4622 32.3832C36.3235 32.2628 36.1406 32.2168 35.9658 32.2581C35.9346 32.2684 35.9041 32.2813 35.8749 32.2968C32.9311 33.5967 30.8608 36.6855 30.8608 40.2694C30.8608 43.6933 32.777 46.6002 35.512 47.9918V54.5393C30.1446 52.9307 26.2095 47.7119 26.2095 41.5017C26.2095 34.0067 31.9294 27.9436 39.0001 27.9436L38.9995 27.944ZM35.511 33.9331V40.2687H35.5114C35.5114 40.4561 35.5917 40.6332 35.7296 40.7501L38.6365 43.215C38.849 43.3952 39.1508 43.3952 39.3633 43.215L42.2702 40.7501C42.4081 40.6332 42.4884 40.4561 42.4884 40.2687V33.9331C44.5539 35.215 45.977 37.5415 45.977 40.2687C45.977 43.3514 44.2104 45.9723 41.6891 47.0857H41.6887C41.4673 47.1811 41.3229 47.4103 41.3253 47.6635V54.8275C40.5698 54.9745 39.7957 55.0588 39 55.0588C38.2039 55.0588 37.4297 54.9745 36.6746 54.8275V47.6635C36.6771 47.4103 36.5327 47.1811 36.3113 47.0857C33.79 45.9723 32.0234 43.3517 32.0234 40.2687C32.0234 37.5415 33.446 35.215 35.5119 33.9331H35.511Z" fill="#43B02A" stroke="#43B02A"/>
</svg>
