<svg width="78" height="83" viewBox="0 0 78 83" fill="none" xmlns="http://www.w3.org/2000/svg">
<path d="M63.3766 47.3661C63.3766 47.3503 63.3729 47.3358 63.3729 47.32C63.2982 36.956 52.6134 28.543 39.4888 28.543C26.3167 28.543 15.6016 37.0153 15.6016 47.4301C15.6016 47.4372 15.6044 47.442 15.6053 47.449C15.6053 47.4648 15.6016 47.4784 15.6016 47.4942C15.6016 47.9011 15.9121 48.2315 16.2945 48.2315C16.6768 48.2315 16.9874 47.9011 16.9874 47.4942C16.9874 45.352 20.2107 43.5419 24.0255 43.5419C27.8382 43.5419 31.059 45.3489 31.0636 47.4894V47.4964C31.0636 47.9033 31.3742 48.2337 31.7565 48.2337C32.044 48.2337 32.2894 48.0481 32.395 47.7826C32.4301 47.6939 32.4503 47.5978 32.4503 47.4946V47.4907C32.4556 45.481 35.2949 43.7658 38.7955 43.563V64.8546C38.7955 64.8871 38.8095 64.9165 38.8132 64.9481C38.8095 64.9797 38.7955 65.0069 38.7955 65.0394C38.7955 67.3774 37.163 69.2795 35.1572 69.2795C33.1515 69.2795 31.519 67.3773 31.519 65.0394C31.519 64.6326 31.2084 64.3021 30.8261 64.3021C30.4437 64.3021 30.1331 64.6326 30.1331 65.0394C30.1331 68.1902 32.3864 70.7542 35.1572 70.7542C37.9281 70.7542 40.1813 68.1911 40.1813 65.0394C40.1813 65.0069 40.1673 64.9784 40.1636 64.9468C40.1673 64.9152 40.1813 64.8867 40.1813 64.8542L40.1817 43.5626C43.6872 43.7663 46.5281 45.4845 46.5281 47.496C46.5281 47.9028 46.8387 48.2333 47.221 48.2333C47.6034 48.2333 47.914 47.9028 47.914 47.496C47.914 47.4626 47.9074 47.431 47.9065 47.3968C47.9065 47.3858 47.9119 47.377 47.9119 47.3674C47.9119 45.2243 51.1352 43.4142 54.9513 43.4142C58.7459 43.4142 61.9527 45.2053 61.9869 47.3331C61.9877 47.3656 61.9906 47.3981 61.9906 47.4314C61.9906 47.8383 62.3012 48.1688 62.6836 48.1688C63.0659 48.1688 63.3765 47.8383 63.3765 47.4314C63.3765 47.4126 63.3748 47.395 63.3748 47.3775C63.3752 47.3731 63.3761 47.3704 63.3761 47.3674L63.3766 47.3661ZM54.9518 41.9383C51.4031 41.9383 48.433 43.2843 47.1733 45.2427C45.8679 43.355 42.9576 42.0673 39.4885 42.0673C35.9805 42.0673 33.0406 43.3835 31.7574 45.3067C30.4751 43.384 27.5343 42.0673 24.0252 42.0673C21.3071 42.0673 18.9327 42.8595 17.4028 44.109C19.4131 36.0904 28.5498 30.0172 39.4898 30.0172C50.3569 30.0172 59.4491 36.0103 61.5398 43.9483C60.0079 42.7172 57.6483 41.9386 54.9524 41.9386L54.9518 41.9383Z" fill="#43B02A" stroke="#43B02A" stroke-width="1.3"/>
<path d="M39.4882 24.5158C41.7175 24.5158 43.5302 22.586 43.5302 20.2147C43.5302 18.108 40.4389 12.398 40.0858 11.7541C39.8383 11.3007 39.1372 11.3007 38.8884 11.7541C38.5354 12.398 35.4453 18.108 35.4453 20.2147C35.4461 22.586 37.2589 24.5158 39.4882 24.5158ZM39.4882 13.6229C40.6959 15.9578 42.1444 19.1174 42.1444 20.2147C42.1444 21.7727 40.9524 23.0411 39.4882 23.0411C38.024 23.0411 36.832 21.7727 36.832 20.2147C36.832 19.1166 38.2806 15.9569 39.4882 13.6229Z" fill="#43B02A" stroke="#43B02A" stroke-width="0.59"/>
<path d="M23.9855 27.5744C26.2148 27.5744 28.0276 25.6446 28.0276 23.2733C28.0276 21.1666 24.9363 15.4566 24.5832 14.8127C24.3345 14.3593 23.6345 14.3593 23.3858 14.8127C23.0327 15.4566 19.9414 21.1666 19.9414 23.2733C19.9422 25.6455 21.7558 27.5744 23.9855 27.5744ZM23.9855 16.6815C25.1933 19.0164 26.6417 22.176 26.6417 23.2733C26.6417 24.8313 25.4497 26.0997 23.9855 26.0997C22.5214 26.0997 21.3294 24.8313 21.3294 23.2733C21.3281 22.176 22.7779 19.0155 23.9855 16.6815Z" fill="#43B02A" stroke="#43B02A" stroke-width="0.59"/>
<path d="M54.9972 27.5739C57.2257 27.5739 59.0393 25.6441 59.0393 23.2728C59.0393 21.1661 55.948 15.4561 55.5961 14.8122C55.4716 14.5862 55.2431 14.4453 54.9972 14.4453C54.7514 14.4453 54.5225 14.5849 54.3984 14.8122C54.0465 15.4561 50.9531 21.1661 50.9531 23.2728C50.9535 25.645 52.768 27.5739 54.9972 27.5739ZM54.9972 16.6811C56.205 19.015 57.6534 22.1747 57.6534 23.2728C57.6534 24.8308 56.4614 26.0992 54.9972 26.0992C53.5318 26.0992 52.3394 24.8308 52.3394 23.2728C52.3394 22.1756 53.7899 19.015 54.9972 16.6811Z" fill="#43B02A" stroke="#43B02A" stroke-width="0.59"/>
</svg>
