<svg width="26" height="26" viewBox="0 0 26 26" fill="none" xmlns="http://www.w3.org/2000/svg">
<path d="M15.0048 24.3119L15.0048 5.69522L23.1381 13.8286C23.7881 14.4786 24.8548 14.4786 25.5048 13.8286C25.6593 13.6744 25.7819 13.4912 25.8655 13.2896C25.9491 13.088 25.9922 12.8718 25.9922 12.6536C25.9922 12.4353 25.9491 12.2191 25.8655 12.0175C25.7819 11.8159 25.6593 11.6327 25.5048 11.4786L14.5214 0.495219C14.3673 0.340713 14.1841 0.218134 13.9825 0.134498C13.7809 0.0508623 13.5647 0.00781196 13.3464 0.00781195C13.1282 0.00781194 12.912 0.0508623 12.7104 0.134498C12.5088 0.218134 12.3256 0.340713 12.1714 0.495219L1.18811 11.4786C1.03381 11.6329 0.911411 11.816 0.827903 12.0176C0.744394 12.2193 0.701414 12.4353 0.701414 12.6536C0.701414 12.8718 0.744394 13.0879 0.827903 13.2895C0.911411 13.4911 1.03381 13.6742 1.18811 13.8286C1.34241 13.9829 1.5256 14.1053 1.72721 14.1888C1.92882 14.2723 2.1449 14.3153 2.36311 14.3153C2.58133 14.3153 2.79741 14.2723 2.99902 14.1888C3.20063 14.1053 3.38381 13.9829 3.53811 13.8286L11.6714 5.69522L11.6714 24.3119C11.6714 25.2286 12.4214 25.9786 13.3381 25.9786C14.2548 25.9786 15.0048 25.2286 15.0048 24.3119Z" fill="white"/>
</svg>
