<svg width="78" height="83" viewBox="0 0 78 83" fill="none" xmlns="http://www.w3.org/2000/svg">
<path d="M60.4106 48.1148C60.9717 48.1148 61.4258 47.6408 61.4258 47.0563C61.4258 46.4719 60.9717 45.9984 60.4106 45.9984H54.8059C54.7028 43.3334 54.2303 40.7587 53.3956 38.4004C57.7494 37.7956 59.6338 32.5524 59.7197 32.3037C59.9108 31.7553 59.6406 31.1505 59.114 30.9501C58.5958 30.7508 58.0069 31.0314 57.8124 31.5793C57.7417 31.782 56.0874 36.313 52.5538 36.3316C51.7208 34.5503 50.6626 32.9446 49.4257 31.5497V28.9365C49.4257 26.6702 48.7158 24.5774 47.5273 22.87L52.6801 16.2482C53.034 15.7945 52.9665 15.1281 52.5314 14.7597C52.0945 14.3914 51.456 14.4617 51.1038 14.9148L46.1544 21.2748C44.3892 19.6034 42.0552 18.5751 39.4889 18.5751C36.9225 18.5751 34.5879 19.6034 32.8227 21.2748L27.8727 14.9148C27.5206 14.4623 26.8804 14.392 26.4452 14.7603C26.01 15.1286 25.9437 15.795 26.2964 16.2488L31.4498 22.8702C30.2614 24.5776 29.5515 26.6703 29.5515 28.9366V31.5498C28.3145 32.9447 27.2564 34.5511 26.4228 36.3329C22.8814 36.3201 21.236 31.7821 21.1641 31.58C20.9719 31.0316 20.3941 30.748 19.8636 30.9485C19.3371 31.1477 19.0646 31.7549 19.2569 32.3045C19.3427 32.5531 21.2254 37.7964 25.5809 38.4011C24.7463 40.7592 24.2738 43.3348 24.1707 45.9991H18.566C18.0049 45.9991 17.5508 46.4732 17.5508 47.057C17.5508 47.6415 18.0049 48.1156 18.566 48.1156H24.1668C24.2727 50.8253 24.7747 53.392 25.6049 55.7223C21.2293 56.3143 19.3434 61.5611 19.2569 61.8103C19.0658 62.3588 19.336 62.9641 19.8626 63.164C19.9774 63.2082 20.0944 63.2285 20.2103 63.2285C20.6237 63.2285 21.0121 62.963 21.1636 62.5348C21.2344 62.3315 22.8964 57.7679 26.4501 57.7819C27.3622 59.727 28.5044 61.4599 29.8416 62.8956C29.8751 62.9328 29.8951 62.9781 29.9341 63.0101C29.9509 63.024 29.9709 63.0287 29.9882 63.0409C32.6053 65.7842 35.901 67.4359 39.4877 67.4359C43.0748 67.4359 46.3706 65.7837 48.9877 63.0397C49.0045 63.0275 49.024 63.0228 49.0407 63.0095C49.0791 62.9775 49.0986 62.9334 49.1309 62.8979C50.4687 61.4618 51.6121 59.7276 52.5248 57.782C56.0668 57.7744 57.7355 62.3206 57.8113 62.5331C57.9617 62.9624 58.3506 63.2291 58.7646 63.2291C58.8794 63.2291 58.9964 63.2082 59.1117 63.1652C59.6383 62.9659 59.9107 62.3588 59.7185 61.8092C59.6321 61.5605 57.7355 56.3173 53.3705 55.7217C54.2007 53.3909 54.7027 50.8241 54.8086 48.114L60.4106 48.1148ZM31.5818 28.9363C31.5818 24.3903 35.1288 20.6911 39.4888 20.6911C43.8489 20.6911 47.3953 24.3901 47.3953 28.9363V30.8844H31.5823L31.5818 28.9363ZM30.5259 60.5352C27.8497 57.1922 26.1576 52.3957 26.1576 47.0549C26.1576 41.5891 27.9189 36.4951 31.0045 32.9994H38.4746V37.678C38.4746 45.6977 35.8381 53.5711 31.0512 59.8459L30.5259 60.5352ZM39.4893 65.3189C36.6851 65.3189 34.084 64.1209 31.935 62.087L32.6388 61.1644C35.9451 56.8303 38.2625 51.773 39.4893 46.4269C40.7162 51.773 43.0336 56.8303 46.3393 61.1644L47.043 62.087C44.894 64.121 42.2931 65.3189 39.4893 65.3189ZM48.4522 60.5358L47.9268 59.8473C43.1405 53.5717 40.504 45.6989 40.504 37.6793V33.0008H47.9736C51.0587 36.4965 52.8205 41.5904 52.8205 47.0562C52.8199 52.3965 51.1278 57.1935 48.4522 60.5365L48.4522 60.5358Z" fill="#43B02A" stroke="#43B02A" stroke-width="0.8"/>
</svg>
