<svg width="78" height="83" viewBox="0 0 78 83" fill="none" xmlns="http://www.w3.org/2000/svg">
<path d="M33.588 7.26172C29.8673 7.26172 26.7668 10.4499 26.7473 13.638V47.9902C24.1418 50.0931 22.4258 53.3368 22.4258 56.9969C22.4258 63.3203 27.438 68.4742 33.5884 68.4742C39.7385 68.4742 44.7511 63.3201 44.7511 56.9969C44.7511 53.3271 43.0286 50.0735 40.4101 47.9707C40.4101 35.9549 40.4101 25.1152 40.3712 13.4591C40.4101 9.81246 37.3091 7.26206 33.5884 7.26206L33.588 7.26172ZM33.549 9.812C36.0683 9.812 37.9289 11.0871 37.9094 13.638C37.9497 25.458 37.9289 36.5459 37.9289 48.5481C37.9285 48.9626 38.1384 49.371 38.4716 49.604C40.7624 51.2097 42.2698 53.9201 42.2698 56.9966C42.2698 61.9412 38.3976 65.9232 33.588 65.9232C28.7783 65.9232 24.9061 61.9411 24.9061 56.9966C24.9061 53.9294 26.4041 51.2123 28.6848 49.604C29.0129 49.3745 29.2219 48.9755 29.2275 48.5677V13.6382C29.247 11.0879 31.1072 9.81221 33.549 9.81221L33.549 9.812ZM43.8782 11.0871C43.229 11.1552 42.698 11.8241 42.7641 12.4917C42.8299 13.1594 43.4809 13.7051 44.13 13.6374H55.2927C55.948 13.6472 56.5508 13.0361 56.5508 12.3623C56.5508 11.6885 55.9479 11.0774 55.2927 11.0871H43.8785H43.8782ZM43.8782 17.4634C43.229 17.5315 42.698 18.2004 42.7641 18.868C42.8299 19.5356 43.4809 20.0813 44.13 20.0137H49.0911C49.7464 20.0235 50.3492 19.4124 50.3492 18.7386C50.3492 18.0648 49.7463 17.4536 49.0911 17.4634H43.8782ZM43.8782 23.8397C43.229 23.9078 42.698 24.5767 42.7641 25.2443C42.8299 25.9119 43.4809 26.4576 44.13 26.39H55.2927C55.948 26.3998 56.5508 25.7887 56.5508 25.1148C56.5508 24.441 55.9479 23.8299 55.2927 23.8397H43.8785H43.8782ZM33.5685 25.7126C32.9678 25.7522 32.3532 26.4327 32.3476 27.0078V50.7401C29.5288 51.3374 27.3865 53.9287 27.3865 56.9967C27.3865 60.5033 30.1775 63.373 33.588 63.373C36.9986 63.373 39.7896 60.5033 39.7896 56.9967C39.7896 53.9287 37.6473 51.3374 34.8285 50.7401V27.0078C34.8389 26.3268 34.2313 25.7019 33.5691 25.7126H33.5685ZM43.8782 30.216C43.229 30.284 42.698 30.953 42.7641 31.6206C42.8299 32.2882 43.4809 32.8339 44.13 32.7663H49.0911C49.7464 32.776 50.3492 32.1649 50.3492 31.4911C50.3492 30.8173 49.7463 30.2062 49.0911 30.216H43.8782ZM43.8782 36.5923C43.229 36.6603 42.698 37.3293 42.7641 37.9969C42.8299 38.6645 43.4809 39.2102 44.13 39.1425H55.2927C55.948 39.1523 56.5508 38.5412 56.5508 37.8674C56.5508 37.1936 55.9479 36.5825 55.2927 36.5923H43.8785H43.8782ZM43.8782 42.9685C43.229 43.0366 42.698 43.7055 42.7641 44.3731C42.8299 45.0407 43.4809 45.5865 44.13 45.5188H49.0911C49.7464 45.5286 50.3492 44.9175 50.3492 44.2437C50.3492 43.5699 49.7463 42.9587 49.0911 42.9685H43.8782Z" fill="#43B02A"/>
</svg>
