<svg width="81" height="80" viewBox="0 0 81 80" fill="none" xmlns="http://www.w3.org/2000/svg">
<path d="M57.4189 13.0002V31.8573H61.3672V39.7529L65.6033 36.0306C65.5207 35.7114 65.4787 35.3828 65.4787 35.0538C65.4787 32.9189 67.2091 31.1887 69.343 31.1887C71.4778 31.1887 73.2081 32.9191 73.2081 35.0538C73.2081 37.1877 71.4777 38.9189 69.343 38.9189C68.8291 38.9189 68.3242 38.8167 67.8493 38.6181L61.3671 44.3141V52.5337H57.4189V66.2949H21.5V13H57.4189L57.4189 13.0002ZM39.8967 22.2229C38.4105 24.4047 36.9395 26.6073 35.4306 28.7716C35.1311 29.0931 35.3043 29.3444 35.7382 29.3841L38.5735 29.6198L37.7284 34.3944C37.5757 35.2582 38.5802 35.4149 39.0209 34.7671C40.5071 32.5854 41.978 30.3828 43.4869 28.2184C43.7865 27.897 43.6124 27.6457 43.1793 27.6059L40.344 27.3702L41.1891 22.5957C41.3418 21.7319 40.3373 21.5752 39.8967 22.2229ZM26.3321 61.4001H52.5847C52.0806 60.1469 51.5757 58.8933 51.0699 57.6411H27.8471C27.343 58.8943 26.8363 60.1469 26.3323 61.4001H26.3321ZM51.9881 17.9875V39.0001H26.9275V17.9875C35.282 17.9884 43.6349 17.9884 51.9881 17.9875ZM49.1466 20.829H29.7695V36.1593H49.1466V20.829ZM54.5765 15.8407H24.34V63.4532H54.5765V15.8407Z" fill="#4BB134"/>
</svg>
