<svg width="80" height="80" viewBox="0 0 80 80" fill="none" xmlns="http://www.w3.org/2000/svg">
<circle cx="40" cy="40" r="39" stroke="#0084C7" stroke-width="2"/>
<path d="M57.7093 46.0525C57.1315 45.0275 55.7988 44.5764 54.6433 44.9454L51.2665 46.0525C49.1781 41.8293 44.6904 39.0822 39.6694 38.8772V36.13C46.3344 35.556 53.0882 30.3077 53.0882 22.7224V22.2713L52.5994 22.1892C47.7563 21.4513 44.5126 23.0092 42.602 24.4853C40.3803 26.2074 39.0472 28.5855 38.6032 30.4305C38.1144 29.7744 37.448 29.1183 36.6037 28.5855C33.8933 26.7813 30.3386 26.3715 26.8284 27.4374L26.4286 27.5604V27.9705C26.4286 31.6606 31.9828 36.212 38.4256 36.212H38.4699V38.9182C34.6486 39.082 31.1386 40.6811 28.6946 43.3873C28.6056 43.4694 28.5613 43.5924 28.5613 43.7154C27.9393 43.7974 27.3172 43.9613 26.6951 44.2073L23.3626 45.6013C23.0515 45.7243 22.9182 46.0523 23.0515 46.3392C23.1847 46.6263 23.5402 46.7493 23.8511 46.6263L27.1836 45.2733C29.4052 44.4121 32.0267 44.6993 33.9819 46.0112L36.9589 47.7332C37.6699 48.1434 38.5585 48.3482 39.4028 48.2664L43.8461 47.8562C44.3792 47.8153 44.9126 48.1434 45.0459 48.6353C45.1791 49.1273 44.8236 49.6604 44.2906 49.8242L40.8691 50.8084C39.7139 51.1364 38.4252 51.2185 37.2254 50.9723L34.3374 50.4391C34.0263 50.3982 33.7154 50.5621 33.6264 50.8902C33.5375 51.2182 33.7597 51.4642 34.1152 51.5463L37.0032 52.0794C37.5809 52.2024 38.114 52.2433 38.6918 52.2433C39.5361 52.2433 40.4246 52.1203 41.2246 51.8743L44.646 50.8902C45.5793 50.6442 46.2014 49.8651 46.2456 49.004L55.0878 46.0518C55.7099 45.8467 56.3762 46.0927 56.6874 46.6258C56.865 46.913 56.865 47.2407 56.7764 47.5688C56.6874 47.8969 56.4209 48.1428 56.11 48.2658L40.291 55.6469C39.669 55.9341 38.9579 56.0158 38.2916 55.8108L28.0275 52.9816C27.3165 52.7768 26.5612 52.7768 25.8502 52.8998L24.3396 53.1869C24.0284 53.269 23.8065 53.5559 23.8951 53.843C23.9841 54.1302 24.295 54.335 24.6061 54.2532L26.0724 53.966C26.6055 53.843 27.1389 53.8839 27.672 54.0069L37.9361 56.8361C38.2916 56.9182 38.6914 57 39.0469 57C39.669 57 40.2467 56.877 40.8241 56.5899L56.5978 49.1685C57.2199 48.8813 57.6643 48.3894 57.842 47.8154C58.1088 47.2005 58.0199 46.5856 57.7087 46.0525L57.7093 46.0525ZM39.7138 33.3009V31.5788C39.7138 30.2666 40.7357 27.4377 43.4018 25.3464C45.0014 24.0754 47.8008 22.7223 51.8885 23.2142C51.622 29.8976 45.668 34.4898 39.7138 35.0228V33.3009ZM38.4694 35.0638C33.0042 35.0638 28.1165 31.4146 27.7166 28.3395C30.6936 27.5604 33.6705 27.9293 35.9367 29.4875C37.492 30.5126 38.4696 31.9887 38.4696 33.3006L38.4692 35.0638C38.5139 35.0638 38.5139 35.0638 38.4692 35.0638H38.4694ZM43.7127 46.7084L39.2693 47.1185C38.6916 47.1594 38.1142 47.0365 37.6254 46.7496L34.6927 45.0275C33.3597 44.1255 31.7157 43.6335 30.0718 43.5923C32.3824 41.2962 35.626 39.9431 39.0473 39.9431C43.8018 39.9431 48.1117 42.4852 50.1112 46.4214L45.9784 47.8563C45.5786 47.0772 44.69 46.6262 43.7124 46.7083L43.7127 46.7084Z" fill="#43B02A"/>
<path d="M38.4692 35.0638L38.4696 33.3006C38.4696 31.9887 37.492 30.5126 35.9367 29.4875C33.6705 27.9293 30.6936 27.5604 27.7166 28.3395C28.1165 31.4146 33.0042 35.0638 38.4694 35.0638H38.4692ZM38.4692 35.0638C38.5139 35.0638 38.5139 35.0638 38.4692 35.0638ZM57.7093 46.0525C57.1315 45.0275 55.7988 44.5764 54.6433 44.9454L51.2665 46.0525C49.1781 41.8293 44.6904 39.0822 39.6694 38.8772V36.13C46.3344 35.556 53.0882 30.3077 53.0882 22.7224V22.2713L52.5994 22.1892C47.7563 21.4513 44.5126 23.0092 42.602 24.4853C40.3803 26.2074 39.0472 28.5855 38.6032 30.4305C38.1144 29.7744 37.448 29.1183 36.6037 28.5855C33.8933 26.7813 30.3386 26.3715 26.8284 27.4374L26.4286 27.5604V27.9705C26.4286 31.6606 31.9828 36.212 38.4256 36.212H38.4699V38.9182C34.6486 39.082 31.1386 40.6811 28.6946 43.3873C28.6056 43.4694 28.5613 43.5924 28.5613 43.7154C27.9393 43.7974 27.3172 43.9613 26.6951 44.2073L23.3626 45.6013C23.0515 45.7243 22.9182 46.0523 23.0515 46.3392C23.1847 46.6263 23.5402 46.7493 23.8511 46.6263L27.1836 45.2733C29.4052 44.4121 32.0267 44.6993 33.9819 46.0112L36.9589 47.7332C37.6699 48.1434 38.5585 48.3482 39.4028 48.2664L43.8461 47.8562C44.3792 47.8153 44.9126 48.1434 45.0459 48.6353C45.1792 49.1273 44.8236 49.6604 44.2906 49.8242L40.8691 50.8084C39.7139 51.1364 38.4252 51.2185 37.2254 50.9723L34.3374 50.4391C34.0263 50.3982 33.7154 50.5621 33.6264 50.8902C33.5375 51.2182 33.7597 51.4642 34.1152 51.5463L37.0032 52.0794C37.5809 52.2024 38.114 52.2433 38.6918 52.2433C39.5361 52.2433 40.4246 52.1203 41.2246 51.8743L44.646 50.8902C45.5793 50.6442 46.2014 49.8651 46.2456 49.004L55.0878 46.0518C55.7099 45.8467 56.3762 46.0927 56.6874 46.6258C56.865 46.913 56.865 47.2407 56.7764 47.5688C56.6874 47.8969 56.4209 48.1428 56.11 48.2658L40.291 55.6469C39.669 55.9341 38.9579 56.0158 38.2916 55.8108L28.0275 52.9816C27.3165 52.7768 26.5612 52.7768 25.8502 52.8998L24.3396 53.1869C24.0284 53.269 23.8065 53.5559 23.8951 53.843C23.9841 54.1302 24.295 54.335 24.6061 54.2532L26.0724 53.966C26.6055 53.843 27.1389 53.8839 27.672 54.0069L37.9361 56.8361C38.2916 56.9182 38.6914 57 39.0469 57C39.669 57 40.2467 56.877 40.8241 56.5899L56.5978 49.1685C57.2199 48.8813 57.6643 48.3894 57.842 47.8154C58.1088 47.2005 58.0199 46.5856 57.7087 46.0525L57.7093 46.0525ZM39.7138 33.3009V31.5788C39.7138 30.2666 40.7357 27.4377 43.4018 25.3464C45.0014 24.0754 47.8008 22.7223 51.8885 23.2142C51.622 29.8976 45.668 34.4898 39.7138 35.0228V33.3009ZM43.7127 46.7084L39.2693 47.1185C38.6916 47.1594 38.1142 47.0365 37.6254 46.7496L34.6927 45.0275C33.3597 44.1255 31.7157 43.6335 30.0718 43.5923C32.3824 41.2962 35.626 39.9431 39.0473 39.9431C43.8018 39.9431 48.1117 42.4852 50.1112 46.4214L45.9784 47.8563C45.5786 47.0772 44.69 46.6262 43.7124 46.7083L43.7127 46.7084Z" stroke="#43B02A"/>
</svg>
