<svg width="81" height="80" viewBox="0 0 81 80" fill="none" xmlns="http://www.w3.org/2000/svg">
<path d="M24.7227 66.3571L56.2029 66.2656L56.2074 67.9112L24.7272 68.0027L24.7227 66.3571Z" fill="#4BB134"/>
<path d="M29.1831 63.7027L51.7627 63.6363C52.0656 63.6357 52.3104 63.3889 52.3098 63.0861C52.3091 62.7839 52.0636 62.5391 51.7614 62.5391H51.7595L29.1798 62.6054C28.877 62.6061 28.6322 62.8529 28.6328 63.1557C28.6335 63.4579 28.879 63.7027 29.1811 63.7027H29.1831Z" fill="#4BB134"/>
<path d="M49.9811 34.0386C49.9811 34.0386 50.4444 14.5517 34.1494 12H34.1475C34.1475 12 36.8182 16.8434 34.5045 21.7989C32.1888 26.7544 30.1591 30.6597 30.6231 34.8259C30.6231 34.8259 29.4478 28.0682 23.5 26.3021C23.5 26.3021 25.7082 30.6945 24.4974 36.8903C23.2874 43.0849 26.029 54.6501 37.2835 57.6538C37.2835 57.6538 27.3113 52.0598 34.4703 42.9729C34.4703 42.9729 34.6481 47.4419 38.3344 48.7737C38.3344 48.7737 32.5297 38.355 41.0766 28.6683C41.0766 28.6683 39.1179 35.3892 45.6712 41.1347C51.6178 46.3478 49.4992 54.4342 46.2357 56.8408C50.2447 54.5353 64.111 44.9608 53.5424 27.7309C53.543 27.7309 53.1151 32.2732 49.9811 34.0386Z" fill="#4BB134"/>
</svg>
