<svg width="78" height="83" viewBox="0 0 78 83" fill="none" xmlns="http://www.w3.org/2000/svg">
<path d="M64.7909 38.9904C54.6319 38.9904 50.0876 33.9525 50.0426 33.9044C49.8642 33.7122 49.5524 33.7122 49.419 33.9044C49.3744 33.9524 46.9236 36.6871 41.5327 38.1267C40.8199 36.0636 40.2404 34.0005 39.9733 32.225C38.904 24.0686 42.8692 14.1371 44.0723 11.2581C44.1169 11.162 44.1615 11.114 44.1615 11.0659C44.2507 10.8738 44.1615 10.6341 44.0277 10.49C43.8939 10.3459 43.6713 10.3459 43.4928 10.442L43.4036 10.5865C40.4184 12.6496 25.447 23.3975 20.7245 37.1674C17.4717 34.6723 18.0066 30.0662 18.1404 29.1065C18.185 28.8668 18.0512 28.6746 17.8286 28.5786C17.606 28.4825 17.383 28.5786 17.2938 28.8183C14.0414 35.44 12.4373 42.9251 12.7045 50.458L12.7937 51.9452C13.1501 59.6218 17.9624 66.3866 24.7794 68.7384C24.9578 68.7864 27.2748 69.3619 30.1708 69.3619C32.2205 69.3619 34.5821 69.0742 36.6759 68.1624C37.7452 67.6345 38.7257 67.011 39.6165 66.2914C40.5524 67.3468 41.6216 68.3065 42.7355 69.1702C44.874 70.7535 47.1909 71.9529 49.6416 72.625H49.7754H49.9093C52.3154 71.9534 54.6324 70.8015 56.8154 69.1702C62.1621 65.188 65.3258 58.7584 65.3258 51.9939V39.5188C65.2366 39.2315 65.0581 38.9913 64.7909 38.9913L64.7909 38.9904ZM36.2749 67.2515C31.463 69.3626 25.0017 67.8274 24.9578 67.8274C18.5418 65.5721 13.9526 59.191 13.6408 51.8973L13.5962 50.4101C13.3736 43.7889 14.6208 37.2634 17.2054 31.2664C17.2946 33.4256 17.9628 36.496 20.77 38.2715C20.9039 38.3675 21.0372 38.3675 21.1711 38.3195C21.3049 38.2715 21.3937 38.1754 21.4383 38.0317C25.4039 25.6523 38.1475 15.5774 42.7361 12.2182C40.9986 16.5843 38.1468 25.0292 39.1269 32.3694C39.3495 34.1928 39.9735 36.2559 40.6863 38.3191C38.9489 38.7029 36.9437 38.9426 34.6714 38.9426C34.4042 38.9426 34.2258 39.1823 34.2258 39.4224V51.8976C34.2258 56.8876 35.9632 61.6854 38.9935 65.476C38.1468 66.1956 37.2556 66.8195 36.2755 67.2514L36.2749 67.2515ZM64.3451 51.9457C64.3451 58.4228 61.3153 64.5166 56.1912 68.3546C54.186 69.8898 52.0029 70.9937 49.7306 71.6172C47.4583 70.9457 45.2751 69.8418 43.2254 68.3546C42.1561 67.539 41.1756 66.6273 40.2848 65.6199C40.0622 65.3802 39.8838 65.14 39.6612 64.9003C36.7207 61.3019 35.0719 56.6957 35.0719 51.8978V39.9027C37.2996 39.8546 39.2602 39.6149 40.9534 39.2311C41.2652 39.1831 41.5325 39.087 41.8447 38.9914C46.3447 37.7919 48.8847 35.6808 49.7309 34.8652C50.934 36.0166 55.5233 39.8071 64.3453 39.9031L64.3451 51.9457Z" fill="#43B02A" stroke="#43B02A" stroke-width="1.5"/>
<path d="M49.7393 38.4664C47.475 39.9062 43.5471 41.7293 37.955 42.4008C37.7241 42.4488 37.5391 42.6405 37.5391 42.8807V52.1417C37.5391 57.9958 40.3581 63.5616 45.1179 66.9685C46.5965 68.0239 48.1677 68.8876 49.8315 69.4637C49.8778 69.4637 49.924 69.5117 49.9703 69.5117C50.0166 69.5117 50.0628 69.5117 50.1091 69.4637C51.7266 68.8877 53.2978 68.0239 54.8227 66.9685C59.5826 63.5616 62.4016 57.9956 62.4016 52.1417L62.4011 42.8326C62.4011 42.5928 62.2161 42.4007 61.9852 42.3527C56.3935 41.6811 52.4655 39.8574 50.2009 38.4183C50.1083 38.3702 49.9233 38.3702 49.7387 38.4663L49.7393 38.4664ZM61.5236 43.2646V52.0937C61.5236 57.66 58.8435 62.8901 54.3144 66.1531C52.9278 67.1609 51.4955 67.9287 49.9705 68.5042C48.4919 67.9282 47.0127 67.1605 45.6265 66.1531C41.1439 62.8902 38.4173 57.6602 38.4173 52.0937V43.2646C43.7781 42.593 47.6136 40.8175 49.9238 39.4257C52.3269 40.8175 56.1627 42.5929 61.5236 43.2646Z" fill="#43B02A" stroke="#43B02A" stroke-width="1.5"/>
<path d="M44.1135 52.8614C43.9905 52.6608 43.7038 52.6112 43.5401 52.7611C43.3761 52.9115 43.3354 53.2619 43.4581 53.462L46.6536 58.4198C46.7356 58.5201 46.8177 58.6203 46.9403 58.6203H46.9813C47.0634 58.6203 47.186 58.5702 47.268 58.4699L56.4039 48.605C56.568 48.4045 56.6086 48.1042 56.4449 47.9041C56.2809 47.7036 56.0352 47.654 55.8715 47.854L47.0633 57.3686L44.1135 52.8614Z" fill="#43B02A" stroke="#43B02A" stroke-width="1.5"/>
</svg>
