<svg width="81" height="80" viewBox="0 0 81 80" fill="none" xmlns="http://www.w3.org/2000/svg">
<path d="M58.8082 42.1244L58.1737 32.4642C58.1714 32.365 58.1023 29.929 56.5152 28.437C54.4875 26.534 50.2942 23.0438 48.0151 21.7109C47.1501 21.2058 45.9785 20.9752 44.4929 21.0258C42.6131 21.081 39.1485 21.0165 39.1462 21.0165C39.1415 21.0351 37.6722 21.0142 36.5581 21.946C36.06 22.3658 35.6356 22.8593 35.2223 23.3369C34.3577 24.3379 33.3726 25.4658 31.8801 25.2997C27.8965 25.309 19.5714 25.5075 19.5714 25.5075L19.5 22.509C19.5 22.509 27.8731 22.3105 32.0459 22.3105C32.1961 22.2526 32.6298 21.7498 32.948 21.3806C33.4141 20.8384 33.9424 20.2272 34.6274 19.6529C36.5972 17.999 38.9523 18.0175 39.2107 18.0198C39.213 18.0198 42.583 18.0843 44.4029 18.0291C46.4812 17.9808 48.1629 18.3268 49.5238 19.1223C52.0265 20.5847 56.384 24.2037 58.5634 26.2524C61.0985 28.6326 61.163 32.1988 61.1653 32.3509L61.7974 41.9281L58.8082 42.1244ZM53.9642 36.8147C53.3668 36.8147 52.6655 36.7062 51.8423 36.4432C49.7269 35.7697 45.7228 32.877 41.0866 29.5232L38.7546 27.8415C37.9379 27.258 36.9786 25.7033 37.2991 24.31C37.4123 23.8119 37.8734 22.6171 39.6705 22.3078C39.9173 22.2641 45.7807 21.2884 48.2236 23.5257C48.872 24.1184 49.91 24.9074 51.0102 25.7399C53.153 27.3637 55.37 29.0431 56.5026 30.5537C57.2845 31.5964 57.8128 33.9608 56.7192 35.5039C56.2554 36.1638 55.4248 36.8145 53.9647 36.8145L53.9642 36.8147ZM52.7486 33.5852C53.9113 33.9567 54.2824 33.7675 54.2847 33.7629C54.4276 33.5713 54.3171 32.6789 54.0978 32.3441C53.2235 31.1791 50.9931 29.4884 49.2009 28.1299C48.0428 27.2533 46.9497 26.4254 46.2001 25.7357C45.4321 25.0321 42.5486 24.8939 40.3826 25.2283C40.4355 25.3136 40.4934 25.3897 40.5394 25.4314L42.8459 27.0923C46.8968 30.0282 51.0901 33.0592 52.7484 33.5852L52.7486 33.5852Z" fill="#4BB134"/>
<path d="M32.1735 21.0178H19.5742V17.1312H19.8279L19.8233 15.7703C19.8233 14.8084 20.4554 14.2342 21.7054 14.0519L21.7216 14.0496C22.0584 13.8051 22.4619 13.6298 22.8635 13.5051L23.0894 13H28.6625L28.8884 13.5051C29.2896 13.6298 29.6935 13.8051 30.0303 14.0496L30.0465 14.0519C31.2969 14.2342 31.9287 14.8107 31.9287 15.7633L31.9194 17.1311H32.1731L32.1735 21.0178ZM22.8315 18.0193H28.9167L28.9213 16.9029L28.3838 16.7991L28.1737 16.4345C28.0123 16.3723 27.7516 16.2963 27.5439 16.2569L26.7183 15.9985L24.9814 16.114L24.2063 16.2592C23.9967 16.2986 23.736 16.3723 23.5742 16.4345L23.3645 16.7991L22.827 16.9029L22.8315 18.0193Z" fill="#4BB134"/>
<path d="M57.7156 67.9996H23.6555C21.4042 67.9996 19.5703 66.1681 19.5703 63.9145L19.5707 23.2734H22.5692V63.9145C22.5692 64.5142 23.0558 65.0007 23.6555 65.0007H57.7156C58.313 65.0007 58.8018 64.5141 58.8018 63.9145L58.8022 41.6064H61.8007V63.9145C61.8007 66.1657 59.9696 67.9996 57.716 67.9996H57.7156Z" fill="#4BB134"/>
<path d="M29.2513 61.7992C28.9053 61.7992 28.557 61.6791 28.2755 61.4369C27.648 60.8971 27.5765 59.9514 28.1164 59.3216L31.2026 55.7303C31.7401 55.1005 32.6881 55.0291 33.3179 55.5712C33.9454 56.1111 34.0169 57.0567 33.477 57.6866L30.3885 61.2778C30.0931 61.6215 29.6734 61.7991 29.2513 61.7991L29.2513 61.7992Z" fill="#4BB134"/>
<path d="M45.4544 42.962C45.1084 42.962 44.7601 42.8419 44.4786 42.5998C43.8511 42.0599 43.7797 41.1142 44.3195 40.4844L47.5188 36.7638C48.0563 36.1362 49.0043 36.0648 49.6341 36.6047C50.2617 37.1445 50.3331 38.0902 49.7932 38.72L46.5939 42.4407C46.2966 42.7867 45.8768 42.962 45.4544 42.962L45.4544 42.962Z" fill="#4BB134"/>
<path d="M32.4576 42.9666C32.0355 42.9666 31.6157 42.789 31.3203 42.4453L28.1164 38.72C27.5765 38.0925 27.648 37.1444 28.2755 36.6047C28.903 36.0648 29.8511 36.1362 30.3908 36.7638L33.5948 40.4891C34.1346 41.1166 34.0632 42.0647 33.4357 42.6044C33.1518 42.8492 32.8035 42.9666 32.4575 42.9666L32.4576 42.9666Z" fill="#4BB134"/>
<path d="M48.6545 61.8002C48.2325 61.8002 47.8127 61.6226 47.5173 61.2789L44.3156 57.5559C43.7757 56.9284 43.8472 55.9804 44.4747 55.4406C45.1022 54.9007 46.0525 54.9722 46.59 55.5997L49.7917 59.3226C50.3316 59.9502 50.2601 60.8982 49.6326 61.438C49.3488 61.6801 49.0005 61.8002 48.6545 61.8002L48.6545 61.8002Z" fill="#4BB134"/>
<path d="M44.7209 58.4223H33.1853C32.4562 58.4223 31.7712 58.1018 31.3032 57.5434C30.7726 56.909 30.8533 55.9633 31.4901 55.4304C32.0527 54.9596 32.8625 54.9712 33.407 55.4234H44.1864V42.2567C43.7967 41.6315 43.9164 40.8012 44.4953 40.3143C45.1297 39.7838 46.0778 39.8668 46.6083 40.4989C46.9798 40.9418 47.1849 41.5068 47.1849 42.0861V55.9586C47.1826 57.3175 46.0778 58.4223 44.7216 58.4223L44.7209 58.4223Z" fill="#4BB134"/>
<path d="M32.4543 58.0837C32.0276 58.0837 31.6055 57.9037 31.3077 57.5531C30.9316 57.1101 30.7266 56.5429 30.7266 55.9613V42.0887C30.7266 40.7302 31.8314 39.625 33.1879 39.625H44.7235C45.4479 39.625 46.1353 39.9432 46.6034 40.4993C47.1363 41.1314 47.0579 42.0794 46.4257 42.6123C45.8631 43.0877 45.051 43.0761 44.5041 42.6239H33.7248V55.7907C34.1144 56.4135 33.9994 57.2415 33.4224 57.7284C33.139 57.9659 32.7953 58.0837 32.4539 58.0837L32.4543 58.0837Z" fill="#4BB134"/>
</svg>
