<svg width="60" height="60" viewBox="0 0 60 60" fill="none" xmlns="http://www.w3.org/2000/svg">
<path d="M36.5289 20.0547L33.7171 20C33.5305 20.0014 33.3589 20.1112 33.2769 20.2929C33.1953 20.475 33.2194 20.6919 33.3378 20.8483L33.6887 21.3125C28.3613 25.9514 18.6157 27.9294 18.4145 27.967C18.1613 28.0043 17.978 28.252 18.0021 28.5297C18.0255 28.7987 18.2342 29 18.4791 29C18.4938 29 18.5092 28.9996 18.5242 28.9978L18.6694 28.9873C22.0213 28.7632 30.2275 27.7748 35.3118 23.4546L35.6466 23.8974C35.765 24.0531 35.9563 24.1215 36.1372 24.0708C36.3185 24.0201 36.4557 23.8601 36.4888 23.6613L36.9921 20.6663C37.0175 20.5164 36.9808 20.3622 36.8915 20.2441C36.8021 20.1264 36.6704 20.0573 36.5292 20.0548L36.5289 20.0547ZM35.7312 22.3723C35.6513 22.2789 35.5419 22.2206 35.4239 22.2094C35.2958 22.196 35.1693 22.2401 35.071 22.3292C32.5649 24.6146 29.1253 25.9825 25.9291 26.8004C28.956 25.6393 32.2963 23.9886 34.6737 21.7752C34.8697 21.5931 34.8972 21.2759 34.7366 21.0579L35.9474 21.0815L35.7312 22.3723Z" fill="#43B02A" stroke="#43B02A" stroke-width="0.5"/>
<path d="M56.6985 25.4823H52.8135C52.2149 25.4823 51.5386 24.9737 51.3668 24.3935L49.1139 18.9083L49.0805 18.8395C48.7897 18.3128 48.91 17.4799 49.341 17.0522L52.0709 14.314C52.9598 13.4245 52.9612 11.9692 52.0714 11.0663L48.9231 7.91145C48.0616 7.0577 46.5466 7.05631 45.6805 7.91424L42.9427 10.6622C42.5368 11.0672 41.6558 11.1949 41.1542 10.9172L35.6661 8.65083L35.6029 8.629C35.0256 8.45668 34.519 7.77479 34.519 7.16996V3.2988C34.519 2.03168 33.4856 1 32.2154 1H27.775C26.508 1 25.4765 2.03072 25.4765 3.2988V7.17043C25.4765 7.7636 24.9591 8.45896 24.3298 8.65124L18.9021 10.8832L18.8296 10.9185C18.3369 11.1944 17.4587 11.0658 17.0541 10.6621L14.3122 7.91502C13.4428 7.05756 11.9306 7.05849 11.0718 7.91781L7.91379 11.068C7.02627 11.9677 7.02766 13.4235 7.91704 14.313L10.6609 17.054C11.0877 17.4767 11.2061 18.3104 10.9154 18.8386L8.63368 24.3885C8.4572 24.9705 7.77495 25.4814 7.1745 25.4814H3.2975C2.03057 25.4814 1 26.5135 1 27.783V32.2263C1 33.4949 2.03057 34.5279 3.2975 34.5279H7.1745C7.77686 34.5279 8.45962 35.0346 8.65603 35.6719L10.8829 41.0917L10.9154 41.1595C11.2062 41.689 11.0877 42.5214 10.6591 42.9446L7.91619 45.6874C7.02541 46.5829 7.02588 48.0359 7.91758 48.9277L11.0734 52.084C11.9344 52.9363 13.441 52.9396 14.3151 52.0766L17.0543 49.343C17.4602 48.9375 18.3398 48.8065 18.8336 49.0801L24.331 51.3465L24.3941 51.3692C24.9714 51.5401 25.4772 52.2234 25.4772 52.831V56.7022C25.4772 57.9693 26.5077 59 27.7756 59H32.2161C33.4863 59 34.5196 57.9693 34.5196 56.7022V52.831C34.5196 52.2225 35.0259 51.5397 35.6018 51.3692L41.0852 49.1131L41.1517 49.0811C41.6537 48.8065 42.537 48.9347 42.9424 49.3426L45.6797 52.0807C46.5412 52.9452 48.0646 52.9466 48.9261 52.0807L52.0707 48.9269C52.9624 48.035 52.9629 46.582 52.0707 45.6851L49.3283 42.9455C48.9136 42.5265 48.7956 41.6765 49.0813 41.1604L51.3444 35.6719L51.3671 35.6073C51.5376 35.0318 52.2133 34.5274 52.8138 34.5274H56.6988C57.9672 34.5274 59 33.4944 59 32.2259V27.7835C59 26.5149 57.9668 25.4823 56.6985 25.4823ZM57.6682 32.2273C57.6682 32.7527 57.2242 33.1967 56.6989 33.1967H52.814C51.6362 33.1967 50.4529 34.0709 50.1018 35.195L47.8967 40.5531C47.344 41.5931 47.5539 43.0475 48.3848 43.8872L51.1277 46.6268C51.5024 47.0031 51.5024 47.613 51.1281 47.9873L47.983 51.1417C47.624 51.5007 46.9822 51.5026 46.6223 51.1412L43.885 48.4035C43.0862 47.5999 41.5559 47.3649 40.5458 47.8953L35.1872 50.1035C34.0628 50.4547 33.1865 51.6452 33.1865 52.8315V56.7026C33.1865 57.2354 32.7504 57.6688 32.2144 57.6688H27.774C27.2413 57.6688 26.8071 57.2354 26.8071 56.7026V52.8315C26.8071 51.6475 25.9316 50.4569 24.8068 50.1035L19.4403 47.8963C18.4371 47.3644 16.9124 47.6004 16.1113 48.4017L13.3762 51.1325C13.0103 51.4934 12.367 51.4934 12.0113 51.1418L8.85744 47.9874C8.48405 47.6139 8.48451 47.0041 8.85744 46.6287L11.5957 43.8905C12.4368 43.0614 12.6536 41.6039 12.0996 40.5545L9.90707 35.2271C9.56201 34.0891 8.36193 33.1973 7.17347 33.1973H3.29647C2.7726 33.1973 2.33046 32.7532 2.33046 32.2279L2.33139 27.7836C2.33139 27.249 2.76469 26.8142 3.2974 26.8142H7.1744C8.36148 26.8142 9.56202 25.9186 9.8866 24.8359L12.1005 19.4473C12.6551 18.3998 12.4382 16.9423 11.5999 16.1117L8.85878 13.3735C8.48538 13.0001 8.48677 12.386 8.85831 12.0097L12.0127 8.86177C12.3717 8.50132 13.0149 8.50735 13.3734 8.86177L16.1131 11.606C16.9175 12.4073 18.4445 12.64 19.4435 12.1021L24.7752 9.90592C25.9158 9.56358 26.8085 8.36245 26.8085 7.17191L26.809 3.29896C26.809 2.76618 27.2423 2.33188 27.7759 2.33188H32.2164C32.7523 2.33188 33.1884 2.76525 33.1884 3.29896V7.1706C33.1884 8.35135 34.0639 9.54051 35.1887 9.89486L40.5459 12.1017C41.5537 12.6378 43.084 12.406 43.8861 11.6038L46.6221 8.85766C46.9788 8.50185 47.6308 8.50417 47.9852 8.85487L51.128 12.0046C51.5028 12.385 51.5042 12.9986 51.1308 13.373L48.4033 16.1094C47.5617 16.9432 47.3439 18.4008 47.898 19.4468L50.104 24.8066C50.457 25.9349 51.6413 26.8137 52.8162 26.8137H56.7012C57.2265 26.8137 57.6705 27.2578 57.6705 27.7831L57.6682 32.2273Z" fill="#43B02A" stroke="#43B02A" stroke-width="0.5"/>
<path d="M30.0022 14C21.1783 14 14 21.1774 14 29.9995C14 33.813 15.343 37.3171 17.5787 40.0693C17.5928 40.0868 17.6036 40.1067 17.6202 40.1225C20.5575 43.7067 25.0169 46 30.0027 46C34.9861 46 39.4441 43.7084 42.3799 40.1249C42.4015 40.1046 42.416 40.0793 42.4339 40.056C44.6617 37.3054 46 33.8058 46 29.9995C46 21.1771 38.8232 14 30.002 14L30.0022 14ZM30.0022 44.8102C25.8305 44.8102 22.0585 43.0743 19.3642 40.2893H40.6392C37.9446 43.0743 34.173 44.8102 30.0022 44.8102ZM20.0877 39.0995V37.3449H20.6882V39.0995H20.0877ZM24.4946 39.0995V35.2429H25.0939V39.0995H24.4946ZM29.3452 39.0995V32.3342H29.9457V39.0991L29.3452 39.0995ZM34.1967 39.0995V29.5622H34.7959V39.0995H34.1967ZM39.0472 39.0995V26.5198H39.6465V39.0995H39.0472ZM41.6726 39.0995H40.8359L40.8364 25.9249C40.8364 25.5966 40.5703 25.3298 40.2412 25.3298L38.4521 25.3302C38.123 25.3302 37.857 25.5966 37.857 25.9253V39.0999H35.9853L35.9857 28.967C35.9857 28.6388 35.7197 28.3719 35.3906 28.3719H33.6015C33.2724 28.3719 33.0064 28.6383 33.0064 28.967V39.0995H31.1347V31.7396C31.1347 31.4105 30.8687 31.1445 30.5396 31.1445H28.7492C28.4209 31.1445 28.154 31.4105 28.154 31.7396V39.0995H26.2824V34.6483C26.2824 34.3192 26.0159 34.0532 25.6872 34.0532H23.8994C23.5711 34.0532 23.3043 34.3192 23.3043 34.6483V39.0995H21.8774V36.7502C21.8774 36.4211 21.611 36.1551 21.2823 36.1551H19.4919C19.1637 36.1551 18.8968 36.4211 18.8968 36.7502V39.0995H18.327C16.3636 36.5863 15.1887 33.429 15.1887 30C15.1887 21.8337 21.833 15.1903 30.001 15.1903C38.1662 15.1903 44.809 21.8339 44.809 30C44.8103 33.429 43.6358 36.5863 41.6724 39.0995L41.6726 39.0995Z" fill="#43B02A" stroke="#43B02A" stroke-width="0.5"/>
</svg>
