<svg width="80" height="80" viewBox="0 0 80 80" fill="none" xmlns="http://www.w3.org/2000/svg">
<path d="M33.0925 13.0027C32.8947 13.0444 32.7326 13.1941 32.6673 13.3951L23.029 43.8826C22.9689 44.0731 23.0033 44.2829 23.1212 44.4405C23.2387 44.5985 23.4237 44.6836 23.6136 44.6669L41.4375 42.9673L38.2662 52.3449L32.065 52.4571C31.8613 52.455 31.6727 52.5684 31.5702 52.7536C31.4674 52.9391 31.467 53.1681 31.5687 53.3536L39.5064 67.7007C39.5957 67.8645 39.7531 67.9738 39.9311 67.9959C40.1095 68.018 40.2866 67.95 40.4096 67.8128L53.4498 53.4658C53.6048 53.2932 53.6484 53.0396 53.5598 52.8207C53.4712 52.6018 53.2683 52.4588 53.0425 52.4571H47.6564L56.9582 29.9651C57.0321 29.7733 57.0068 29.5548 56.8917 29.3876C56.7763 29.2204 56.5868 29.1278 56.3911 29.1432L40.3743 30.8245L47.8865 13.8429C47.964 13.659 47.9486 13.446 47.845 13.2763C47.7413 13.107 47.5638 13.004 47.3727 13.0023H33.1986C33.163 12.999 33.1277 12.9994 33.0925 13.0027ZM33.6062 14.1986H46.4874L38.9218 31.2731C38.8395 31.4666 38.8605 31.6918 38.9768 31.8644C39.0934 32.0374 39.2884 32.1321 39.4889 32.1137L55.5411 30.4137L46.2923 52.8117C46.2148 52.996 46.2302 53.2091 46.3338 53.3784C46.4374 53.5477 46.615 53.6511 46.806 53.6523H51.6962L40.1271 66.3928L33.0574 53.6331L38.6919 53.5397C38.9296 53.5393 39.1415 53.3829 39.2234 53.1478L42.8021 42.4808C42.8623 42.2902 42.8279 42.0805 42.71 41.9224C42.5925 41.7648 42.4075 41.6797 42.2176 41.696L24.3582 43.4149L33.6062 14.1986Z" fill="#43B02A" stroke="#43B02A"/>
</svg>
