<svg width="176" height="62" viewBox="0 0 176 62" fill="none" xmlns="http://www.w3.org/2000/svg">
<path d="M25.3199 28.4716H36.9105L15.6036 58.9626L23.1533 35.7247L23.366 35.0702H22.6778H10.6328L32.4576 3.01664L24.8419 27.8248L24.6434 28.4716H25.3199Z" fill="white" stroke="#F5F5F5"/>
<path d="M43.2654 7.26953H31.7062L28.4586 17.6212L25.2111 27.9729H37.761L19.1562 54.8432H43.2654C46.612 54.0503 47.3753 51.7965 47.3386 50.7686V11.1239C46.8982 8.3928 44.4396 7.41636 43.2654 7.26953Z" fill="#009138"/>
<path d="M9.79777 35.4614L28.953 7.26953H4.5136C1.25502 7.71003 0.146791 10.61 0 12.0049V49.5573C0.00107507 51.2091 1.21237 54.8432 4.29481 54.8432H16.2929L22.7881 35.4614H9.79777Z" fill="#0084C7"/>
<path d="M55.5312 38.3379V7.18072H64.6033L71.4073 24.6373H71.4929L78.2969 7.18072H87.369V38.3379H80.0942V18.4912H80.0086L74.7451 31.7223H68.1551L62.8916 18.4912H62.806V38.3379H55.5312Z" fill="black"/>
<path d="M93.1837 38.3379V7.18072H115.179V13.1134H100.458V19.3448H114.323V25.1067H100.458V32.4052H115.179V38.3379H93.1837Z" fill="black"/>
<path d="M120.472 38.3379V7.18072H130.4C135.165 7.18072 138.716 8.09124 141.056 9.9123C143.423 11.7334 144.607 14.4934 144.607 18.1924C144.607 21.7776 143.495 24.5092 141.27 26.3872C139.044 28.2367 135.778 29.1614 131.47 29.1614H124.11V23.1861H130.571C132.854 23.1861 134.523 22.7877 135.578 21.991C136.634 21.1943 137.161 19.9281 137.161 18.1924C137.161 16.4567 136.634 15.1905 135.578 14.3938C134.523 13.5686 132.854 13.1561 130.571 13.1561H127.747V38.3379H120.472Z" fill="black"/>
<path d="M158.33 38.7647C156.105 38.7647 153.951 38.537 151.868 38.0818C149.814 37.5981 148.088 36.9578 146.69 36.1611L148.316 29.887C149.286 30.3992 150.385 30.8687 151.611 31.2955C152.838 31.7223 154.079 32.0638 155.334 32.3198C156.59 32.5475 157.745 32.6613 158.801 32.6613C160.37 32.6613 161.568 32.391 162.395 31.8503C163.251 31.3097 163.679 30.5415 163.679 29.5456C163.679 29.0334 163.55 28.5924 163.294 28.2225C163.037 27.8241 162.623 27.4684 162.053 27.1554C161.511 26.8424 160.769 26.5294 159.828 26.2165C158.915 25.9035 157.802 25.562 156.49 25.1921C154.892 24.7653 153.48 24.2674 152.253 23.6983C151.055 23.1007 150.042 22.4178 149.215 21.6496C148.388 20.8813 147.76 19.9993 147.332 19.0034C146.933 18.0075 146.733 16.8978 146.733 15.6742C146.733 12.8004 147.831 10.5952 150.028 9.05868C152.253 7.52216 155.42 6.75391 159.528 6.75391C161.554 6.75391 163.55 6.93886 165.519 7.30876C167.516 7.65021 169.228 8.13393 170.654 8.75991L169.071 15.034C167.616 14.3511 166.047 13.8247 164.364 13.4548C162.68 13.0565 161.04 12.8573 159.442 12.8573C157.731 12.8573 156.447 13.0992 155.591 13.5829C154.764 14.0381 154.35 14.7353 154.35 15.6742C154.35 16.1864 154.464 16.6417 154.692 17.04C154.921 17.4384 155.292 17.8083 155.805 18.1497C156.347 18.4627 157.046 18.7757 157.902 19.0887C158.758 19.4017 159.813 19.7289 161.069 20.0704C162.809 20.5826 164.307 21.1374 165.562 21.7349C166.846 22.304 167.901 22.9585 168.728 23.6983C169.584 24.4381 170.226 25.2917 170.654 26.2591C171.082 27.2266 171.296 28.322 171.296 29.5456C171.296 32.5048 170.169 34.7811 167.915 36.3745C165.662 37.968 162.466 38.7647 158.33 38.7647Z" fill="black"/>
<path d="M56.4688 53.7611V48.2628H57.5292L58.8868 51.5618H58.9004L60.258 48.2628H61.3184V53.7611H60.4741V49.7466H60.4606L59.2854 52.5937H58.5018L57.3266 49.7466H57.3131V53.7611H56.4688Z" fill="black"/>
<path d="M62.6685 53.7611V48.2628H63.5466V53.7611H62.6685Z" fill="black"/>
<path d="M64.8949 53.7611V48.2628H66.2999C67.1689 48.2628 67.8106 48.4888 68.2249 48.9407C68.6436 49.3876 68.853 50.078 68.853 51.012C68.853 51.9459 68.6436 52.6389 68.2249 53.0908C67.8106 53.5377 67.1689 53.7611 66.2999 53.7611H64.8949ZM66.3539 52.9326C66.7411 52.9326 67.0541 52.8673 67.2928 52.7368C67.5359 52.6062 67.7138 52.4004 67.8264 52.1192C67.9389 51.833 67.9952 51.4639 67.9952 51.012C67.9952 50.555 67.9389 50.186 67.8264 49.9048C67.7138 49.6236 67.5359 49.4177 67.2928 49.2872C67.0541 49.1566 66.7411 49.0913 66.3539 49.0913H65.7392V52.9326H66.3539Z" fill="black"/>
<path d="M69.8798 53.7611V48.2628H71.2847C72.1538 48.2628 72.7954 48.4888 73.2097 48.9407C73.6285 49.3876 73.8379 50.078 73.8379 51.012C73.8379 51.9459 73.6285 52.6389 73.2097 53.0908C72.7954 53.5377 72.1538 53.7611 71.2847 53.7611H69.8798ZM71.3387 52.9326C71.726 52.9326 72.0389 52.8673 72.2776 52.7368C72.5208 52.6062 72.6986 52.4004 72.8112 52.1192C72.9238 51.833 72.9801 51.4639 72.9801 51.012C72.9801 50.555 72.9238 50.186 72.8112 49.9048C72.6986 49.6236 72.5208 49.4177 72.2776 49.2872C72.0389 49.1566 71.726 49.0913 71.3387 49.0913H70.7241V52.9326H71.3387Z" fill="black"/>
<path d="M74.8646 53.7611V48.2628H75.7292V52.9251H78.3499V53.7611H74.8646Z" fill="black"/>
<path d="M79.3415 53.7611V48.2628H82.6377V49.0763H80.1858V50.4923H82.5026V51.2907H80.1858V52.9477H82.6377V53.7611H79.3415Z" fill="black"/>
<path d="M85.901 53.7611V48.2628H89.1972V49.0763H86.7453V50.4923H89.0621V51.2907H86.7453V52.9477H89.1972V53.7611H85.901Z" fill="black"/>
<path d="M89.9185 53.7611L91.6679 48.2628H92.8094L94.552 53.7611H93.6267L92.242 49.0612H92.2285L90.8438 53.7611H89.9185ZM90.8776 52.443V51.607H93.5997V52.443H90.8776Z" fill="black"/>
<path d="M96.9161 53.8365C96.5919 53.8365 96.2722 53.7988 95.957 53.7235C95.6463 53.6431 95.3851 53.5402 95.1735 53.4147L95.3761 52.5711C95.5292 52.6565 95.6958 52.7318 95.876 52.7971C96.0561 52.8623 96.2407 52.9125 96.4298 52.9477C96.6189 52.9828 96.7991 53.0004 96.9702 53.0004C97.2944 53.0004 97.5421 52.9376 97.7132 52.8121C97.8888 52.6816 97.9766 52.4958 97.9766 52.2548C97.9766 52.1242 97.9496 52.0137 97.8955 51.9233C97.8415 51.833 97.7604 51.7551 97.6524 51.6899C97.5488 51.6196 97.4182 51.5568 97.2606 51.5016C97.103 51.4413 96.9229 51.381 96.7203 51.3208C96.4861 51.2505 96.2745 51.1702 96.0853 51.0798C95.9007 50.9844 95.7409 50.8739 95.6058 50.7484C95.4707 50.6178 95.3671 50.4672 95.2951 50.2964C95.223 50.1207 95.187 49.9198 95.187 49.6939C95.187 49.2068 95.3514 48.8352 95.6801 48.5792C96.0088 48.3181 96.4748 48.1875 97.0782 48.1875C97.3844 48.1875 97.6861 48.2201 97.9833 48.2854C98.285 48.3457 98.5417 48.4285 98.7534 48.534L98.544 49.3775C98.3368 49.2671 98.1027 49.1817 97.8415 49.1215C97.5803 49.0562 97.3237 49.0235 97.0715 49.0235C96.7428 49.0235 96.4929 49.0813 96.3218 49.1968C96.1506 49.3123 96.0651 49.4805 96.0651 49.7014C96.0651 49.827 96.0898 49.9349 96.1394 50.0253C96.1889 50.1157 96.2632 50.1935 96.3623 50.2588C96.4613 50.3241 96.5829 50.3843 96.727 50.4396C96.8711 50.4948 97.0422 50.5525 97.2404 50.6128C97.488 50.6931 97.7109 50.781 97.909 50.8764C98.1117 50.9668 98.2828 51.0747 98.4224 51.2003C98.562 51.3258 98.6678 51.4764 98.7398 51.6522C98.8164 51.8229 98.8547 52.0263 98.8547 52.2623C98.8547 52.7594 98.6858 53.146 98.3481 53.4222C98.0104 53.6984 97.5331 53.8365 96.9161 53.8365Z" fill="black"/>
<path d="M101.044 53.7611V49.0989H99.4159V48.2628H103.55V49.0989H101.915V53.7611H101.044Z" fill="black"/>
<path d="M106.571 53.7611V48.2628H108.023C108.761 48.2628 109.308 48.416 109.664 48.7223C110.024 49.0235 110.205 49.4905 110.205 50.1232C110.205 50.7408 110.033 51.2053 109.691 51.5166C109.349 51.8229 108.833 51.9761 108.144 51.9761H106.989V51.1476H108.043C108.498 51.1476 108.829 51.0672 109.036 50.9065C109.243 50.7408 109.347 50.4797 109.347 50.1232C109.347 49.7617 109.243 49.5006 109.036 49.3399C108.829 49.1742 108.498 49.0913 108.043 49.0913H107.415V53.7611H106.571Z" fill="black"/>
<path d="M113.423 53.8365C112.905 53.8365 112.455 53.721 112.072 53.49C111.694 53.259 111.401 52.9326 111.194 52.5108C110.987 52.089 110.883 51.5894 110.883 51.012C110.883 50.4345 110.987 49.9349 111.194 49.5131C111.401 49.0913 111.694 48.7649 112.072 48.534C112.455 48.303 112.905 48.1875 113.423 48.1875C113.945 48.1875 114.395 48.303 114.774 48.534C115.152 48.7649 115.444 49.0913 115.652 49.5131C115.859 49.9349 115.962 50.4345 115.962 51.012C115.962 51.5894 115.859 52.089 115.652 52.5108C115.444 52.9326 115.152 53.259 114.774 53.49C114.395 53.721 113.945 53.8365 113.423 53.8365ZM113.423 53.0004C113.769 53.0004 114.067 52.9201 114.314 52.7594C114.566 52.5987 114.76 52.3702 114.895 52.074C115.03 51.7777 115.098 51.4237 115.098 51.012C115.098 50.6002 115.03 50.2462 114.895 49.95C114.76 49.6537 114.566 49.4253 114.314 49.2646C114.067 49.1039 113.769 49.0235 113.423 49.0235C113.071 49.0235 112.77 49.1039 112.518 49.2646C112.27 49.4253 112.079 49.6537 111.943 49.95C111.813 50.2462 111.748 50.6002 111.748 51.012C111.748 51.4237 111.813 51.7777 111.943 52.074C112.079 52.3702 112.27 52.5987 112.518 52.7594C112.77 52.9201 113.071 53.0004 113.423 53.0004Z" fill="black"/>
<path d="M117.588 53.7611L116.46 48.2628H117.324L118.114 52.5259H118.128L118.925 48.7147H119.958L120.755 52.5259H120.769L121.559 48.2628H122.424L121.296 53.7611H120.269L119.452 49.95H119.438L118.621 53.7611H117.588Z" fill="black"/>
<path d="M123.372 53.7611V48.2628H126.668V49.0763H124.216V50.4923H126.533V51.2907H124.216V52.9477H126.668V53.7611H123.372Z" fill="black"/>
<path d="M127.856 53.7611V48.2628H129.375C130.105 48.2628 130.638 48.3959 130.976 48.662C131.318 48.9281 131.49 49.3474 131.49 49.9198C131.49 50.4822 131.327 50.904 131.003 51.1852C130.679 51.4664 130.19 51.607 129.538 51.607H128.274V50.8237H129.416C129.844 50.8237 130.152 50.7559 130.341 50.6203C130.535 50.4847 130.632 50.2638 130.632 49.9575C130.632 49.6512 130.535 49.4303 130.341 49.2947C130.152 49.1591 129.844 49.0913 129.416 49.0913H128.7V53.7611H127.856ZM130.72 53.7611L128.565 51.253H129.585L131.773 53.7611H130.72Z" fill="black"/>
<path d="M136.364 53.8365C136.04 53.8365 135.72 53.7988 135.405 53.7235C135.094 53.6431 134.833 53.5402 134.622 53.4147L134.824 52.5711C134.977 52.6565 135.144 52.7318 135.324 52.7971C135.504 52.8623 135.689 52.9125 135.878 52.9477C136.067 52.9828 136.247 53.0004 136.418 53.0004C136.743 53.0004 136.99 52.9376 137.161 52.8121C137.337 52.6816 137.425 52.4958 137.425 52.2548C137.425 52.1242 137.398 52.0137 137.344 51.9233C137.29 51.833 137.209 51.7551 137.1 51.6899C136.997 51.6196 136.866 51.5568 136.709 51.5016C136.551 51.4413 136.371 51.381 136.168 51.3208C135.934 51.2505 135.723 51.1702 135.533 51.0798C135.349 50.9844 135.189 50.8739 135.054 50.7484C134.919 50.6178 134.815 50.4672 134.743 50.2964C134.671 50.1207 134.635 49.9198 134.635 49.6939C134.635 49.2068 134.799 48.8352 135.128 48.5792C135.457 48.3181 135.923 48.1875 136.526 48.1875C136.833 48.1875 137.134 48.2201 137.431 48.2854C137.733 48.3457 137.99 48.4285 138.201 48.534L137.992 49.3775C137.785 49.2671 137.551 49.1817 137.29 49.1215C137.028 49.0562 136.772 49.0235 136.52 49.0235C136.191 49.0235 135.941 49.0813 135.77 49.1968C135.599 49.3123 135.513 49.4805 135.513 49.7014C135.513 49.827 135.538 49.9349 135.587 50.0253C135.637 50.1157 135.711 50.1935 135.81 50.2588C135.909 50.3241 136.031 50.3843 136.175 50.4396C136.319 50.4948 136.49 50.5525 136.688 50.6128C136.936 50.6931 137.159 50.781 137.357 50.8764C137.56 50.9668 137.731 51.0747 137.87 51.2003C138.01 51.3258 138.116 51.4764 138.188 51.6522C138.265 51.8229 138.303 52.0263 138.303 52.2623C138.303 52.7594 138.134 53.146 137.796 53.4222C137.458 53.6984 136.981 53.8365 136.364 53.8365Z" fill="black"/>
<path d="M141.61 53.8365C141.092 53.8365 140.642 53.721 140.259 53.49C139.881 53.259 139.588 52.9326 139.381 52.5108C139.174 52.089 139.07 51.5894 139.07 51.012C139.07 50.4345 139.174 49.9349 139.381 49.5131C139.588 49.0913 139.881 48.7649 140.259 48.534C140.642 48.303 141.092 48.1875 141.61 48.1875C142.132 48.1875 142.583 48.303 142.961 48.534C143.339 48.7649 143.632 49.0913 143.839 49.5131C144.046 49.9349 144.15 50.4345 144.15 51.012C144.15 51.5894 144.046 52.089 143.839 52.5108C143.632 52.9326 143.339 53.259 142.961 53.49C142.583 53.721 142.132 53.8365 141.61 53.8365ZM141.61 53.0004C141.957 53.0004 142.254 52.9201 142.502 52.7594C142.754 52.5987 142.947 52.3702 143.083 52.074C143.218 51.7777 143.285 51.4237 143.285 51.012C143.285 50.6002 143.218 50.2462 143.083 49.95C142.947 49.6537 142.754 49.4253 142.502 49.2646C142.254 49.1039 141.957 49.0235 141.61 49.0235C141.259 49.0235 140.957 49.1039 140.705 49.2646C140.457 49.4253 140.266 49.6537 140.131 49.95C140 50.2462 139.935 50.6002 139.935 51.012C139.935 51.4237 140 51.7777 140.131 52.074C140.266 52.3702 140.457 52.5987 140.705 52.7594C140.957 52.9201 141.259 53.0004 141.61 53.0004Z" fill="black"/>
<path d="M145.17 53.7611V48.2628H146.034V52.9251H148.655V53.7611H145.17Z" fill="black"/>
<path d="M151.196 53.8365C150.547 53.8365 150.054 53.6682 149.717 53.3318C149.379 52.9954 149.21 52.5058 149.21 51.8631V48.2628H150.054V51.6899C150.054 52.1518 150.144 52.4857 150.325 52.6916C150.505 52.8975 150.795 53.0004 151.196 53.0004C151.592 53.0004 151.88 52.8975 152.06 52.6916C152.241 52.4857 152.331 52.1518 152.331 51.6899V48.2628H153.175V51.8631C153.175 52.5058 153.006 52.9954 152.668 53.3318C152.335 53.6682 151.844 53.8365 151.196 53.8365Z" fill="black"/>
<path d="M155.697 53.7611V49.0989H154.069V48.2628H158.203V49.0989H156.568V53.7611H155.697Z" fill="black"/>
<path d="M159.202 53.7611V48.2628H160.08V53.7611H159.202Z" fill="black"/>
<path d="M163.698 53.8365C163.18 53.8365 162.73 53.721 162.347 53.49C161.969 53.259 161.676 52.9326 161.469 52.5108C161.262 52.089 161.158 51.5894 161.158 51.012C161.158 50.4345 161.262 49.9349 161.469 49.5131C161.676 49.0913 161.969 48.7649 162.347 48.534C162.73 48.303 163.18 48.1875 163.698 48.1875C164.22 48.1875 164.671 48.303 165.049 48.534C165.427 48.7649 165.72 49.0913 165.927 49.5131C166.134 49.9349 166.238 50.4345 166.238 51.012C166.238 51.5894 166.134 52.089 165.927 52.5108C165.72 52.9326 165.427 53.259 165.049 53.49C164.671 53.721 164.22 53.8365 163.698 53.8365ZM163.698 53.0004C164.045 53.0004 164.342 52.9201 164.59 52.7594C164.842 52.5987 165.035 52.3702 165.17 52.074C165.305 51.7777 165.373 51.4237 165.373 51.012C165.373 50.6002 165.305 50.2462 165.17 49.95C165.035 49.6537 164.842 49.4253 164.59 49.2646C164.342 49.1039 164.045 49.0235 163.698 49.0235C163.347 49.0235 163.045 49.1039 162.793 49.2646C162.545 49.4253 162.354 49.6537 162.219 49.95C162.088 50.2462 162.023 50.6002 162.023 51.012C162.023 51.4237 162.088 51.7777 162.219 52.074C162.354 52.3702 162.545 52.5987 162.793 52.7594C163.045 52.9201 163.347 53.0004 163.698 53.0004Z" fill="black"/>
<path d="M167.258 53.7611V48.2628H168.156L170.365 52.2096H170.378V48.2628H171.216V53.7611H170.317L168.115 49.8144H168.102V53.7611H167.258Z" fill="black"/>
<path d="M174.06 53.8365C173.735 53.8365 173.416 53.7988 173.1 53.7235C172.79 53.6431 172.529 53.5402 172.317 53.4147L172.52 52.5711C172.673 52.6565 172.839 52.7318 173.019 52.7971C173.2 52.8623 173.384 52.9125 173.573 52.9477C173.762 52.9828 173.943 53.0004 174.114 53.0004C174.438 53.0004 174.686 52.9376 174.857 52.8121C175.032 52.6816 175.12 52.4958 175.12 52.2548C175.12 52.1242 175.093 52.0137 175.039 51.9233C174.985 51.833 174.904 51.7551 174.796 51.6899C174.692 51.6196 174.562 51.5568 174.404 51.5016C174.246 51.4413 174.066 51.381 173.864 51.3208C173.63 51.2505 173.418 51.1702 173.229 51.0798C173.044 50.9844 172.884 50.8739 172.749 50.7484C172.614 50.6178 172.511 50.4672 172.439 50.2964C172.367 50.1207 172.33 49.9198 172.33 49.6939C172.33 49.2068 172.495 48.8352 172.824 48.5792C173.152 48.3181 173.618 48.1875 174.222 48.1875C174.528 48.1875 174.83 48.2201 175.127 48.2854C175.429 48.3457 175.685 48.4285 175.897 48.534L175.687 49.3775C175.48 49.2671 175.246 49.1817 174.985 49.1215C174.724 49.0562 174.467 49.0235 174.215 49.0235C173.886 49.0235 173.636 49.0813 173.465 49.1968C173.294 49.3123 173.209 49.4805 173.209 49.7014C173.209 49.827 173.233 49.9349 173.283 50.0253C173.332 50.1157 173.407 50.1935 173.506 50.2588C173.605 50.3241 173.726 50.3843 173.87 50.4396C174.015 50.4948 174.186 50.5525 174.384 50.6128C174.632 50.6931 174.854 50.781 175.053 50.8764C175.255 50.9668 175.426 51.0747 175.566 51.2003C175.705 51.3258 175.811 51.4764 175.883 51.6522C175.96 51.8229 175.998 52.0263 175.998 52.2623C175.998 52.7594 175.829 53.146 175.492 53.4222C175.154 53.6984 174.677 53.8365 174.06 53.8365Z" fill="black"/>
<path d="M55.5312 43.4688H176.002V44.4102H55.5312V43.4688Z" fill="#B0001E"/>
</svg>
