<svg width="78" height="79" viewBox="0 0 78 79" fill="none" xmlns="http://www.w3.org/2000/svg">
<path d="M53.9188 24.7324C53.455 20.977 51.5533 17.6038 48.6772 15.4349C45.8007 13.2657 42.2138 12.4998 38.7895 13.3233C35.3655 14.1467 32.4186 16.484 30.6662 19.7659C29.5352 19.338 28.3268 19.2039 27.1389 19.3746C25.4688 19.6224 23.9249 20.4711 22.7569 21.7834C21.589 23.096 20.8646 24.7956 20.7017 26.6078C20.6414 27.29 20.6588 27.977 20.7533 28.6547C18.3525 29.361 16.321 31.0917 15.1259 33.449C13.9308 35.8062 13.6748 38.5876 14.4169 41.1528C15.1594 43.718 16.8359 45.847 19.0609 47.0497C19.0658 47.1163 19.071 47.1845 19.0776 47.2493V47.2497C19.1129 47.6358 19.2454 48.0042 19.4609 48.3145C19.6761 48.6253 19.9662 48.8664 20.2993 49.0118L22.9916 50.1734C23.3578 51.5965 23.8848 52.965 24.5606 54.2487L23.4164 57.1476C23.2769 57.502 23.2305 57.8908 23.2818 58.2715C23.333 58.6527 23.4802 59.011 23.7072 59.3078C24.4435 60.2498 25.2519 61.123 26.1237 61.9177C26.4002 62.1663 26.7354 62.3268 27.0911 62.3818C27.4472 62.4368 27.8106 62.384 28.1405 62.2292L30.813 60.9945L30.8126 60.9941C32.0001 61.7252 33.266 62.2955 34.5826 62.6925L35.6659 65.6114C35.7991 65.9647 36.0188 66.2725 36.3013 66.5019C36.5838 66.7309 36.9186 66.8733 37.2698 66.9136C38.4134 67.0288 39.5645 67.0288 40.7081 66.9136C41.0656 66.8755 41.4066 66.7324 41.694 66.4996C41.9817 66.2672 42.2049 65.9542 42.3395 65.5941L43.4151 62.6925C43.5501 62.6518 43.685 62.6089 43.8182 62.5648H43.8186C44.2688 62.4104 44.6134 62.016 44.7299 61.5215C44.846 61.0269 44.7177 60.5026 44.3902 60.1349L42.5404 58.137V58.1366C42.2178 57.7931 41.7571 57.6473 41.3139 57.7479C40.7371 57.8771 40.1522 57.9581 39.5638 57.9901C36.6085 58.1121 33.7188 57.0307 31.467 54.9605C29.2148 52.8903 27.7647 49.9824 27.4037 46.8119C27.0243 43.1517 28.1466 39.4953 30.4755 36.8045C32.8041 34.1143 36.1063 32.6588 39.5132 32.8215C42.9201 32.9846 46.0902 34.7493 48.1897 37.6512C50.2896 40.5535 51.1084 44.3026 50.4308 47.9122C50.3398 48.3895 50.4769 48.884 50.7949 49.229L52.6398 51.2217C52.9812 51.5746 53.467 51.7125 53.9249 51.5859C54.3825 51.4593 54.7476 51.0864 54.89 50.5997C54.9301 50.4585 54.9684 50.3172 55.0051 50.1741L57.7089 49.0029C58.036 48.8591 58.3209 48.6217 58.5333 48.3166C58.7454 48.0115 58.8772 47.6499 58.9145 47.2706C58.9462 46.953 58.9672 46.6242 58.9794 46.2679C61.5626 44.4953 63.3303 41.6247 63.8454 38.3664C64.3605 35.1078 63.5752 31.7664 61.6828 29.1684C59.7906 26.5701 56.9688 24.9587 53.9155 24.7319L53.9188 24.7324ZM57.2584 47.1039V47.1035C57.2406 47.2101 57.1733 47.2994 57.0802 47.3393L53.998 48.6716C53.7483 48.7793 53.5621 49.0106 53.4979 49.2924C53.4794 49.3752 53.4613 49.457 53.4404 49.5398L52.0988 48.09H52.0991C52.7917 44.1447 51.9279 40.0661 49.7155 36.8387C47.5034 33.6113 44.1439 31.528 40.4483 31.0921C36.7523 30.6559 33.0555 31.9065 30.2508 34.5421C27.4455 37.1776 25.7868 40.9587 25.6745 44.9728C25.5622 48.9866 27.0071 52.8687 29.66 55.6822C32.313 58.4956 35.933 59.9849 39.6468 59.7902C40.2662 59.7571 40.8828 59.6761 41.4917 59.5484L42.8333 60.9982C42.7541 61.0208 42.6756 61.0423 42.5965 61.063C42.336 61.1327 42.1222 61.3335 42.0224 61.6032L40.7934 64.9232C40.753 65.0343 40.6599 65.1131 40.55 65.1285C39.5101 65.2347 38.4627 65.2347 37.4228 65.1285C37.3241 65.1089 37.2418 65.0362 37.2045 64.9356L35.9745 61.6039C35.8751 61.3346 35.6617 61.1338 35.4012 61.0638C33.9556 60.6746 32.5721 60.0539 31.2967 59.2225C31.0659 59.0794 30.7869 59.0587 30.5399 59.1668L27.4919 60.5745C27.3959 60.6238 27.2826 60.6133 27.1961 60.5466C26.3978 59.8147 25.656 59.0139 24.9788 58.1517C24.9202 58.062 24.9094 57.9456 24.9502 57.8454L26.2583 54.5424H26.2586C26.3636 54.2768 26.3444 53.9728 26.207 53.7254C25.4367 52.3475 24.8616 50.8528 24.5014 49.2912C24.4365 49.0098 24.2506 48.7793 24.0012 48.6719L20.9281 47.3441C20.8252 47.3008 20.7523 47.1998 20.738 47.0815C20.6397 45.958 20.6397 44.8271 20.738 43.7039C20.7561 43.5973 20.8234 43.5081 20.9166 43.4681L23.9998 42.1363L23.9995 42.1359C24.2488 42.0285 24.4351 41.798 24.4996 41.5166C24.8598 39.9553 25.4346 38.461 26.2043 37.0835C26.342 36.8356 26.3612 36.5317 26.2562 36.2661L24.9529 32.9739C24.9069 32.8703 24.9167 32.7479 24.9788 32.6545C25.655 31.7908 26.3964 30.9899 27.1961 30.2596C27.2791 30.1967 27.3865 30.185 27.4793 30.2287L30.5374 31.6416V31.642C30.7833 31.7553 31.0648 31.7346 31.2939 31.5862C32.5703 30.7541 33.9549 30.133 35.4011 29.7439C35.6616 29.6739 35.875 29.4731 35.9744 29.2038L37.2035 25.8845H37.2038C37.2436 25.7726 37.337 25.6935 37.4469 25.6785C38.4872 25.5722 39.5341 25.5722 40.5741 25.6785C40.6728 25.6977 40.7554 25.7704 40.7924 25.8709L42.0255 29.2011H42.0259C42.1252 29.4704 42.3387 29.6712 42.5992 29.7409C44.0447 30.1304 45.4283 30.7512 46.7036 31.5825C46.9328 31.7328 47.2149 31.7535 47.4604 31.6382L50.5085 30.2306C50.6044 30.1809 50.7178 30.1918 50.8042 30.2585C51.6025 30.9903 52.3443 31.7912 53.0216 32.6534C53.0802 32.743 53.091 32.859 53.0502 32.9596L51.7421 36.2627H51.7417C51.6367 36.5282 51.6559 36.8322 51.7933 37.0797C52.564 38.4583 53.1388 39.9541 53.499 41.5166C53.5639 41.798 53.7498 42.0285 53.9991 42.1358L57.073 43.4633V43.4636C57.1762 43.507 57.2491 43.6079 57.2631 43.7262C57.3604 44.8498 57.3593 45.9806 57.2596 47.1038L57.2584 47.1039ZM58.9593 44.0536C58.9485 43.8833 58.9359 43.7168 58.9202 43.5567C58.885 43.1707 58.7525 42.8023 58.537 42.4915C58.3218 42.1811 58.0316 41.94 57.6986 41.7946L55.0063 40.6337C54.6401 39.2106 54.1131 37.8422 53.4373 36.5585L54.5857 33.6603H54.5853C54.7252 33.3058 54.7715 32.9171 54.7203 32.5359C54.6687 32.1551 54.5211 31.7969 54.2938 31.5005C53.5579 30.5584 52.7495 29.6853 51.8773 28.8905C51.6008 28.6423 51.266 28.4818 50.9099 28.4268C50.5538 28.3718 50.1908 28.4246 49.8609 28.579L47.1884 29.8138C46.0002 29.0823 44.7329 28.5116 43.4153 28.1146L42.332 25.1957C42.1988 24.8424 41.9791 24.5346 41.6966 24.3052C41.4141 24.0762 41.0793 23.9338 40.7281 23.8935C39.5845 23.7783 38.4334 23.7783 37.2898 23.8935C36.9323 23.9316 36.5913 24.0747 36.3039 24.3075C36.0162 24.5399 35.793 24.8529 35.6584 25.213L34.5828 28.1146C33.2652 28.5101 31.9983 29.0793 30.8097 29.8092L28.1258 28.5734C27.7976 28.4235 27.4377 28.3734 27.0848 28.4291C26.7322 28.4845 26.4005 28.6435 26.1257 28.8887C25.2528 29.6823 24.4444 30.5558 23.7093 31.4986C23.4798 31.7973 23.3316 32.1593 23.2807 32.5435C23.2298 32.9281 23.2783 33.3202 23.4209 33.6766L24.5641 36.5631H24.5645C23.8875 37.8449 23.3595 39.2122 22.992 40.6338L20.2895 41.8038C19.9624 41.9477 19.6774 42.185 19.4651 42.4901C19.253 42.7952 19.1212 43.1568 19.0839 43.5361C19.0413 43.9655 19.0173 44.4081 19.0082 44.9238C17.373 43.7483 16.2312 41.9251 15.8291 39.8481C15.4273 37.7711 15.7973 35.6068 16.86 33.8221C17.9222 32.0374 19.5917 30.7751 21.508 30.3081C22.1717 30.1435 22.594 29.4384 22.4605 28.7167C22.3398 28.0778 22.3081 27.4228 22.3663 26.7738C22.4922 25.3677 23.0537 24.0489 23.9597 23.0304C24.8658 22.012 26.0633 21.3531 27.359 21.1606C28.3923 21.0118 29.4435 21.1583 30.408 21.5851C30.9971 21.8277 31.6611 21.5617 31.9613 20.9632C33.4393 18.004 36.0228 15.8728 39.0552 15.1119C42.0875 14.3506 45.2765 15.0332 47.8111 16.9851C50.3459 18.9374 51.9822 21.9712 52.3037 25.3157C52.3741 25.9798 52.8837 26.4887 53.502 26.512C55.9976 26.6077 58.3489 27.801 60.01 29.8147C61.6714 31.8284 62.4987 34.4881 62.3002 37.1769C62.1018 39.8652 60.8948 42.3498 58.9592 44.0538L58.9593 44.0536Z" fill="#43B02A"/>
<path d="M37.1235 46.3294C36.7407 46.7368 36.121 46.7368 35.7379 46.3294L32.7419 43.1376V43.138C32.4762 42.862 32.1264 42.6972 31.7564 42.6735C31.3865 42.6497 31.0207 42.7685 30.7258 43.0078C30.4309 43.2475 30.2264 43.5922 30.1496 43.9792C30.0029 44.8445 29.9639 45.7265 30.0335 46.6025C30.2271 48.8814 31.1629 51.016 32.6779 52.6356C34.193 54.2549 36.1914 55.2571 38.3268 55.4681C39.5526 55.5872 40.788 55.4392 41.9585 55.0329L51.9864 65.7332C52.7518 66.5209 53.7668 66.9725 54.8298 66.9988C55.8927 67.0251 56.9262 66.624 57.7249 65.8749C58.5407 65.0056 58.9989 63.826 59 62.596C59.001 61.3656 58.5441 60.1853 57.7301 59.3144L47.8348 48.7605C48.6936 45.935 48.299 42.8456 46.7624 40.3686C45.2257 37.8915 42.7148 36.2968 39.9417 36.0367C39.1189 35.961 38.2899 36.0026 37.4773 36.1599C37.1153 36.2426 36.7926 36.4612 36.5683 36.7758C36.3444 37.0901 36.2331 37.4801 36.255 37.8748C36.2773 38.2692 36.4313 38.6421 36.689 38.9259L39.6802 42.1236H39.6798C40.0602 42.5325 40.0602 43.1922 39.6798 43.6007L37.1235 46.3294ZM40.8623 40.8717L38.0433 37.8574V37.8578C38.6275 37.7684 39.2193 37.7498 39.8073 37.8029C41.5519 37.9725 43.1858 38.7887 44.4251 40.1096C45.6648 41.4305 46.4315 43.173 46.5929 45.0345C46.6986 46.2668 46.532 47.5082 46.1068 48.6596C45.984 48.9883 46.0564 49.3638 46.2911 49.6143L56.5549 60.572C57.0449 61.1011 57.3237 61.8124 57.3331 62.556C57.3422 63.2999 57.0814 64.0186 56.605 64.5614C56.1234 65.0067 55.5037 65.2445 54.8667 65.2282C54.23 65.2115 53.6219 64.9425 53.1611 64.4727L42.7584 53.3764C42.5206 53.1326 42.1725 53.0562 41.8637 53.1797C39.672 54.0958 37.2034 53.8573 35.2015 52.5356C33.1997 51.214 31.8982 48.9632 31.6884 46.4613C31.639 45.8346 31.6564 45.2039 31.7406 44.5812L34.5655 47.5885V47.5881C35.061 48.1161 35.7324 48.4126 36.4325 48.4126C37.1325 48.4126 37.8039 48.1161 38.2995 47.5881L40.8577 44.8595C41.3515 44.3307 41.629 43.6146 41.629 42.8677C41.629 42.1211 41.3515 41.4051 40.8577 40.8763L40.8623 40.8717Z" fill="#43B02A"/>
</svg>
