<svg width="156" height="44" viewBox="0 0 156 44" fill="none" xmlns="http://www.w3.org/2000/svg">
<path d="M0 43.4133V0.586667H12.2251L21.394 24.5813H21.5093L30.6781 0.586667H42.9032V43.4133H33.1001V16.1333H32.9848L25.8919 34.32H17.0114L9.91849 16.1333H9.80316V43.4133H0Z" fill="white"/>
<path d="M50.739 43.4133V0.586667H80.3792V8.74133H60.5422V17.3067H79.2258V25.2267H60.5422V35.2587H80.3792V43.4133H50.739Z" fill="white"/>
<path d="M87.5121 43.4133V0.586667H100.891C107.311 0.586667 112.097 1.83822 115.249 4.34133C118.44 6.84444 120.036 10.6382 120.036 15.7227C120.036 20.6507 118.536 24.4053 115.538 26.9867C112.539 29.5289 108.137 30.8 102.332 30.8H92.4137V22.5867H101.121C104.197 22.5867 106.446 22.0391 107.868 20.944C109.291 19.8489 110.002 18.1084 110.002 15.7227C110.002 13.3369 109.291 11.5964 107.868 10.5013C106.446 9.36711 104.197 8.8 101.121 8.8H97.3153V43.4133H87.5121Z" fill="white"/>
<path d="M138.527 44C135.529 44 132.626 43.6871 129.82 43.0613C127.052 42.3964 124.726 41.5164 122.842 40.4213L125.034 31.7973C126.341 32.5013 127.821 33.1467 129.474 33.7333C131.127 34.32 132.799 34.7893 134.491 35.1413C136.182 35.4542 137.739 35.6107 139.162 35.6107C141.276 35.6107 142.891 35.2391 144.006 34.496C145.159 33.7529 145.736 32.6969 145.736 31.328C145.736 30.624 145.562 30.0178 145.217 29.5093C144.871 28.9618 144.313 28.4729 143.544 28.0427C142.814 27.6124 141.814 27.1822 140.546 26.752C139.315 26.3218 137.816 25.8524 136.048 25.344C133.895 24.7573 131.992 24.0729 130.339 23.2907C128.724 22.4693 127.359 21.5307 126.245 20.4747C125.13 19.4187 124.284 18.2062 123.707 16.8373C123.169 15.4684 122.9 13.9431 122.9 12.2613C122.9 8.31111 124.38 5.28 127.34 3.168C130.339 1.056 134.606 0 140.142 0C142.871 0 145.562 0.254222 148.215 0.762664C150.906 1.232 153.213 1.89689 155.135 2.75733L153.001 11.3813C151.041 10.4427 148.926 9.71911 146.658 9.21067C144.39 8.66311 142.179 8.38933 140.027 8.38933C137.72 8.38933 135.99 8.72178 134.837 9.38666C133.722 10.0124 133.164 10.9707 133.164 12.2613C133.164 12.9653 133.318 13.5911 133.626 14.1387C133.933 14.6862 134.433 15.1947 135.125 15.664C135.855 16.0942 136.797 16.5244 137.951 16.9547C139.104 17.3849 140.526 17.8347 142.218 18.304C144.563 19.008 146.581 19.7707 148.273 20.592C150.003 21.3742 151.425 22.2738 152.54 23.2907C153.693 24.3076 154.558 25.4809 155.135 26.8107C155.712 28.1404 156 29.6462 156 31.328C156 35.3955 154.481 38.5244 151.444 40.7147C148.407 42.9049 144.102 44 138.527 44Z" fill="white"/>
</svg>
