<svg width="436" height="20" viewBox="0 0 436 20" fill="none" xmlns="http://www.w3.org/2000/svg">
<path d="M0 19.7333V0.266667H3.86813L8.82033 11.9467H8.86961L13.8218 0.266667H17.6899V19.7333H14.6102V5.52H14.5609L10.274 15.6H7.41598L3.129 5.52H3.07972V19.7333H0Z" fill="white"/>
<path d="M22.6146 19.7333V0.266667H25.8175V19.7333H22.6146Z" fill="white"/>
<path d="M30.7356 19.7333V0.266667H35.8603C39.0304 0.266667 41.371 1.06667 42.8821 2.66667C44.4096 4.24889 45.1734 6.69333 45.1734 10C45.1734 13.3067 44.4096 15.76 42.8821 17.36C41.371 18.9422 39.0304 19.7333 35.8603 19.7333H30.7356ZM36.0574 16.8C37.47 16.8 38.6115 16.5689 39.4821 16.1067C40.369 15.6444 41.0178 14.9156 41.4285 13.92C41.8391 12.9067 42.0444 11.6 42.0444 10C42.0444 8.38222 41.8391 7.07556 41.4285 6.08C41.0178 5.08444 40.369 4.35555 39.4821 3.89333C38.6115 3.43111 37.47 3.2 36.0574 3.2H33.8154V16.8H36.0574Z" fill="white"/>
<path d="M48.9185 19.7333V0.266667H54.0432C57.2133 0.266667 59.5538 1.06667 61.065 2.66667C62.5925 4.24889 63.3563 6.69333 63.3563 10C63.3563 13.3067 62.5925 15.76 61.065 17.36C59.5538 18.9422 57.2133 19.7333 54.0432 19.7333H48.9185ZM54.2403 16.8C55.6529 16.8 56.7944 16.5689 57.6649 16.1067C58.5519 15.6444 59.2007 14.9156 59.6113 13.92C60.022 12.9067 60.2273 11.6 60.2273 10C60.2273 8.38222 60.022 7.07556 59.6113 6.08C59.2007 5.08444 58.5519 4.35555 57.6649 3.89333C56.7944 3.43111 55.6529 3.2 54.2403 3.2H51.9983V16.8H54.2403Z" fill="white"/>
<path d="M67.1014 19.7333V0.266667H70.2551V16.7733H79.8145V19.7333H67.1014Z" fill="white"/>
<path d="M83.4316 19.7333V0.266667H95.4549V3.14667H86.5114V8.16H94.9621V10.9867H86.5114V16.8533H95.4549V19.7333H83.4316Z" fill="white"/>
<path d="M107.358 19.7333V0.266667H119.381V3.14667H110.438V8.16H118.889V10.9867H110.438V16.8533H119.381V19.7333H107.358Z" fill="white"/>
<path d="M122.013 19.7333L128.394 0.266667H132.557L138.914 19.7333H135.539L130.488 3.09333H130.439L125.388 19.7333H122.013ZM125.511 15.0667V12.1067H135.44V15.0667H125.511Z" fill="white"/>
<path d="M147.537 20C146.355 20 145.189 19.8667 144.039 19.6C142.906 19.3156 141.953 18.9511 141.181 18.5067L141.92 15.52C142.478 15.8222 143.086 16.0889 143.743 16.32C144.4 16.5511 145.074 16.7289 145.764 16.8533C146.453 16.9778 147.11 17.04 147.735 17.04C148.917 17.04 149.821 16.8178 150.445 16.3733C151.085 15.9111 151.406 15.2533 151.406 14.4C151.406 13.9378 151.307 13.5467 151.11 13.2267C150.913 12.9067 150.617 12.6311 150.223 12.4C149.845 12.1511 149.369 11.9289 148.794 11.7333C148.219 11.52 147.562 11.3067 146.823 11.0933C145.969 10.8444 145.197 10.56 144.507 10.24C143.834 9.90222 143.25 9.51111 142.758 9.06667C142.265 8.60444 141.887 8.07111 141.624 7.46667C141.362 6.84444 141.23 6.13333 141.23 5.33333C141.23 3.60889 141.83 2.29333 143.029 1.38667C144.228 0.462222 145.928 0 148.129 0C149.246 0 150.346 0.115555 151.43 0.346665C152.531 0.559999 153.467 0.853333 154.239 1.22667L153.475 4.21333C152.72 3.82222 151.865 3.52 150.913 3.30667C149.96 3.07556 149.024 2.96 148.104 2.96C146.905 2.96 145.993 3.16444 145.369 3.57333C144.745 3.98222 144.433 4.57778 144.433 5.36C144.433 5.80444 144.523 6.18667 144.704 6.50667C144.885 6.82667 145.156 7.10222 145.517 7.33333C145.879 7.56444 146.322 7.77778 146.848 7.97333C147.373 8.16889 147.997 8.37333 148.72 8.58667C149.623 8.87111 150.436 9.18222 151.159 9.52C151.898 9.84 152.523 10.2222 153.032 10.6667C153.541 11.1111 153.927 11.6444 154.19 12.2667C154.469 12.8711 154.609 13.5911 154.609 14.4267C154.609 16.1867 153.993 17.5556 152.761 18.5333C151.529 19.5111 149.788 20 147.537 20Z" fill="white"/>
<path d="M162.593 19.7333V3.22667H156.656V0.266667H171.734V3.22667H165.772V19.7333H162.593Z" fill="white"/>
<path d="M182.754 19.7333V0.266667H188.051C190.745 0.266667 192.74 0.808889 194.038 1.89333C195.352 2.96 196.009 4.61333 196.009 6.85333C196.009 9.04 195.385 10.6844 194.136 11.7867C192.888 12.8711 191.007 13.4133 188.494 13.4133H184.281V10.48H188.125C189.784 10.48 190.991 10.1956 191.747 9.62667C192.502 9.04 192.88 8.11556 192.88 6.85333C192.88 5.57333 192.502 4.64889 191.747 4.08C190.991 3.49333 189.784 3.2 188.125 3.2H185.833V19.7333H182.754Z" fill="white"/>
<path d="M207.747 20C205.858 20 204.216 19.5911 202.82 18.7733C201.44 17.9556 200.372 16.8 199.617 15.3067C198.861 13.8133 198.483 12.0444 198.483 10C198.483 7.95556 198.861 6.18667 199.617 4.69333C200.372 3.2 201.44 2.04445 202.82 1.22667C204.216 0.408889 205.858 0 207.747 0C209.653 0 211.295 0.408889 212.675 1.22667C214.054 2.04445 215.122 3.2 215.878 4.69333C216.633 6.18667 217.011 7.95556 217.011 10C217.011 12.0444 216.633 13.8133 215.878 15.3067C215.122 16.8 214.054 17.9556 212.675 18.7733C211.295 19.5911 209.653 20 207.747 20ZM207.747 17.04C209.012 17.04 210.096 16.7556 210.999 16.1867C211.919 15.6178 212.626 14.8089 213.118 13.76C213.611 12.7111 213.857 11.4578 213.857 10C213.857 8.54222 213.611 7.28889 213.118 6.24C212.626 5.19111 211.919 4.38222 210.999 3.81333C210.096 3.24445 209.012 2.96 207.747 2.96C206.466 2.96 205.366 3.24445 204.446 3.81333C203.542 4.38222 202.844 5.19111 202.352 6.24C201.875 7.28889 201.637 8.54222 201.637 10C201.637 11.4578 201.875 12.7111 202.352 13.76C202.844 14.8089 203.542 15.6178 204.446 16.1867C205.366 16.7556 206.466 17.04 207.747 17.04Z" fill="white"/>
<path d="M222.939 19.7333L218.825 0.266667H221.978L224.861 15.36H224.91L227.818 1.86667H231.587L234.494 15.36H234.544L237.426 0.266667H240.58L236.465 19.7333H232.721L229.739 6.24H229.69L226.709 19.7333H222.939Z" fill="white"/>
<path d="M244.039 19.7333V0.266667H256.062V3.14667H247.119V8.16H255.57V10.9867H247.119V16.8533H256.062V19.7333H244.039Z" fill="white"/>
<path d="M260.394 19.7333V0.266667H265.937C268.598 0.266667 270.544 0.737777 271.776 1.68C273.025 2.62222 273.649 4.10667 273.649 6.13333C273.649 8.12444 273.057 9.61778 271.875 10.6133C270.692 11.6089 268.91 12.1067 266.528 12.1067H261.921V9.33333H266.085C267.645 9.33333 268.77 9.09333 269.46 8.61333C270.167 8.13333 270.52 7.35111 270.52 6.26667C270.52 5.18222 270.167 4.4 269.46 3.92C268.77 3.44 267.645 3.2 266.085 3.2H263.473V19.7333H260.394ZM270.84 19.7333L262.981 10.8533H266.701L274.684 19.7333H270.84Z" fill="white"/>
<path d="M291.43 20C290.247 20 289.081 19.8667 287.931 19.6C286.798 19.3156 285.845 18.9511 285.073 18.5067L285.812 15.52C286.371 15.8222 286.979 16.0889 287.636 16.32C288.293 16.5511 288.966 16.7289 289.656 16.8533C290.346 16.9778 291.003 17.04 291.627 17.04C292.81 17.04 293.713 16.8178 294.337 16.3733C294.978 15.9111 295.298 15.2533 295.298 14.4C295.298 13.9378 295.199 13.5467 295.002 13.2267C294.805 12.9067 294.51 12.6311 294.115 12.4C293.738 12.1511 293.261 11.9289 292.686 11.7333C292.112 11.52 291.454 11.3067 290.715 11.0933C289.861 10.8444 289.089 10.56 288.399 10.24C287.726 9.90222 287.143 9.51111 286.65 9.06667C286.157 8.60444 285.78 8.07111 285.517 7.46667C285.254 6.84444 285.123 6.13333 285.123 5.33333C285.123 3.60889 285.722 2.29333 286.921 1.38667C288.12 0.462222 289.82 0 292.021 0C293.138 0 294.239 0.115555 295.323 0.346665C296.423 0.559999 297.359 0.853333 298.131 1.22667L297.368 4.21333C296.612 3.82222 295.758 3.52 294.805 3.30667C293.853 3.07556 292.916 2.96 291.997 2.96C290.798 2.96 289.886 3.16444 289.262 3.57333C288.638 3.98222 288.326 4.57778 288.326 5.36C288.326 5.80444 288.416 6.18667 288.597 6.50667C288.777 6.82667 289.048 7.10222 289.41 7.33333C289.771 7.56444 290.214 7.77778 290.74 7.97333C291.266 8.16889 291.89 8.37333 292.612 8.58667C293.516 8.87111 294.329 9.18222 295.052 9.52C295.791 9.84 296.415 10.2222 296.924 10.6667C297.433 11.1111 297.819 11.6444 298.082 12.2667C298.361 12.8711 298.501 13.5911 298.501 14.4267C298.501 16.1867 297.885 17.5556 296.653 18.5333C295.421 19.5111 293.68 20 291.43 20Z" fill="white"/>
<path d="M310.565 20C308.676 20 307.033 19.5911 305.637 18.7733C304.258 17.9556 303.19 16.8 302.434 15.3067C301.679 13.8133 301.301 12.0444 301.301 10C301.301 7.95556 301.679 6.18667 302.434 4.69333C303.19 3.2 304.258 2.04445 305.637 1.22667C307.033 0.408889 308.676 0 310.565 0C312.47 0 314.113 0.408889 315.492 1.22667C316.872 2.04445 317.94 3.2 318.695 4.69333C319.451 6.18667 319.829 7.95556 319.829 10C319.829 12.0444 319.451 13.8133 318.695 15.3067C317.94 16.8 316.872 17.9556 315.492 18.7733C314.113 19.5911 312.47 20 310.565 20ZM310.565 17.04C311.829 17.04 312.914 16.7556 313.817 16.1867C314.737 15.6178 315.443 14.8089 315.936 13.76C316.429 12.7111 316.675 11.4578 316.675 10C316.675 8.54222 316.429 7.28889 315.936 6.24C315.443 5.19111 314.737 4.38222 313.817 3.81333C312.914 3.24445 311.829 2.96 310.565 2.96C309.284 2.96 308.183 3.24445 307.263 3.81333C306.36 4.38222 305.662 5.19111 305.169 6.24C304.693 7.28889 304.455 8.54222 304.455 10C304.455 11.4578 304.693 12.7111 305.169 13.76C305.662 14.8089 306.36 15.6178 307.263 16.1867C308.183 16.7556 309.284 17.04 310.565 17.04Z" fill="white"/>
<path d="M323.549 19.7333V0.266667H326.703V16.7733H336.262V19.7333H323.549Z" fill="white"/>
<path d="M345.53 20C343.165 20 341.366 19.4044 340.135 18.2133C338.903 17.0222 338.287 15.2889 338.287 13.0133V0.266667H341.366V12.4C341.366 14.0356 341.695 15.2178 342.352 15.9467C343.009 16.6756 344.068 17.04 345.53 17.04C346.976 17.04 348.027 16.6756 348.684 15.9467C349.341 15.2178 349.669 14.0356 349.669 12.4V0.266667H352.749V13.0133C352.749 15.2889 352.133 17.0222 350.901 18.2133C349.686 19.4044 347.895 20 345.53 20Z" fill="white"/>
<path d="M361.949 19.7333V3.22667H356.011V0.266667H371.089V3.22667H365.127V19.7333H361.949Z" fill="white"/>
<path d="M374.734 19.7333V0.266667H377.937V19.7333H374.734Z" fill="white"/>
<path d="M391.133 20C389.244 20 387.602 19.5911 386.206 18.7733C384.826 17.9556 383.758 16.8 383.003 15.3067C382.247 13.8133 381.869 12.0444 381.869 10C381.869 7.95556 382.247 6.18667 383.003 4.69333C383.758 3.2 384.826 2.04445 386.206 1.22667C387.602 0.408889 389.244 0 391.133 0C393.039 0 394.681 0.408889 396.061 1.22667C397.441 2.04445 398.508 3.2 399.264 4.69333C400.019 6.18667 400.397 7.95556 400.397 10C400.397 12.0444 400.019 13.8133 399.264 15.3067C398.508 16.8 397.441 17.9556 396.061 18.7733C394.681 19.5911 393.039 20 391.133 20ZM391.133 17.04C392.398 17.04 393.482 16.7556 394.385 16.1867C395.305 15.6178 396.012 14.8089 396.504 13.76C396.997 12.7111 397.243 11.4578 397.243 10C397.243 8.54222 396.997 7.28889 396.504 6.24C396.012 5.19111 395.305 4.38222 394.385 3.81333C393.482 3.24445 392.398 2.96 391.133 2.96C389.852 2.96 388.752 3.24445 387.832 3.81333C386.928 4.38222 386.23 5.19111 385.738 6.24C385.261 7.28889 385.023 8.54222 385.023 10C385.023 11.4578 385.261 12.7111 385.738 13.76C386.23 14.8089 386.928 15.6178 387.832 16.1867C388.752 16.7556 389.852 17.04 391.133 17.04Z" fill="white"/>
<path d="M404.118 19.7333V0.266667H407.394L415.451 14.24H415.5V0.266667H418.555V19.7333H415.278L407.247 5.76H407.197V19.7333H404.118Z" fill="white"/>
<path d="M428.929 20C427.746 20 426.58 19.8667 425.43 19.6C424.297 19.3156 423.344 18.9511 422.572 18.5067L423.312 15.52C423.87 15.8222 424.478 16.0889 425.135 16.32C425.792 16.5511 426.465 16.7289 427.155 16.8533C427.845 16.9778 428.502 17.04 429.126 17.04C430.309 17.04 431.212 16.8178 431.836 16.3733C432.477 15.9111 432.797 15.2533 432.797 14.4C432.797 13.9378 432.699 13.5467 432.501 13.2267C432.304 12.9067 432.009 12.6311 431.614 12.4C431.237 12.1511 430.76 11.9289 430.185 11.7333C429.611 11.52 428.954 11.3067 428.214 11.0933C427.36 10.8444 426.588 10.56 425.899 10.24C425.225 9.90222 424.642 9.51111 424.149 9.06667C423.656 8.60444 423.279 8.07111 423.016 7.46667C422.753 6.84444 422.622 6.13333 422.622 5.33333C422.622 3.60889 423.221 2.29333 424.42 1.38667C425.619 0.462222 427.319 0 429.52 0C430.637 0 431.738 0.115555 432.822 0.346665C433.922 0.559999 434.858 0.853333 435.63 1.22667L434.867 4.21333C434.111 3.82222 433.257 3.52 432.304 3.30667C431.352 3.07556 430.415 2.96 429.496 2.96C428.297 2.96 427.385 3.16444 426.761 3.57333C426.137 3.98222 425.825 4.57778 425.825 5.36C425.825 5.80444 425.915 6.18667 426.096 6.50667C426.276 6.82667 426.547 7.10222 426.909 7.33333C427.27 7.56444 427.714 7.77778 428.239 7.97333C428.765 8.16889 429.389 8.37333 430.112 8.58667C431.015 8.87111 431.828 9.18222 432.551 9.52C433.29 9.84 433.914 10.2222 434.423 10.6667C434.932 11.1111 435.318 11.6444 435.581 12.2667C435.86 12.8711 436 13.5911 436 14.4267C436 16.1867 435.384 17.5556 434.152 18.5333C432.92 19.5111 431.179 20 428.929 20Z" fill="white"/>
</svg>
