<svg width="80" height="80" viewBox="0 0 80 80" fill="none" xmlns="http://www.w3.org/2000/svg">
<path d="M54.5217 39.0732H56.7657C57.2779 39.0732 57.6969 38.6541 57.6969 38.142V32.5549C57.6969 32.0427 57.2779 31.6237 56.7657 31.6237H54.5217C54.0187 29.0539 53.004 26.5953 51.542 24.4257L53.125 22.8427C53.3021 22.6656 53.3952 22.4328 53.3952 22.1818C53.3952 21.9302 53.2929 21.6975 53.125 21.5208L49.1765 17.5724C48.8132 17.209 48.2266 17.209 47.8637 17.5724L46.2807 19.1554C44.1015 17.6934 41.6431 16.6691 39.0732 16.1752V13.9312C39.0732 13.419 38.6541 13 38.142 13H32.5549C32.0428 13 31.6237 13.419 31.6237 13.9312V16.1752C29.0539 16.6782 26.5953 17.6929 24.4257 19.1549L22.8427 17.5719C22.4794 17.2086 21.8929 17.2086 21.5299 17.5719L17.5815 21.5204C17.4044 21.6975 17.3113 21.9302 17.3113 22.1813C17.3113 22.4328 17.4136 22.6656 17.5815 22.8423L19.1645 24.4253C17.6934 26.5953 16.6691 29.0538 16.1752 31.6237H13.9312C13.419 31.6237 13 32.0427 13 32.5549V38.142C13 38.6541 13.419 39.0732 13.9312 39.0732H16.1752C16.6782 41.643 17.6929 44.1015 19.1549 46.2711L17.5719 47.8541C17.3948 48.0312 17.3017 48.264 17.3017 48.5151C17.3017 48.7666 17.404 48.9994 17.5719 49.1761L21.5204 53.1245C21.8837 53.4878 22.4702 53.4878 22.8332 53.1245L24.4162 51.5415C26.5858 53.0035 29.0442 54.0278 31.6141 54.5213L31.6146 56.7657C31.6146 57.2778 32.0336 57.6969 32.5457 57.6969H38.1328C38.645 57.6969 39.064 57.2778 39.064 56.7657V54.5217C46.9416 53.0131 53.0126 46.9417 54.5216 39.0737L54.5217 39.0732ZM38.002 52.8174C37.5456 52.8922 37.2105 53.283 37.2105 53.7394V55.8346H33.4858V53.7394C33.4858 53.283 33.1508 52.8826 32.6943 52.8174C29.8729 52.3892 27.1629 51.2718 24.8724 49.577C24.4999 49.3068 23.9878 49.3442 23.6619 49.6701L22.1811 51.1508L19.5459 48.5156L21.0267 47.0349C21.3526 46.709 21.39 46.1968 21.1198 45.8244C19.4249 43.5243 18.3075 40.8239 17.8794 38.0025C17.8046 37.546 17.4138 37.2109 16.9573 37.2109H14.8621V33.4862H16.9573C17.4229 33.4862 17.8141 33.1512 17.8794 32.6947C18.3076 29.8733 19.4249 27.1633 21.1198 24.8728C21.39 24.5003 21.3526 23.9882 21.0267 23.6623L19.5459 22.1815L22.1811 19.5463L23.6619 21.0271C23.9878 21.353 24.4999 21.3904 24.8724 21.1202C27.1725 19.4253 29.8729 18.3079 32.6943 17.8798C33.1508 17.805 33.4858 17.4142 33.4858 16.9578V14.8625H37.2105V16.9578C37.2105 17.4142 37.5456 17.8145 38.002 17.8798C40.8235 18.308 43.5335 19.4253 45.824 21.1202C46.1964 21.3904 46.7086 21.353 47.0345 21.0271L48.5152 19.5463L51.1504 22.1815L49.6697 23.6623C49.3438 23.9882 49.3064 24.5003 49.5766 24.8728C51.2714 27.1729 52.3888 29.8733 52.817 32.6947C52.8822 33.1512 53.2734 33.4862 53.739 33.4862H55.8342V37.2109H53.739C53.2734 37.2109 52.8822 37.546 52.817 38.0025C51.6717 45.5825 45.5821 51.6722 38.0022 52.8173L38.002 52.8174Z" fill="#43B02A"/>
<path d="M26.9175 37.1492C27.2713 37.1492 27.5881 36.9539 27.7464 36.6371L28.6032 34.9235L31.6205 43.9651C31.7506 44.3471 32.1043 44.5986 32.5047 44.5986H32.5699C32.9981 44.5708 33.3427 44.254 33.4171 43.835L36.3038 27.9772L38.1105 36.4135C38.2036 36.8421 38.5852 37.1493 39.023 37.1493H47.4036C47.9157 37.1493 48.3348 36.7303 48.3348 36.2181C48.3348 35.706 47.9157 35.287 47.4036 35.287H39.7771L37.1419 22.9858C37.0488 22.5481 36.6297 22.25 36.2198 22.25C35.7729 22.2591 35.4005 22.5759 35.3165 23.0137L32.2436 39.9239L29.6642 32.1951C29.5432 31.8413 29.2264 31.5898 28.8448 31.562C28.4536 31.5341 28.109 31.7391 27.9415 32.0741L26.3402 35.2868H23.1929C22.6808 35.2868 22.2617 35.7058 22.2617 36.2179C22.2617 36.7301 22.6808 37.1491 23.1929 37.1491L26.9175 37.1492Z" fill="#43B02A"/>
<path d="M65.5755 58.6639L55.3325 48.4209C54.9692 48.0576 54.3827 48.0576 54.0197 48.4209L48.4327 54.008C48.0693 54.3714 48.0693 54.9579 48.4327 55.3208L58.6756 65.5638C59.5977 66.4859 60.8265 66.998 62.1302 66.998C63.4338 66.998 64.6631 66.4859 65.5847 65.5638C67.4845 63.6644 67.4845 60.5637 65.5755 58.6639H65.5755ZM64.2627 64.251C63.1174 65.3872 61.1342 65.3872 59.9885 64.251L50.4069 54.669L54.6811 50.3947L64.2632 59.9767C65.4359 61.1594 65.4359 63.0779 64.2627 64.251H64.2627Z" fill="#43B02A"/>
</svg>
