<svg width="78" height="83" viewBox="0 0 78 83" fill="none" xmlns="http://www.w3.org/2000/svg">
<path d="M39.5001 15C37.4286 15 35.7015 16.4813 35.0423 18.5335H30.485V20.8889H22V68H57V20.8889H48.515V18.5335H43.9577C43.2985 16.4817 41.571 15 39.4999 15H39.5001ZM39.5001 16.1777C41.6211 16.1777 43.2121 18.533 43.2121 19.7112H47.4546V24.4224H31.5455V19.7112H35.7881C35.7881 18.5335 37.3791 16.1777 39.5001 16.1777ZM23.0607 22.0666H30.4848V25.6001H48.5151V22.0666H55.9391V66.8221H23.0603V22.0666H23.0607ZM44.9357 27.9925L37.8431 37.0098L33.982 33.7893L33.3524 34.728L37.9926 38.5926C40.5672 35.3121 43.1514 32.0402 45.7319 28.7656L44.9366 27.9925L44.9357 27.9925ZM28.894 44.4446V45.6222H50.1062V44.4446H28.894ZM28.894 53.867V55.0447H50.1062V53.867H28.894ZM28.894 63.2894V64.4671H50.1062V63.2894H28.894Z" fill="#43B02A" stroke="#43B02A"/>
</svg>
