<svg width="81" height="80" viewBox="0 0 81 80" fill="none" xmlns="http://www.w3.org/2000/svg">
<path d="M69.9159 35.6673H64.7117V28.4206C64.7117 26.9677 63.4938 25.7844 61.9962 25.7844H39.8211V17.4396C39.8211 17.2447 39.6885 17.0725 39.4953 17.018C39.3015 16.9622 39.095 17.0394 38.9871 17.2037L33.361 25.785L12.2155 25.7844C10.7185 25.7844 9.5 26.9671 9.5 28.4206V52.5789C9.5 54.0318 10.7179 55.2151 12.2155 55.2151H30.8688L28.7461 63.454C28.6937 63.6575 28.7973 63.8689 28.9936 63.9583C29.0548 63.9865 29.1205 64 29.1855 64C29.3257 64 29.4633 63.9357 29.5504 63.8199L36.0294 55.2151H61.9962C63.4932 55.2151 64.7117 54.0324 64.7117 52.5789V45.3322H69.9159C70.7891 45.3322 71.5 44.6416 71.5 43.7941V37.2055C71.5 36.358 70.789 35.6673 69.9159 35.6673ZM12.2153 54.335C11.2172 54.335 10.4053 53.547 10.4053 52.5789V28.4206C10.4053 27.4524 11.2172 26.6644 12.2153 26.6644H32.7839L23.1469 41.3625C23.0579 41.4973 23.0522 41.6695 23.1318 41.8099C23.2113 41.9502 23.3635 42.0384 23.5283 42.0384H34.2625L31.0949 54.3364L12.2153 54.335ZM35.2826 41.7037C35.3161 41.5732 35.2858 41.4335 35.2005 41.3275C35.114 41.2215 34.9821 41.1577 34.8432 41.1577H24.3533L38.9162 18.9478V35.0084C38.9162 35.2504 39.1188 35.4484 39.3689 35.4484H49.7918L30.1866 61.4859L35.2826 41.7037ZM63.8064 52.5787C63.8064 53.5469 62.9945 54.3349 61.9964 54.3349H36.6922L51.0478 35.2687C51.1482 35.1345 51.1633 34.958 51.0857 34.8109C51.0087 34.6626 50.8527 34.5695 50.6822 34.5695H39.8211V26.6639L61.9962 26.6646C62.9944 26.6646 63.8063 27.4526 63.8063 28.4207L63.8064 52.5787ZM70.5947 43.7939C70.5947 44.1573 70.2904 44.452 69.916 44.452H64.7118V36.5465L69.916 36.5471C70.2904 36.5471 70.5947 36.8418 70.5947 37.2052V43.7939Z" fill="#43B02A" stroke="#43B02A" stroke-width="1.5"/>
</svg>
