<svg width="81" height="80" viewBox="0 0 81 80" fill="none" xmlns="http://www.w3.org/2000/svg">
<path d="M63.9843 48.1304H60.8004C59.6814 44.9779 56.677 42.7109 53.1454 42.7109C50.8785 42.7109 48.8687 43.6456 47.305 45.4207H33.6955C32.133 43.6457 30.1225 42.7109 27.8551 42.7109C24.3236 42.7109 21.3191 44.9779 20.2002 48.1304H17.0162C14.5258 48.1304 12.5 50.1562 12.5 52.6466V65.292C12.5 66.0888 12.8496 66.842 13.4593 67.3586C13.9524 67.7767 14.573 68.0009 15.2133 68.0009C15.3625 68.0009 15.5133 67.9884 15.6633 67.9638C16.9493 67.7525 17.9194 66.5594 17.9194 65.19V53.5501H20.2001C21.3191 56.7025 24.3235 58.9695 27.855 58.9695C30.122 58.9695 32.1318 58.0348 33.6954 56.2598H47.305C48.8675 58.0348 50.878 58.9695 53.1454 58.9695C56.6769 58.9695 59.6813 56.7025 60.8003 53.5501H63.081V65.19C63.081 66.5602 64.0512 67.7525 65.3375 67.9638C65.4875 67.988 65.6383 68.0009 65.7875 68.0009C66.4278 68.0009 67.0493 67.7767 67.5415 67.3586C68.1508 66.842 68.5004 66.0888 68.5004 65.292V52.6466C68.5004 50.1562 66.4746 48.1304 63.9842 48.1304H63.9843ZM34.1774 47.2271H35.9839V54.4531H34.1774V47.2271ZM37.7903 47.2271H39.5968V54.4531H37.7903V47.2271ZM41.4033 47.2271H43.2098V54.4531H41.4033V47.2271ZM45.0163 47.2271H46.8228V54.4531H45.0163V47.2271ZM17.919 51.7433C16.9227 51.7433 16.1126 52.5534 16.1126 53.5498V65.1898C16.1126 65.6777 15.7855 66.1128 15.3682 66.1825C15.0936 66.2269 14.8327 66.1563 14.6266 65.9809C14.4226 65.8075 14.3061 65.5575 14.3061 65.2918V52.6464C14.3061 51.1524 15.5218 49.9367 17.0158 49.9367H19.7788C19.7453 50.2339 19.7256 50.5347 19.7256 50.8399C19.7256 51.1452 19.7453 51.446 19.7788 51.7432L17.919 51.7433ZM27.8547 57.1628C24.3691 57.1628 21.532 54.3257 21.532 50.8401C21.532 47.3545 24.3691 44.5174 27.8547 44.5174C29.6261 44.5174 31.1415 45.2453 32.3709 46.6642V55.0156C31.1415 56.4349 29.6261 57.1628 27.8547 57.1628ZM53.1454 57.1628C51.3741 57.1628 49.8587 56.435 48.6292 55.016V46.6647C49.8587 45.2453 51.3741 44.5174 53.1454 44.5174C56.631 44.5174 59.4681 47.3545 59.4681 50.8401C59.4681 54.3257 56.631 57.1628 53.1454 57.1628ZM66.6941 65.292C66.6941 65.5577 66.5775 65.8077 66.3743 65.9811C66.1674 66.1565 65.9001 66.2267 65.6328 66.1827C65.2146 66.113 64.8876 65.6775 64.8876 65.19V53.55C64.8876 52.5536 64.0775 51.7435 63.0811 51.7435H61.2213C61.2548 51.4463 61.2746 51.1455 61.2746 50.8403C61.2746 50.535 61.2548 50.2342 61.2213 49.937H63.9843C65.4783 49.937 66.6941 51.1528 66.6941 52.6468L66.6941 65.292Z" fill="#4BB134"/>
<path d="M63.9843 17.4194H60.8004C59.6814 14.267 56.677 12 53.1454 12C50.8785 12 48.8687 12.9347 47.305 14.7097H33.6955C32.1318 12.9347 30.1221 12 27.8551 12C24.3236 12 21.3191 14.267 20.2002 17.4194H17.0162C14.5258 17.4194 12.5 19.4453 12.5 21.9357V34.581C12.5 35.3778 12.8496 36.1311 13.4593 36.6476C13.9524 37.0658 14.573 37.29 15.2133 37.29C15.3625 37.29 15.5133 37.2775 15.6633 37.2529C16.9493 37.0416 17.9194 35.8485 17.9194 34.4791V22.8391H20.2001C21.3191 25.9916 24.3235 28.2586 27.855 28.2586C30.122 28.2586 32.1318 27.3239 33.6954 25.5489H47.305C48.8675 27.3239 50.878 28.2586 53.1454 28.2586C56.6769 28.2586 59.6813 25.9916 60.8003 22.8391H63.081V34.4791C63.081 35.8492 64.0512 37.0416 65.3375 37.2529C65.4875 37.2771 65.6383 37.29 65.7875 37.29C66.4278 37.29 67.0493 37.0658 67.5415 36.6476C68.1508 36.1311 68.5004 35.3778 68.5004 34.581V21.9357C68.5004 19.4453 66.4746 17.4194 63.9842 17.4194H63.9843ZM34.1774 16.5162H35.9839V23.7421H34.1774V16.5162ZM37.7903 16.5162H39.5968V23.7421H37.7903V16.5162ZM41.4033 16.5162H43.2098V23.7421H41.4033V16.5162ZM17.919 21.0324C16.9227 21.0324 16.1126 21.8425 16.1126 22.8389V34.4788C16.1126 34.9668 15.7855 35.4018 15.3682 35.4716C15.0936 35.5176 14.8327 35.4446 14.6266 35.27C14.4226 35.0966 14.3061 34.8466 14.3061 34.5809V21.9355C14.3061 20.4415 15.5218 19.2258 17.0158 19.2258H19.7788C19.7453 19.5229 19.7256 19.8238 19.7256 20.129C19.7256 20.4342 19.7453 20.7351 19.7788 21.0322L17.919 21.0324ZM27.8547 26.4519C24.3691 26.4519 21.532 23.6148 21.532 20.1292C21.532 16.6436 24.3691 13.8065 27.8547 13.8065C29.6261 13.8065 31.1415 14.5343 32.3709 15.9533V24.3046C31.1415 25.724 29.6261 26.4519 27.8547 26.4519ZM53.1454 26.4519C51.2793 26.4519 49.6934 25.6535 48.4304 24.08L48.1586 23.7421H45.0163V16.5162H48.1586L48.4304 16.1783C49.6933 14.6049 51.2793 13.8064 53.1454 13.8064C56.631 13.8064 59.4681 16.6435 59.4681 20.1291C59.4681 23.6147 56.631 26.4518 53.1454 26.4518V26.4519ZM66.6941 34.581C66.6941 34.8468 66.5775 35.0968 66.3743 35.2702C66.1674 35.4444 65.9001 35.5149 65.6328 35.4718C65.2146 35.402 64.8876 34.9665 64.8876 34.479V22.8391C64.8876 21.8427 64.0775 21.0326 63.0811 21.0326H61.2213C61.2548 20.7354 61.2746 20.4346 61.2746 20.1293C61.2746 19.8241 61.2548 19.5233 61.2213 19.2261H63.9843C65.4783 19.2261 66.6941 20.4418 66.6941 21.9358L66.6941 34.581Z" fill="#4BB134"/>
<path d="M53.1484 53.1394V54.9459C55.6388 54.9459 57.6646 52.9201 57.6646 50.4297H55.8582C55.8582 51.9237 54.6425 53.1394 53.1484 53.1394Z" fill="#4BB134"/>
<path d="M23.3398 50.4225H25.1463C25.1463 48.9284 26.362 47.7127 27.856 47.7127V45.9062C25.3657 45.9062 23.3398 47.9321 23.3398 50.4225Z" fill="#4BB134"/>
<path d="M25.1463 19.7188H23.3398C23.3398 22.2091 25.3657 24.235 27.856 24.235V22.4285C26.362 22.4285 25.1463 21.2128 25.1463 19.7188Z" fill="#4BB134"/>
<path d="M53.1484 15.2031V17.0096C54.6425 17.0096 55.8582 18.2253 55.8582 19.7193H57.6646C57.6646 17.229 55.6388 15.2031 53.1484 15.2031Z" fill="#4BB134"/>
</svg>
