<svg width="78" height="83" viewBox="0 0 78 83" fill="none" xmlns="http://www.w3.org/2000/svg">
<path d="M64.7255 7.26172V67.516H39.3281V7.26172H64.7255ZM59.615 12.0527L62.8205 9.28874H41.2321V65.4887H62.8205L59.615 61.619V12.0527Z" fill="#43B02A"/>
<path d="M27.3762 21.9005C29.9254 22.196 31.7673 24.6341 31.49 27.3467C31.2123 30.0593 28.9207 32.0192 26.3715 31.7238C23.8222 31.4287 21.9808 28.9902 22.2581 26.2775C22.5358 23.5649 24.827 21.6055 27.3762 21.9005Z" fill="#43B02A"/>
<path d="M33.7654 39.6129L36.5401 40.0349L38.5786 40.4566C39.3713 40.8786 39.8243 41.7822 39.7109 42.7463C39.5976 43.5298 39.145 44.1321 38.5786 44.4335L36.4828 44.5543L33.1421 44.0122C31.7829 43.7709 30.5371 42.9274 29.7444 41.7224C29.5746 41.421 29.4047 41.1798 29.2349 40.9389L26.517 50.0372L30.2543 54.0141C30.7638 54.6168 31.2169 55.3998 31.5001 56.1833L34.3874 65.1008C34.8404 66.426 34.161 67.8722 32.9153 68.3543C32.6321 68.4148 32.4058 68.4749 32.1226 68.4749C31.1035 68.4749 30.1975 67.8121 29.8578 66.7878L26.97 57.8098C26.97 57.6896 26.9132 57.6291 26.8567 57.569L20.1752 50.4592C19.2126 49.495 18.8729 48.0488 19.1561 46.6631L20.6283 39.7341C20.4584 39.8547 20.3451 39.9148 20.1752 40.0354C19.7791 40.2762 19.439 40.6377 19.2127 41.1198L17.0043 45.5787C16.6078 46.3617 15.8719 46.7837 15.1357 46.7837C14.796 46.7837 14.4563 46.7236 14.1731 46.5428C13.1541 45.9401 12.8144 44.6145 13.3239 43.5301L15.5319 39.1312C16.1548 37.9864 17.0039 36.9621 18.0799 36.2993C23.1763 33.1059 23.7992 33.1059 24.4786 33.166L27.8762 33.4068C28.9522 33.4668 29.6884 33.7682 33.199 39.2515C33.3124 39.4322 33.5391 39.5528 33.7654 39.6129Z" fill="#43B02A"/>
<path d="M13.4289 63.1791C12.9758 64.5047 13.5987 65.951 14.8445 66.4326C15.1277 66.5533 15.4109 66.6134 15.6937 66.6134C16.6562 66.6134 17.5623 65.9506 17.9585 64.9263L21.1863 55.7074L17.4489 51.7305L13.4289 63.1791Z" fill="#43B02A"/>
</svg>
