<svg width="78" height="83" viewBox="0 0 78 83" fill="none" xmlns="http://www.w3.org/2000/svg">
<path d="M34.9358 18.8644C34.5041 18.6447 33.9925 18.707 33.6182 19.0243L21.5017 29.3384H11.9726C11.2844 29.3384 10.7266 29.932 10.7266 30.6639V43.9196C10.7266 44.2712 10.8581 44.6084 11.0917 44.857C11.3253 45.1056 11.6419 45.2452 11.9726 45.2452H21.5021L33.6186 55.5592H33.6183C33.9922 55.8778 34.5045 55.9396 34.9362 55.7191C35.3679 55.4982 35.642 55.034 35.642 54.5242V20.0585V20.0589C35.642 19.5492 35.3675 19.0845 34.9358 18.864L34.9358 18.8644ZM13.2182 31.9899H20.6926V42.5949H13.2182V31.9899ZM33.1504 51.7667L23.1843 43.283L23.1839 31.3011L33.15 22.8175L33.1504 51.7667Z" fill="#43B02A"/>
<path d="M52.4101 33.9583C52.1685 33.5836 51.7685 33.3594 51.3415 33.3594C50.914 33.3594 50.5145 33.5836 50.2728 33.9583L48.3542 37.3641L46.4337 33.9583C46.2088 33.5592 45.8036 33.3147 45.3662 33.3143H45.3654H45.3658C44.9284 33.3147 44.5227 33.5588 44.2976 33.9579L42.3728 37.3685L40.4477 33.9575V33.9571C40.278 33.6552 40.0019 33.4375 39.6812 33.3521C39.3604 33.2667 39.0208 33.3208 38.7371 33.5018C38.4535 33.6833 38.2493 33.977 38.1697 34.3184C38.0898 34.6601 38.1407 35.0214 38.3116 35.3229L41.305 40.6254C41.5466 40.9997 41.9461 41.2239 42.3732 41.2234C42.8003 41.2234 43.1998 40.9993 43.4411 40.6246L45.365 37.2159L47.2859 40.6237V40.6241C47.5275 40.9993 47.9271 41.2234 48.3545 41.2234C48.7816 41.2234 49.1816 40.9993 49.4228 40.6241L51.3414 37.2184L53.2601 40.6241H53.2597C53.4291 40.9268 53.7048 41.1453 54.0259 41.2316C54.3471 41.3178 54.687 41.2645 54.9711 41.0831C55.2551 40.902 55.4597 40.6083 55.5396 40.2661C55.6195 39.9243 55.5683 39.5626 55.3974 39.2608L52.4101 33.9583Z" fill="#43B02A"/>
<path d="M41.2978 28.6929C41.5394 29.068 41.939 29.2917 42.3665 29.2917C42.7935 29.2917 43.1935 29.068 43.4351 28.6929L45.3537 25.2871L47.2739 28.6929C47.4987 29.0924 47.9039 29.3365 48.3413 29.3369H48.3421C48.7795 29.3369 49.1848 29.0928 49.41 28.6937L51.3347 25.283L53.2598 28.6941C53.6146 29.3206 54.3796 29.5232 54.9688 29.1465C55.558 28.7698 55.7492 27.956 55.3959 27.3283L52.4026 22.0258L52.4029 22.0262C52.1613 21.6515 51.7614 21.4277 51.3347 21.4277C50.9076 21.4281 50.5081 21.6519 50.2664 22.0266L48.3425 25.4353L46.4216 22.0275C46.18 21.6527 45.7804 21.429 45.3534 21.429C44.9263 21.429 44.5263 21.6527 44.2847 22.0275L42.3661 25.4332L40.4474 22.0275H40.4478C40.0941 21.3993 39.3287 21.195 38.7387 21.5718C38.1484 21.9481 37.9565 22.7623 38.3101 23.3904L41.2978 28.6929Z" fill="#43B02A"/>
<path d="M52.403 45.8893C52.1609 45.5146 51.7614 45.2908 51.3347 45.2908C50.9076 45.2912 50.5081 45.515 50.2664 45.8897L48.3425 49.2984L46.4216 45.8906C46.18 45.5158 45.7804 45.2921 45.3534 45.2921C44.9263 45.2921 44.5264 45.5158 44.2847 45.8906L42.3661 49.2963L40.4474 45.8906H40.4478C40.0941 45.2624 39.3287 45.0585 38.7387 45.4349C38.1484 45.8112 37.9565 46.6258 38.3101 47.2539L41.2974 52.5564L41.2978 52.556C41.5394 52.9311 41.939 53.1553 42.3664 53.1553C42.7935 53.1553 43.1935 52.9311 43.4351 52.556L45.3537 49.1503L47.2738 52.556C47.4987 52.9555 47.9039 53.2001 48.3413 53.2001H48.3421C48.7795 53.2001 49.1848 52.9559 49.41 52.5568L51.3347 49.1462L53.2598 52.5572C53.6146 53.1842 54.3796 53.3864 54.9688 53.0097C55.558 52.6329 55.7492 51.8192 55.3959 51.1919L52.403 45.8893Z" fill="#43B02A"/>
<path d="M58.5 7.26172C65.1218 15.9268 74.3924 39.4703 58.5 64.3242" stroke="#43B02A" stroke-width="3"/>
</svg>
