<svg width="78" height="83" viewBox="0 0 78 83" fill="none" xmlns="http://www.w3.org/2000/svg">
<path d="M55.966 15.8482C55.9276 15.8178 55.879 15.7763 55.8203 15.7285C50.9101 11.6898 44.9367 9.4666 38.9984 9.4666C33.0602 9.4666 27.0868 11.6903 22.1766 15.729C22.1174 15.7768 22.0693 15.8183 22.0309 15.8487C19.7923 17.6482 18.7645 20.3916 18.9759 24.0053C19.1974 27.7985 19.5772 30.6107 19.7409 31.7078H21.1099C20.9785 30.8515 20.5576 27.9099 20.3241 23.9198C20.1423 20.8016 20.9933 18.4626 22.8545 16.966C22.8961 16.9322 22.9493 16.8892 23.0132 16.8367C27.686 12.9933 33.3625 10.8777 38.9979 10.8777C44.6333 10.8777 50.3097 12.9943 54.9814 16.8362C55.0457 16.8883 55.098 16.9317 55.1401 16.9655C57.0022 18.4621 57.8527 20.8016 57.6705 23.9193C57.4369 27.9094 57.0165 30.8504 56.8847 31.7074H58.2537C58.4183 30.6102 58.7976 27.7988 59.0187 24.0048C59.2314 20.3911 58.2037 17.6477 55.9651 15.8482H55.966ZM49.1058 23.5753L48.9129 22.4729L48.0438 23.1305C47.9782 23.1797 41.4687 28.0275 32.0864 28.0275H22.5492V31.7063H23.9011V29.4382H32.0859C40.0505 29.4382 45.9358 26.1763 48.0197 24.8331C48.2366 25.5761 48.615 26.64 49.2343 27.7096C50.7421 30.3163 52.7943 31.7058 55.4464 31.7058V30.2955C50.2126 30.297 49.1538 23.8478 49.1052 23.5753L49.1058 23.5753ZM60.2738 32.5145L60.3436 32.046C60.5046 30.973 60.9028 28.0546 61.1308 24.1384C61.3875 19.7513 60.0846 16.3751 57.26 14.1036L57.1287 13.9969C51.8476 9.65328 45.4089 7.26172 38.9985 7.26172C32.588 7.26172 26.1491 9.65427 20.867 13.9979C20.8152 14.0409 20.7722 14.0761 20.7412 14.1017C17.9134 16.3737 16.6109 19.7513 16.8667 24.1385C17.0956 28.0518 17.492 30.9727 17.6539 32.0461L17.7237 32.5146C15.424 32.8277 13.6484 34.8767 13.6484 37.3609V49.6774C13.6484 52.3778 15.7465 54.5663 18.3352 54.5663H21.7763C22.1361 56.2959 22.8747 58.2499 24.3683 60.4239C27.8843 65.5396 29.2515 67.3054 32.0003 68.622C33.701 69.4365 35.9882 69.5117 37.8299 69.5117C38.0482 69.5117 38.2609 69.5103 38.4649 69.5088C38.6499 69.5088 38.8285 69.5083 38.9987 69.5083C39.1689 69.5083 39.347 69.5088 39.5324 69.5088C39.7359 69.5103 39.9496 69.5117 40.1675 69.5117C42.0088 69.5117 44.2968 69.4364 45.9966 68.6216C48.7458 67.3054 50.1121 65.5396 53.6286 60.4235C55.1216 58.2494 55.8603 56.2954 56.2206 54.5658H59.6617C62.2504 54.5658 64.3484 52.3773 64.3484 49.6769V37.3609C64.3484 34.8763 62.5742 32.8277 60.2736 32.5146L60.2738 32.5145ZM59.7812 24.0534C59.5559 27.9094 59.166 30.7757 59.0079 31.8294L58.9024 32.5357C56.6763 32.9154 54.9751 34.9302 54.9751 37.3608V49.1066C54.9751 49.1128 54.9747 49.1177 54.9747 49.123C54.9747 49.1857 54.9751 49.2532 54.9751 49.3189V49.6764C54.9751 49.7386 54.9816 49.7994 54.983 49.8602C54.9844 49.9036 54.9849 49.9465 54.9862 49.9909C55.0311 52.3217 55.0949 55.5148 52.3697 59.4821C48.8495 64.6045 47.7005 66.0272 45.3505 67.1538C43.7613 67.9151 41.3206 67.903 39.5399 67.8934C39.3521 67.8929 39.1713 67.892 38.9988 67.892C38.8262 67.892 38.6454 67.8934 38.4576 67.8939C36.6774 67.9035 34.2371 67.9151 32.647 67.1543C30.2969 66.0277 29.148 64.6049 25.6278 59.4826C22.9026 55.5157 22.9656 52.3222 23.0113 49.9914C23.0127 49.9692 23.0127 49.948 23.0127 49.9248C23.0173 49.8423 23.0228 49.7603 23.0228 49.6764V49.3189C23.0228 49.2532 23.0233 49.1862 23.0233 49.123C23.0233 49.1167 23.0228 49.1119 23.0228 49.1066V37.3608C23.0228 34.9301 21.3227 32.9154 19.0956 32.5357L18.9901 31.8294C18.8329 30.7752 18.4425 27.9064 18.2168 24.0535C17.9892 20.1608 19.1164 17.1889 21.5678 15.218C21.6029 15.1905 21.6492 15.1514 21.7056 15.1061C26.7495 10.9573 32.8908 8.67186 38.9987 8.67186C45.1067 8.67186 51.2477 10.9563 56.2918 15.1051L56.4329 15.2204C58.8825 17.1898 60.0091 20.1604 59.7815 24.0535L59.7812 24.0534Z" fill="#43B02A"/>
</svg>
