<svg width="80" height="80" viewBox="0 0 80 80" fill="none" xmlns="http://www.w3.org/2000/svg">
<path d="M28.9668 13.0011C28.6403 13.0647 28.3819 13.3905 28.3878 13.731V18.3599C27.0907 18.7961 25.967 19.4044 24.9367 20.0931L21.7748 16.8547C21.5114 16.588 21.0363 16.588 20.7729 16.8547L15.7856 21.9626C15.5252 22.2324 15.5252 22.719 15.7856 22.9887L19.0141 26.2953C18.8282 26.7187 18.6369 27.1392 18.4351 27.7545C18.2214 28.4071 18.0454 29.1156 17.8785 29.7844H12.7127C12.3394 29.7844 12 30.1321 12 30.5144V37.8115C12 38.1938 12.3394 38.5414 12.7127 38.5414L17.9007 38.5409C18.2203 39.8241 18.6442 41.0976 19.0363 41.9614L15.7855 45.2909C15.5251 45.5606 15.5251 46.0473 15.7855 46.317L20.7728 51.4249C21.0362 51.6916 21.5113 51.6916 21.7747 51.4249L24.9366 48.1865C25.9669 48.8752 27.0906 49.4835 28.3877 49.9197V54.5945C28.3877 54.9767 28.7271 55.3244 29.1004 55.3244H36.2471C36.6203 55.3244 36.9598 54.9767 36.9598 54.5945V49.4407C36.9653 49.0554 36.6238 48.7006 36.2471 48.7006C35.8709 48.7006 35.5295 49.0554 35.5344 49.4407L35.5349 53.8645H29.8125V49.4407C29.8155 49.1256 29.5953 48.8223 29.3006 48.7337C27.7942 48.3275 26.513 47.5401 25.2264 46.6585C24.9565 46.4778 24.5654 46.5175 24.3358 46.7496L21.2852 49.8967L17.2775 45.7921L20.3498 42.6677C20.5625 42.4443 20.6102 42.0737 20.4611 41.8014C20.2017 41.323 19.4483 39.1272 19.1252 37.6509C19.0536 37.3246 18.739 37.0727 18.4125 37.0808H13.4253V31.243H18.4125C18.739 31.2511 19.0536 30.9992 19.1252 30.6729C19.2872 29.9338 19.5327 29.0273 19.7932 28.2327C20.0536 27.4386 20.3334 26.7123 20.4611 26.4765C20.6102 26.2042 20.5625 25.8337 20.3498 25.6102L17.2775 22.4869L21.2852 18.3823L24.3358 21.5289C24.5654 21.761 24.9565 21.8012 25.2264 21.62C26.513 20.7389 27.7944 19.9509 29.3006 19.5448C29.5958 19.4562 29.8155 19.1528 29.8125 18.8383V14.4597H35.5125V18.8383C35.5125 19.1589 35.7436 19.4649 36.0468 19.5453C37.5542 19.9515 38.8364 20.7404 40.1211 21.6205C40.3949 21.8129 40.8014 21.7727 41.034 21.5294L44.0846 18.4047L48.0475 22.4869L44.9975 25.6107C44.7848 25.8342 44.737 26.2047 44.8861 26.4771C45.0119 26.7092 45.2972 27.4157 45.5541 28.2103C45.811 29.0048 46.0595 29.9317 46.2221 30.6728C46.2916 30.9914 46.5933 31.2403 46.9124 31.2429H51.8996V34.1614C51.8942 34.5468 52.2356 34.9015 52.6123 34.9015C52.9885 34.9015 53.33 34.5468 53.325 34.1614V30.5129C53.325 30.1306 52.9856 29.783 52.6123 29.783L47.469 29.784C47.3035 29.1162 47.123 28.4061 46.9123 27.7541C46.7155 27.1474 46.5157 26.7396 46.3333 26.3177L49.5842 22.9883C49.8446 22.7185 49.8446 22.2319 49.5842 21.9621L44.5969 16.8543C44.332 16.5738 43.8375 16.5738 43.5726 16.8543L40.4107 20.0926C39.373 19.4014 38.2428 18.7707 36.9372 18.3365V13.7299C36.9372 13.3477 36.5978 13 36.2245 13H28.966L28.9668 13.0011ZM32.5292 26.1359C31.5114 26.1517 30.4891 26.3726 29.5011 26.82C25.5499 28.6088 23.7469 33.3542 25.4933 37.4007C27.2398 41.4474 31.8955 43.2941 35.8466 41.5054C39.7977 39.7167 41.5784 34.9484 39.8319 30.9017C38.5224 27.8665 35.5827 26.0881 32.5292 26.1359ZM32.574 27.5952C35.0729 27.552 37.4648 29.0006 38.5408 31.4948C39.976 34.8202 38.5144 38.6901 35.2675 40.1601C32.0207 41.6301 28.2421 40.1331 26.8068 36.8077C25.3715 33.4823 26.8331 29.6124 30.08 28.1424C30.8916 27.7749 31.741 27.6095 32.574 27.5952V27.5952ZM52.479 39.2709C52.1604 39.3437 51.9144 39.6659 51.9224 40.0003V43.3527C51.6321 43.5736 51.4095 43.8459 51.2097 44.0826L48.8494 41.6653C48.586 41.3986 48.1109 41.3986 47.8475 41.6653L44.2851 45.3139C44.0247 45.5836 44.0247 46.0703 44.2851 46.34L46.7343 48.8255V48.8484C46.6508 48.9817 46.5543 49.2724 46.4669 49.4867H42.6599C42.2867 49.4867 41.9472 49.8343 41.9472 50.2166V56.0539C41.9472 56.4362 42.2867 56.7838 42.6599 56.7838H46.4674C46.5534 56.994 46.6523 57.2684 46.7348 57.3997C46.7373 57.4068 46.7323 57.4191 46.7348 57.4226L44.2856 59.9081C44.0252 60.1779 44.0252 60.6645 44.2856 60.9342L47.848 64.5828C48.1114 64.8495 48.5866 64.8495 48.85 64.5828L51.2097 62.1655C51.4095 62.4017 51.6316 62.6745 51.9224 62.8954V66.2701C51.9224 66.6523 52.2618 67 52.6351 67H58.3351C58.7083 67 59.0477 66.6523 59.0477 66.2701V62.8725C59.3251 62.6597 59.5442 62.3945 59.7381 62.1655L62.0983 64.5828C62.3617 64.8495 62.8368 64.8495 63.1002 64.5828L66.6627 60.9342C66.9231 60.6644 66.9231 60.1778 66.6627 59.9081L64.2349 57.4221C64.3203 57.2877 64.4128 57.0027 64.5022 56.7838H68.2873C68.6606 56.7838 69 56.4361 69 56.0539V50.2166C69 49.8343 68.6606 49.4866 68.2873 49.4866H64.5022C64.4118 49.2632 64.3218 48.9614 64.2349 48.8254L66.6616 46.3395C66.9221 46.0697 66.9221 45.5831 66.6616 45.3133L63.0992 41.6648C62.8358 41.398 62.3607 41.398 62.0973 41.6648L59.737 44.0821C59.5437 43.853 59.324 43.5883 59.0472 43.375V40.0004C59.0472 39.6181 58.7078 39.2705 58.3345 39.2705H52.4791L52.479 39.2709ZM53.3472 40.7302H57.6224V43.6488C57.6259 43.8819 57.7456 44.1105 57.934 44.2418C58.7217 44.7767 58.7247 44.7813 59.1362 45.4731C59.3594 45.8497 59.9453 45.9215 60.2495 45.61L62.6097 43.1927L65.1478 45.838L62.81 48.2324C62.5997 48.4472 62.5431 48.804 62.6763 49.0763C62.8219 49.3751 62.9581 49.5064 63.0326 49.6235C63.1072 49.7406 63.2041 49.933 63.3442 50.4216C63.4287 50.7168 63.712 50.9393 64.0122 50.9459H67.5746V55.3244H64.0122C63.712 55.3311 63.4287 55.554 63.3442 55.8487C63.2041 56.3374 63.1072 56.5069 63.0326 56.6239C62.9581 56.7415 62.8219 56.8723 62.6763 57.1711C62.5431 57.4434 62.5997 57.7997 62.81 58.015L65.1478 60.4323L62.6097 63.0318L60.2495 60.6374C59.9453 60.3254 59.3594 60.3977 59.1362 60.7744C58.7242 61.4661 58.7217 61.4712 57.934 62.0057C57.7392 62.1411 57.6179 62.3803 57.6219 62.6216V65.5401H53.3467V62.6216C53.3457 62.3767 53.2155 62.136 53.0128 62.0057C52.225 61.4707 52.2221 61.4661 51.8105 60.7744C51.5874 60.3977 51.0014 60.3259 50.6973 60.6374L48.36 63.0318L45.7995 60.4323L48.1597 58.015C48.3699 57.8002 48.4266 57.4434 48.2934 57.1711C48.1478 56.8723 47.9897 56.741 47.9147 56.6239C47.8401 56.5069 47.7656 56.3368 47.6254 55.8487C47.5385 55.5464 47.2423 55.3214 46.9346 55.3244H43.3722V50.9459H46.9346C47.2423 50.949 47.5385 50.7235 47.6249 50.4216C47.7651 49.933 47.8396 49.7406 47.9142 49.6235C47.9887 49.5064 48.1473 49.3751 48.2929 49.0763C48.4261 48.804 48.3694 48.4477 48.1592 48.2324L45.7995 45.8151L48.36 43.2156L50.6978 45.61C51.002 45.922 51.5879 45.8497 51.8111 45.4731C52.2231 44.7813 52.2256 44.7767 53.0133 44.2418C53.2096 44.1155 53.3388 43.886 53.3473 43.6488L53.3472 40.7302ZM55.3959 48.0273C54.7483 48.0375 54.0863 48.1764 53.4586 48.4605C50.9478 49.5971 49.8106 52.6155 50.9205 55.1875C52.0302 57.7595 54.9779 58.9236 57.4887 57.787C59.9994 56.6499 61.1366 53.6319 60.0268 51.0599C59.1943 49.1313 57.338 47.9978 55.3954 48.0273L55.3959 48.0273ZM55.4182 49.4866C56.8058 49.4617 58.1368 50.2649 58.7356 51.6529C59.5338 53.5032 58.7157 55.6466 56.9096 56.4646C55.1031 57.2821 53.0103 56.4448 52.2116 54.5945C51.4128 52.7442 52.2309 50.6009 54.0376 49.7828C54.4888 49.5787 54.9555 49.4947 55.4177 49.4866L55.4182 49.4866Z" fill="#43B02A" stroke="#43B02A" stroke-width="0.7"/>
</svg>
