<svg width="80" height="80" viewBox="0 0 80 80" fill="none" xmlns="http://www.w3.org/2000/svg">
<mask id="path-1-outside-1_216_4909" maskUnits="userSpaceOnUse" x="16" y="11" width="49" height="58" fill="black">
<rect fill="white" x="16" y="11" width="49" height="58"/>
<path d="M35.7776 12C34.1555 12 32.8306 13.3361 32.8306 14.9746C32.8306 16.6129 34.1554 17.9501 35.7776 17.9501H37.5705V20.765C33.8478 21.2357 30.3953 22.5873 27.4235 24.6058L26.9609 24.1391C26.0774 23.2478 24.9171 22.7975 23.7604 22.7975C22.6036 22.7975 21.4429 23.2479 20.5595 24.1391C18.793 25.9216 18.793 28.8181 20.5595 30.6006L21.0205 31.0674C18.5026 34.8416 17.0324 39.3856 17.0312 44.2743V44.2767V44.2811L17 48.1335V48.1331C16.9992 48.2885 17.0596 48.438 17.168 48.5484C17.2761 48.6584 17.4236 48.7206 17.5774 48.7206H22.1595C22.6178 50.6705 23.3746 52.5287 24.4076 54.2403L21.1787 57.5016C21.0703 57.6108 21.0092 57.7595 21.0092 57.9145C21.0092 58.0692 21.0703 58.2179 21.1787 58.3271L26.5788 63.7802V63.7806C26.804 64.0078 27.1688 64.0078 27.3944 63.7806L30.632 60.5105C32.3227 61.56 34.1606 62.3313 36.0901 62.8016V67.4177L36.0897 67.4173C36.0901 67.7389 36.348 67.9996 36.6663 68H44.3026C44.6213 68 44.8796 67.7393 44.88 67.4173V62.7893C46.811 62.3261 48.6513 61.5612 50.3456 60.5181L53.5752 63.7806C53.8004 64.0078 54.1657 64.0078 54.3909 63.7806L59.7902 58.3275V58.3271C59.8986 58.2179 59.9598 58.0692 59.9598 57.9146C59.9598 57.7595 59.8986 57.6108 59.7902 57.5016L56.5537 54.2324C57.5926 52.5248 58.3569 50.6686 58.8223 48.7206H63.3926H63.3922C63.7089 48.7202 63.9665 48.4619 63.9688 48.1419L64 44.2991V44.2839V44.2819V44.2815C64 44.274 64 44.266 63.9996 44.258C63.9996 44.2476 63.9996 44.2373 63.9992 44.2269C63.9905 39.3573 62.5195 34.8318 60.0107 31.07L60.4725 30.6032C62.239 28.8207 62.239 25.9242 60.4725 24.1417C59.5895 23.2504 58.4284 22.8001 57.2716 22.8001C56.1148 22.8001 54.9541 23.2505 54.0711 24.1417L53.6085 24.6084C50.6375 22.59 47.1849 21.2384 43.4624 20.7676V17.9527H45.2554C46.8775 17.9527 48.2024 16.6155 48.2024 14.9772C48.2024 13.339 46.8776 12.0026 45.2554 12.0026L35.7776 12ZM35.7776 13.1671H45.2569C46.2603 13.1671 47.0491 13.9635 47.0491 14.9748C47.0491 15.986 46.2607 16.7832 45.2569 16.7832H35.7776C34.7742 16.7832 33.9846 15.986 33.9846 14.9748C33.9846 13.9631 34.7742 13.1671 35.7776 13.1671ZM38.7242 17.9502H42.3093V20.6475C41.7188 20.6005 41.1217 20.577 40.5198 20.577H40.5187H40.512C40.5108 20.577 40.5076 20.5774 40.5076 20.5774C39.9077 20.5778 39.3134 20.6009 38.725 20.6479L38.7242 17.9502ZM40.5159 21.7456H40.5167H40.5175C41.2889 21.7468 42.0595 21.7846 42.8271 21.8707L42.8267 21.8703C42.8499 21.8723 42.8732 21.8731 42.8965 21.8727C46.7139 22.2801 50.2429 23.658 53.2384 25.7562V25.7558C53.2676 25.7893 53.3007 25.8192 53.3366 25.8451C55.4502 27.349 57.2889 29.212 58.7706 31.3509L58.7709 31.3513C58.8072 31.4031 58.8522 31.4489 58.9031 31.4864C61.2872 34.9708 62.7248 39.1665 62.8387 43.6964H60.0408C59.7344 33.0833 51.1038 24.564 40.5151 24.564C29.9269 24.564 21.2953 33.0831 20.9894 43.6964H18.1924C18.3059 39.1668 19.7435 34.9716 22.1273 31.4874V31.4878C22.1786 31.4499 22.2235 31.4041 22.2602 31.3515C23.742 29.2126 25.5798 27.3496 27.6934 25.8457H27.6937C27.7289 25.8206 27.7616 25.7915 27.7904 25.7589C30.7602 23.6778 34.2549 22.3058 38.0353 21.8845C38.0933 21.8965 38.1525 21.8997 38.2112 21.8933C38.976 21.8048 39.7447 21.7558 40.5142 21.747L40.5159 21.7456ZM23.7607 23.9641C24.6232 23.9641 25.481 24.2941 26.1448 24.9638L26.4682 25.2898C24.6595 26.655 23.0523 28.2768 21.6996 30.102L21.3754 29.7752C20.0475 28.4351 20.0475 26.3038 21.3754 24.9638C22.0395 24.2934 22.8981 23.9637 23.7607 23.9637L23.7607 23.9641ZM57.2742 23.9641C58.1367 23.9641 58.9953 24.2941 59.6595 24.9638C60.9874 26.3039 60.9874 28.4352 59.6595 29.7751L59.3345 30.1028C57.9818 28.2772 56.3746 26.6554 54.5659 25.2898L54.8893 24.9637C55.5534 24.2933 56.412 23.9641 57.2746 23.9641L57.2742 23.9641ZM39.9394 25.7414V28.0576V28.0572C39.941 28.3781 40.1989 28.638 40.5168 28.638C40.8347 28.638 41.0926 28.3781 41.0942 28.0572V25.741C45.7374 25.8849 49.944 27.7634 53.101 30.7561C53.1006 30.7565 53.1002 30.7569 53.0998 30.7573L51.4765 32.3962C51.3617 32.5038 51.2955 32.6541 51.2927 32.8123C51.29 32.9706 51.3507 33.1232 51.4615 33.2352C51.5724 33.3472 51.723 33.409 51.88 33.4062C52.0366 33.4034 52.1852 33.3365 52.2921 33.2209L53.9162 31.5822C53.9166 31.5818 53.917 31.5814 53.9174 31.581C56.8833 34.767 58.7445 39.012 58.8877 43.6972H50.5284C50.5103 43.6976 50.4921 43.6992 50.4744 43.7016H50.474C50.3123 43.686 50.1514 43.7398 50.0311 43.8503C49.9104 43.9611 49.8418 44.1177 49.8418 44.2819C49.8418 49.5035 45.6631 53.7241 40.4926 53.7241C35.322 53.7241 31.1427 49.5035 31.1427 44.2819H31.1431C31.1431 44.2688 31.1427 44.2556 31.1419 44.2429C31.1269 43.9288 30.8686 43.6832 30.5574 43.6876C30.5306 43.6884 30.5037 43.6912 30.4769 43.696H22.1489C22.292 39.011 24.1532 34.7659 27.1191 31.5799V31.5802C27.1199 31.5806 27.1207 31.5814 27.1215 31.5822L28.7456 33.2209V33.2213C28.8525 33.3369 29.0012 33.4039 29.1577 33.4066C29.3143 33.4094 29.4654 33.3476 29.5762 33.2356C29.687 33.1236 29.7478 32.971 29.745 32.8127C29.7422 32.6545 29.676 32.5042 29.5612 32.3962L27.9371 30.7573H27.9367C27.9367 30.7569 27.9363 30.7569 27.9359 30.7565C31.0931 27.7638 35.2997 25.8853 39.9427 25.741L39.9394 25.7414ZM40.5089 34.3031V34.3027C40.3559 34.3047 40.2096 34.3681 40.1027 34.4793C39.9958 34.5901 39.937 34.7396 39.9394 34.8947V42.0753C38.9747 42.3355 38.2553 43.2268 38.2553 44.2798C38.2553 45.535 39.2748 46.5646 40.5167 46.5646C41.7587 46.5646 42.7785 45.535 42.7785 44.2798C42.7785 43.9115 42.6886 43.5643 42.5332 43.2546L44.7521 40.8296L44.7525 40.83C44.9091 40.6634 44.9545 40.419 44.8681 40.2066C44.7817 39.9937 44.5798 39.8522 44.3522 39.8446C44.1822 39.8395 44.019 39.9096 43.905 40.0372L41.7626 42.3777C41.5599 42.2418 41.3339 42.139 41.0941 42.0744V34.8942C41.0965 34.7364 41.0353 34.5845 40.9253 34.4733C40.8148 34.3617 40.665 34.2999 40.5088 34.3019L40.5089 34.3031ZM40.5176 43.1626C41.136 43.1626 41.6247 43.6561 41.6247 44.2806C41.6247 44.9048 41.1364 45.3987 40.5176 45.3987C39.8992 45.3987 39.4097 44.9052 39.4097 44.2806C39.4097 43.6565 39.8987 43.1626 40.5176 43.1626ZM18.183 44.8646H30.003C30.304 50.4461 34.8904 54.89 40.4903 54.89C46.0903 54.89 50.6767 50.4461 50.9776 44.8646H59.3302V44.8638C59.4252 44.8889 59.5254 44.8889 59.6205 44.8638H62.8439L62.8206 47.5531H58.4022C58.13 47.5531 57.8946 47.7448 57.8374 48.0138C57.383 50.1527 56.5453 52.1895 55.3645 54.0234H55.3641C55.2162 54.255 55.2482 54.5595 55.4418 54.7541L58.569 57.9129L53.9861 62.5421L50.8672 59.3921V59.3917C50.6751 59.1975 50.375 59.1649 50.1466 59.3135C48.3261 60.4989 46.3068 61.3376 44.1873 61.7888C43.9203 61.8458 43.7294 62.0838 43.7294 62.3596V66.8318H37.248V62.3732V62.3736C37.248 62.0985 37.0579 61.861 36.792 61.8032C34.6741 61.344 32.6568 60.4974 30.8406 59.3049V59.3052C30.6119 59.1554 30.3102 59.1881 30.1177 59.3834L26.9894 62.543L22.4073 57.9138L25.5254 54.7642L25.5258 54.7646C25.7178 54.5704 25.7498 54.2671 25.6031 54.0363C24.4293 52.198 23.5987 50.158 23.1523 48.0172C23.0955 47.7478 22.8601 47.5549 22.5872 47.5553H18.1628L18.183 44.8646ZM26.2875 46.2338L26.2879 46.233C26.1148 46.2358 25.9519 46.3171 25.8446 46.4546C25.7373 46.5917 25.6963 46.7707 25.7338 46.9417C25.9341 47.931 26.2307 48.8852 26.6117 49.794C26.9931 50.7028 27.4592 51.5669 28.0008 52.3749H28.0004C28.0852 52.506 28.2181 52.5973 28.3699 52.6284C28.5218 52.6591 28.6795 52.6272 28.8077 52.5395C28.9359 52.4518 29.0238 52.3159 29.0518 52.162C29.0798 52.0078 29.0455 51.8491 28.9564 51.7212C28.4563 50.975 28.0256 50.1778 27.6738 49.3392C27.3216 48.5005 27.0491 47.62 26.8645 46.7073C26.8125 46.4279 26.5683 46.2274 26.2871 46.2326L26.2875 46.2338ZM54.676 46.2338V46.233C54.4015 46.2366 54.1676 46.4351 54.1163 46.7077C53.9313 47.6205 53.6572 48.5009 53.3058 49.3396C52.9536 50.1782 52.5237 50.9754 52.0241 51.7216H52.0245C51.9318 51.8496 51.8947 52.0098 51.9215 52.1656C51.9488 52.3219 52.0371 52.4602 52.1669 52.5487C52.2966 52.6376 52.4563 52.6695 52.6098 52.6368C52.7628 52.6041 52.8965 52.5096 52.9797 52.3753C53.5216 51.567 53.9886 50.7032 54.3696 49.7944C54.751 48.8852 55.0468 47.9314 55.2471 46.9421C55.285 46.7683 55.2424 46.5866 55.1312 46.4483C55.0196 46.3103 54.8523 46.231 54.6761 46.2334L54.676 46.2338ZM30.2403 53.622L30.2407 53.6212C30.0056 53.6216 29.7946 53.7659 29.7063 53.9856C29.6183 54.2056 29.6708 54.4575 29.8388 54.6229C30.5199 55.3105 31.2665 55.9319 32.0679 56.478C32.8693 57.024 33.7256 57.494 34.6268 57.8783H34.6272C34.7692 57.9436 34.9309 57.948 35.0764 57.891C35.2215 57.8336 35.3379 57.7192 35.3982 57.5741C35.459 57.4286 35.4586 57.2648 35.3978 57.1197C35.3371 56.9747 35.2203 56.8607 35.0752 56.8037C34.2434 56.4485 33.4531 56.0144 32.7131 55.5102C31.9732 55.0056 31.2839 54.4321 30.6543 53.7975V53.7971C30.5455 53.6843 30.396 53.6209 30.2402 53.6213L30.2403 53.622ZM50.7222 53.622L50.7226 53.6212C50.5723 53.6256 50.4299 53.689 50.3254 53.7974C49.6963 54.4316 49.0066 55.006 48.2666 55.5102C47.5267 56.0148 46.7364 56.4488 45.9045 56.8036V56.804C45.7606 56.8622 45.6462 56.9762 45.5866 57.1209C45.5275 57.2652 45.5279 57.4278 45.5878 57.5721C45.6482 57.716 45.7629 57.8296 45.9069 57.8874C46.0508 57.9452 46.2118 57.942 46.3534 57.8786C47.2546 57.4948 48.1108 57.024 48.9122 56.4783C49.7132 55.9322 50.4594 55.3105 51.1405 54.6232C51.3113 54.4554 51.3626 54.1991 51.2699 53.9775C51.1772 53.7563 50.9599 53.6148 50.7217 53.6216L50.7222 53.622ZM43.4034 57.6068L43.4038 57.6064C43.3667 57.608 43.3304 57.6128 43.2945 57.6215C42.3894 57.8085 41.4519 57.9061 40.4907 57.9061C39.5296 57.9061 38.5916 57.8077 37.6866 57.6215C37.6491 57.6128 37.6109 57.6076 37.5726 57.6064C37.2729 57.6012 37.0189 57.8288 36.9885 58.1301C36.9581 58.4319 37.1612 58.7069 37.4559 58.7631C38.4367 58.9656 39.4523 59.0712 40.4911 59.0712C41.5299 59.0712 42.5451 58.9648 43.5256 58.7631C43.8238 58.7089 44.03 58.4315 43.9977 58.1269C43.9658 57.8228 43.7066 57.5952 43.4041 57.6056L43.4034 57.6068Z"/>
</mask>
<path d="M35.7776 12C34.1555 12 32.8306 13.3361 32.8306 14.9746C32.8306 16.6129 34.1554 17.9501 35.7776 17.9501H37.5705V20.765C33.8478 21.2357 30.3953 22.5873 27.4235 24.6058L26.9609 24.1391C26.0774 23.2478 24.9171 22.7975 23.7604 22.7975C22.6036 22.7975 21.4429 23.2479 20.5595 24.1391C18.793 25.9216 18.793 28.8181 20.5595 30.6006L21.0205 31.0674C18.5026 34.8416 17.0324 39.3856 17.0312 44.2743V44.2767V44.2811L17 48.1335V48.1331C16.9992 48.2885 17.0596 48.438 17.168 48.5484C17.2761 48.6584 17.4236 48.7206 17.5774 48.7206H22.1595C22.6178 50.6705 23.3746 52.5287 24.4076 54.2403L21.1787 57.5016C21.0703 57.6108 21.0092 57.7595 21.0092 57.9145C21.0092 58.0692 21.0703 58.2179 21.1787 58.3271L26.5788 63.7802V63.7806C26.804 64.0078 27.1688 64.0078 27.3944 63.7806L30.632 60.5105C32.3227 61.56 34.1606 62.3313 36.0901 62.8016V67.4177L36.0897 67.4173C36.0901 67.7389 36.348 67.9996 36.6663 68H44.3026C44.6213 68 44.8796 67.7393 44.88 67.4173V62.7893C46.811 62.3261 48.6513 61.5612 50.3456 60.5181L53.5752 63.7806C53.8004 64.0078 54.1657 64.0078 54.3909 63.7806L59.7902 58.3275V58.3271C59.8986 58.2179 59.9598 58.0692 59.9598 57.9146C59.9598 57.7595 59.8986 57.6108 59.7902 57.5016L56.5537 54.2324C57.5926 52.5248 58.3569 50.6686 58.8223 48.7206H63.3926H63.3922C63.7089 48.7202 63.9665 48.4619 63.9688 48.1419L64 44.2991V44.2839V44.2819V44.2815C64 44.274 64 44.266 63.9996 44.258C63.9996 44.2476 63.9996 44.2373 63.9992 44.2269C63.9905 39.3573 62.5195 34.8318 60.0107 31.07L60.4725 30.6032C62.239 28.8207 62.239 25.9242 60.4725 24.1417C59.5895 23.2504 58.4284 22.8001 57.2716 22.8001C56.1148 22.8001 54.9541 23.2505 54.0711 24.1417L53.6085 24.6084C50.6375 22.59 47.1849 21.2384 43.4624 20.7676V17.9527H45.2554C46.8775 17.9527 48.2024 16.6155 48.2024 14.9772C48.2024 13.339 46.8776 12.0026 45.2554 12.0026L35.7776 12ZM35.7776 13.1671H45.2569C46.2603 13.1671 47.0491 13.9635 47.0491 14.9748C47.0491 15.986 46.2607 16.7832 45.2569 16.7832H35.7776C34.7742 16.7832 33.9846 15.986 33.9846 14.9748C33.9846 13.9631 34.7742 13.1671 35.7776 13.1671ZM38.7242 17.9502H42.3093V20.6475C41.7188 20.6005 41.1217 20.577 40.5198 20.577H40.5187H40.512C40.5108 20.577 40.5076 20.5774 40.5076 20.5774C39.9077 20.5778 39.3134 20.6009 38.725 20.6479L38.7242 17.9502ZM40.5159 21.7456H40.5167H40.5175C41.2889 21.7468 42.0595 21.7846 42.8271 21.8707L42.8267 21.8703C42.8499 21.8723 42.8732 21.8731 42.8965 21.8727C46.7139 22.2801 50.2429 23.658 53.2384 25.7562V25.7558C53.2676 25.7893 53.3007 25.8192 53.3366 25.8451C55.4502 27.349 57.2889 29.212 58.7706 31.3509L58.7709 31.3513C58.8072 31.4031 58.8522 31.4489 58.9031 31.4864C61.2872 34.9708 62.7248 39.1665 62.8387 43.6964H60.0408C59.7344 33.0833 51.1038 24.564 40.5151 24.564C29.9269 24.564 21.2953 33.0831 20.9894 43.6964H18.1924C18.3059 39.1668 19.7435 34.9716 22.1273 31.4874V31.4878C22.1786 31.4499 22.2235 31.4041 22.2602 31.3515C23.742 29.2126 25.5798 27.3496 27.6934 25.8457H27.6937C27.7289 25.8206 27.7616 25.7915 27.7904 25.7589C30.7602 23.6778 34.2549 22.3058 38.0353 21.8845C38.0933 21.8965 38.1525 21.8997 38.2112 21.8933C38.976 21.8048 39.7447 21.7558 40.5142 21.747L40.5159 21.7456ZM23.7607 23.9641C24.6232 23.9641 25.481 24.2941 26.1448 24.9638L26.4682 25.2898C24.6595 26.655 23.0523 28.2768 21.6996 30.102L21.3754 29.7752C20.0475 28.4351 20.0475 26.3038 21.3754 24.9638C22.0395 24.2934 22.8981 23.9637 23.7607 23.9637L23.7607 23.9641ZM57.2742 23.9641C58.1367 23.9641 58.9953 24.2941 59.6595 24.9638C60.9874 26.3039 60.9874 28.4352 59.6595 29.7751L59.3345 30.1028C57.9818 28.2772 56.3746 26.6554 54.5659 25.2898L54.8893 24.9637C55.5534 24.2933 56.412 23.9641 57.2746 23.9641L57.2742 23.9641ZM39.9394 25.7414V28.0576V28.0572C39.941 28.3781 40.1989 28.638 40.5168 28.638C40.8347 28.638 41.0926 28.3781 41.0942 28.0572V25.741C45.7374 25.8849 49.944 27.7634 53.101 30.7561C53.1006 30.7565 53.1002 30.7569 53.0998 30.7573L51.4765 32.3962C51.3617 32.5038 51.2955 32.6541 51.2927 32.8123C51.29 32.9706 51.3507 33.1232 51.4615 33.2352C51.5724 33.3472 51.723 33.409 51.88 33.4062C52.0366 33.4034 52.1852 33.3365 52.2921 33.2209L53.9162 31.5822C53.9166 31.5818 53.917 31.5814 53.9174 31.581C56.8833 34.767 58.7445 39.012 58.8877 43.6972H50.5284C50.5103 43.6976 50.4921 43.6992 50.4744 43.7016H50.474C50.3123 43.686 50.1514 43.7398 50.0311 43.8503C49.9104 43.9611 49.8418 44.1177 49.8418 44.2819C49.8418 49.5035 45.6631 53.7241 40.4926 53.7241C35.322 53.7241 31.1427 49.5035 31.1427 44.2819H31.1431C31.1431 44.2688 31.1427 44.2556 31.1419 44.2429C31.1269 43.9288 30.8686 43.6832 30.5574 43.6876C30.5306 43.6884 30.5037 43.6912 30.4769 43.696H22.1489C22.292 39.011 24.1532 34.7659 27.1191 31.5799V31.5802C27.1199 31.5806 27.1207 31.5814 27.1215 31.5822L28.7456 33.2209V33.2213C28.8525 33.3369 29.0012 33.4039 29.1577 33.4066C29.3143 33.4094 29.4654 33.3476 29.5762 33.2356C29.687 33.1236 29.7478 32.971 29.745 32.8127C29.7422 32.6545 29.676 32.5042 29.5612 32.3962L27.9371 30.7573H27.9367C27.9367 30.7569 27.9363 30.7569 27.9359 30.7565C31.0931 27.7638 35.2997 25.8853 39.9427 25.741L39.9394 25.7414ZM40.5089 34.3031V34.3027C40.3559 34.3047 40.2096 34.3681 40.1027 34.4793C39.9958 34.5901 39.937 34.7396 39.9394 34.8947V42.0753C38.9747 42.3355 38.2553 43.2268 38.2553 44.2798C38.2553 45.535 39.2748 46.5646 40.5167 46.5646C41.7587 46.5646 42.7785 45.535 42.7785 44.2798C42.7785 43.9115 42.6886 43.5643 42.5332 43.2546L44.7521 40.8296L44.7525 40.83C44.9091 40.6634 44.9545 40.419 44.8681 40.2066C44.7817 39.9937 44.5798 39.8522 44.3522 39.8446C44.1822 39.8395 44.019 39.9096 43.905 40.0372L41.7626 42.3777C41.5599 42.2418 41.3339 42.139 41.0941 42.0744V34.8942C41.0965 34.7364 41.0353 34.5845 40.9253 34.4733C40.8148 34.3617 40.665 34.2999 40.5088 34.3019L40.5089 34.3031ZM40.5176 43.1626C41.136 43.1626 41.6247 43.6561 41.6247 44.2806C41.6247 44.9048 41.1364 45.3987 40.5176 45.3987C39.8992 45.3987 39.4097 44.9052 39.4097 44.2806C39.4097 43.6565 39.8987 43.1626 40.5176 43.1626ZM18.183 44.8646H30.003C30.304 50.4461 34.8904 54.89 40.4903 54.89C46.0903 54.89 50.6767 50.4461 50.9776 44.8646H59.3302V44.8638C59.4252 44.8889 59.5254 44.8889 59.6205 44.8638H62.8439L62.8206 47.5531H58.4022C58.13 47.5531 57.8946 47.7448 57.8374 48.0138C57.383 50.1527 56.5453 52.1895 55.3645 54.0234H55.3641C55.2162 54.255 55.2482 54.5595 55.4418 54.7541L58.569 57.9129L53.9861 62.5421L50.8672 59.3921V59.3917C50.6751 59.1975 50.375 59.1649 50.1466 59.3135C48.3261 60.4989 46.3068 61.3376 44.1873 61.7888C43.9203 61.8458 43.7294 62.0838 43.7294 62.3596V66.8318H37.248V62.3732V62.3736C37.248 62.0985 37.0579 61.861 36.792 61.8032C34.6741 61.344 32.6568 60.4974 30.8406 59.3049V59.3052C30.6119 59.1554 30.3102 59.1881 30.1177 59.3834L26.9894 62.543L22.4073 57.9138L25.5254 54.7642L25.5258 54.7646C25.7178 54.5704 25.7498 54.2671 25.6031 54.0363C24.4293 52.198 23.5987 50.158 23.1523 48.0172C23.0955 47.7478 22.8601 47.5549 22.5872 47.5553H18.1628L18.183 44.8646ZM26.2875 46.2338L26.2879 46.233C26.1148 46.2358 25.9519 46.3171 25.8446 46.4546C25.7373 46.5917 25.6963 46.7707 25.7338 46.9417C25.9341 47.931 26.2307 48.8852 26.6117 49.794C26.9931 50.7028 27.4592 51.5669 28.0008 52.3749H28.0004C28.0852 52.506 28.2181 52.5973 28.3699 52.6284C28.5218 52.6591 28.6795 52.6272 28.8077 52.5395C28.9359 52.4518 29.0238 52.3159 29.0518 52.162C29.0798 52.0078 29.0455 51.8491 28.9564 51.7212C28.4563 50.975 28.0256 50.1778 27.6738 49.3392C27.3216 48.5005 27.0491 47.62 26.8645 46.7073C26.8125 46.4279 26.5683 46.2274 26.2871 46.2326L26.2875 46.2338ZM54.676 46.2338V46.233C54.4015 46.2366 54.1676 46.4351 54.1163 46.7077C53.9313 47.6205 53.6572 48.5009 53.3058 49.3396C52.9536 50.1782 52.5237 50.9754 52.0241 51.7216H52.0245C51.9318 51.8496 51.8947 52.0098 51.9215 52.1656C51.9488 52.3219 52.0371 52.4602 52.1669 52.5487C52.2966 52.6376 52.4563 52.6695 52.6098 52.6368C52.7628 52.6041 52.8965 52.5096 52.9797 52.3753C53.5216 51.567 53.9886 50.7032 54.3696 49.7944C54.751 48.8852 55.0468 47.9314 55.2471 46.9421C55.285 46.7683 55.2424 46.5866 55.1312 46.4483C55.0196 46.3103 54.8523 46.231 54.6761 46.2334L54.676 46.2338ZM30.2403 53.622L30.2407 53.6212C30.0056 53.6216 29.7946 53.7659 29.7063 53.9856C29.6183 54.2056 29.6708 54.4575 29.8388 54.6229C30.5199 55.3105 31.2665 55.9319 32.0679 56.478C32.8693 57.024 33.7256 57.494 34.6268 57.8783H34.6272C34.7692 57.9436 34.9309 57.948 35.0764 57.891C35.2215 57.8336 35.3379 57.7192 35.3982 57.5741C35.459 57.4286 35.4586 57.2648 35.3978 57.1197C35.3371 56.9747 35.2203 56.8607 35.0752 56.8037C34.2434 56.4485 33.4531 56.0144 32.7131 55.5102C31.9732 55.0056 31.2839 54.4321 30.6543 53.7975V53.7971C30.5455 53.6843 30.396 53.6209 30.2402 53.6213L30.2403 53.622ZM50.7222 53.622L50.7226 53.6212C50.5723 53.6256 50.4299 53.689 50.3254 53.7974C49.6963 54.4316 49.0066 55.006 48.2666 55.5102C47.5267 56.0148 46.7364 56.4488 45.9045 56.8036V56.804C45.7606 56.8622 45.6462 56.9762 45.5866 57.1209C45.5275 57.2652 45.5279 57.4278 45.5878 57.5721C45.6482 57.716 45.7629 57.8296 45.9069 57.8874C46.0508 57.9452 46.2118 57.942 46.3534 57.8786C47.2546 57.4948 48.1108 57.024 48.9122 56.4783C49.7132 55.9322 50.4594 55.3105 51.1405 54.6232C51.3113 54.4554 51.3626 54.1991 51.2699 53.9775C51.1772 53.7563 50.9599 53.6148 50.7217 53.6216L50.7222 53.622ZM43.4034 57.6068L43.4038 57.6064C43.3667 57.608 43.3304 57.6128 43.2945 57.6215C42.3894 57.8085 41.4519 57.9061 40.4907 57.9061C39.5296 57.9061 38.5916 57.8077 37.6866 57.6215C37.6491 57.6128 37.6109 57.6076 37.5726 57.6064C37.2729 57.6012 37.0189 57.8288 36.9885 58.1301C36.9581 58.4319 37.1612 58.7069 37.4559 58.7631C38.4367 58.9656 39.4523 59.0712 40.4911 59.0712C41.5299 59.0712 42.5451 58.9648 43.5256 58.7631C43.8238 58.7089 44.03 58.4315 43.9977 58.1269C43.9658 57.8228 43.7066 57.5952 43.4041 57.6056L43.4034 57.6068Z" fill="#4BB134"/>
<path d="M35.7776 12C34.1555 12 32.8306 13.3361 32.8306 14.9746C32.8306 16.6129 34.1554 17.9501 35.7776 17.9501H37.5705V20.765C33.8478 21.2357 30.3953 22.5873 27.4235 24.6058L26.9609 24.1391C26.0774 23.2478 24.9171 22.7975 23.7604 22.7975C22.6036 22.7975 21.4429 23.2479 20.5595 24.1391C18.793 25.9216 18.793 28.8181 20.5595 30.6006L21.0205 31.0674C18.5026 34.8416 17.0324 39.3856 17.0312 44.2743V44.2767V44.2811L17 48.1335V48.1331C16.9992 48.2885 17.0596 48.438 17.168 48.5484C17.2761 48.6584 17.4236 48.7206 17.5774 48.7206H22.1595C22.6178 50.6705 23.3746 52.5287 24.4076 54.2403L21.1787 57.5016C21.0703 57.6108 21.0092 57.7595 21.0092 57.9145C21.0092 58.0692 21.0703 58.2179 21.1787 58.3271L26.5788 63.7802V63.7806C26.804 64.0078 27.1688 64.0078 27.3944 63.7806L30.632 60.5105C32.3227 61.56 34.1606 62.3313 36.0901 62.8016V67.4177L36.0897 67.4173C36.0901 67.7389 36.348 67.9996 36.6663 68H44.3026C44.6213 68 44.8796 67.7393 44.88 67.4173V62.7893C46.811 62.3261 48.6513 61.5612 50.3456 60.5181L53.5752 63.7806C53.8004 64.0078 54.1657 64.0078 54.3909 63.7806L59.7902 58.3275V58.3271C59.8986 58.2179 59.9598 58.0692 59.9598 57.9146C59.9598 57.7595 59.8986 57.6108 59.7902 57.5016L56.5537 54.2324C57.5926 52.5248 58.3569 50.6686 58.8223 48.7206H63.3926H63.3922C63.7089 48.7202 63.9665 48.4619 63.9688 48.1419L64 44.2991V44.2839V44.2819V44.2815C64 44.274 64 44.266 63.9996 44.258C63.9996 44.2476 63.9996 44.2373 63.9992 44.2269C63.9905 39.3573 62.5195 34.8318 60.0107 31.07L60.4725 30.6032C62.239 28.8207 62.239 25.9242 60.4725 24.1417C59.5895 23.2504 58.4284 22.8001 57.2716 22.8001C56.1148 22.8001 54.9541 23.2505 54.0711 24.1417L53.6085 24.6084C50.6375 22.59 47.1849 21.2384 43.4624 20.7676V17.9527H45.2554C46.8775 17.9527 48.2024 16.6155 48.2024 14.9772C48.2024 13.339 46.8776 12.0026 45.2554 12.0026L35.7776 12ZM35.7776 13.1671H45.2569C46.2603 13.1671 47.0491 13.9635 47.0491 14.9748C47.0491 15.986 46.2607 16.7832 45.2569 16.7832H35.7776C34.7742 16.7832 33.9846 15.986 33.9846 14.9748C33.9846 13.9631 34.7742 13.1671 35.7776 13.1671ZM38.7242 17.9502H42.3093V20.6475C41.7188 20.6005 41.1217 20.577 40.5198 20.577H40.5187H40.512C40.5108 20.577 40.5076 20.5774 40.5076 20.5774C39.9077 20.5778 39.3134 20.6009 38.725 20.6479L38.7242 17.9502ZM40.5159 21.7456H40.5167H40.5175C41.2889 21.7468 42.0595 21.7846 42.8271 21.8707L42.8267 21.8703C42.8499 21.8723 42.8732 21.8731 42.8965 21.8727C46.7139 22.2801 50.2429 23.658 53.2384 25.7562V25.7558C53.2676 25.7893 53.3007 25.8192 53.3366 25.8451C55.4502 27.349 57.2889 29.212 58.7706 31.3509L58.7709 31.3513C58.8072 31.4031 58.8522 31.4489 58.9031 31.4864C61.2872 34.9708 62.7248 39.1665 62.8387 43.6964H60.0408C59.7344 33.0833 51.1038 24.564 40.5151 24.564C29.9269 24.564 21.2953 33.0831 20.9894 43.6964H18.1924C18.3059 39.1668 19.7435 34.9716 22.1273 31.4874V31.4878C22.1786 31.4499 22.2235 31.4041 22.2602 31.3515C23.742 29.2126 25.5798 27.3496 27.6934 25.8457H27.6937C27.7289 25.8206 27.7616 25.7915 27.7904 25.7589C30.7602 23.6778 34.2549 22.3058 38.0353 21.8845C38.0933 21.8965 38.1525 21.8997 38.2112 21.8933C38.976 21.8048 39.7447 21.7558 40.5142 21.747L40.5159 21.7456ZM23.7607 23.9641C24.6232 23.9641 25.481 24.2941 26.1448 24.9638L26.4682 25.2898C24.6595 26.655 23.0523 28.2768 21.6996 30.102L21.3754 29.7752C20.0475 28.4351 20.0475 26.3038 21.3754 24.9638C22.0395 24.2934 22.8981 23.9637 23.7607 23.9637L23.7607 23.9641ZM57.2742 23.9641C58.1367 23.9641 58.9953 24.2941 59.6595 24.9638C60.9874 26.3039 60.9874 28.4352 59.6595 29.7751L59.3345 30.1028C57.9818 28.2772 56.3746 26.6554 54.5659 25.2898L54.8893 24.9637C55.5534 24.2933 56.412 23.9641 57.2746 23.9641L57.2742 23.9641ZM39.9394 25.7414V28.0576V28.0572C39.941 28.3781 40.1989 28.638 40.5168 28.638C40.8347 28.638 41.0926 28.3781 41.0942 28.0572V25.741C45.7374 25.8849 49.944 27.7634 53.101 30.7561C53.1006 30.7565 53.1002 30.7569 53.0998 30.7573L51.4765 32.3962C51.3617 32.5038 51.2955 32.6541 51.2927 32.8123C51.29 32.9706 51.3507 33.1232 51.4615 33.2352C51.5724 33.3472 51.723 33.409 51.88 33.4062C52.0366 33.4034 52.1852 33.3365 52.2921 33.2209L53.9162 31.5822C53.9166 31.5818 53.917 31.5814 53.9174 31.581C56.8833 34.767 58.7445 39.012 58.8877 43.6972H50.5284C50.5103 43.6976 50.4921 43.6992 50.4744 43.7016H50.474C50.3123 43.686 50.1514 43.7398 50.0311 43.8503C49.9104 43.9611 49.8418 44.1177 49.8418 44.2819C49.8418 49.5035 45.6631 53.7241 40.4926 53.7241C35.322 53.7241 31.1427 49.5035 31.1427 44.2819H31.1431C31.1431 44.2688 31.1427 44.2556 31.1419 44.2429C31.1269 43.9288 30.8686 43.6832 30.5574 43.6876C30.5306 43.6884 30.5037 43.6912 30.4769 43.696H22.1489C22.292 39.011 24.1532 34.7659 27.1191 31.5799V31.5802C27.1199 31.5806 27.1207 31.5814 27.1215 31.5822L28.7456 33.2209V33.2213C28.8525 33.3369 29.0012 33.4039 29.1577 33.4066C29.3143 33.4094 29.4654 33.3476 29.5762 33.2356C29.687 33.1236 29.7478 32.971 29.745 32.8127C29.7422 32.6545 29.676 32.5042 29.5612 32.3962L27.9371 30.7573H27.9367C27.9367 30.7569 27.9363 30.7569 27.9359 30.7565C31.0931 27.7638 35.2997 25.8853 39.9427 25.741L39.9394 25.7414ZM40.5089 34.3031V34.3027C40.3559 34.3047 40.2096 34.3681 40.1027 34.4793C39.9958 34.5901 39.937 34.7396 39.9394 34.8947V42.0753C38.9747 42.3355 38.2553 43.2268 38.2553 44.2798C38.2553 45.535 39.2748 46.5646 40.5167 46.5646C41.7587 46.5646 42.7785 45.535 42.7785 44.2798C42.7785 43.9115 42.6886 43.5643 42.5332 43.2546L44.7521 40.8296L44.7525 40.83C44.9091 40.6634 44.9545 40.419 44.8681 40.2066C44.7817 39.9937 44.5798 39.8522 44.3522 39.8446C44.1822 39.8395 44.019 39.9096 43.905 40.0372L41.7626 42.3777C41.5599 42.2418 41.3339 42.139 41.0941 42.0744V34.8942C41.0965 34.7364 41.0353 34.5845 40.9253 34.4733C40.8148 34.3617 40.665 34.2999 40.5088 34.3019L40.5089 34.3031ZM40.5176 43.1626C41.136 43.1626 41.6247 43.6561 41.6247 44.2806C41.6247 44.9048 41.1364 45.3987 40.5176 45.3987C39.8992 45.3987 39.4097 44.9052 39.4097 44.2806C39.4097 43.6565 39.8987 43.1626 40.5176 43.1626ZM18.183 44.8646H30.003C30.304 50.4461 34.8904 54.89 40.4903 54.89C46.0903 54.89 50.6767 50.4461 50.9776 44.8646H59.3302V44.8638C59.4252 44.8889 59.5254 44.8889 59.6205 44.8638H62.8439L62.8206 47.5531H58.4022C58.13 47.5531 57.8946 47.7448 57.8374 48.0138C57.383 50.1527 56.5453 52.1895 55.3645 54.0234H55.3641C55.2162 54.255 55.2482 54.5595 55.4418 54.7541L58.569 57.9129L53.9861 62.5421L50.8672 59.3921V59.3917C50.6751 59.1975 50.375 59.1649 50.1466 59.3135C48.3261 60.4989 46.3068 61.3376 44.1873 61.7888C43.9203 61.8458 43.7294 62.0838 43.7294 62.3596V66.8318H37.248V62.3732V62.3736C37.248 62.0985 37.0579 61.861 36.792 61.8032C34.6741 61.344 32.6568 60.4974 30.8406 59.3049V59.3052C30.6119 59.1554 30.3102 59.1881 30.1177 59.3834L26.9894 62.543L22.4073 57.9138L25.5254 54.7642L25.5258 54.7646C25.7178 54.5704 25.7498 54.2671 25.6031 54.0363C24.4293 52.198 23.5987 50.158 23.1523 48.0172C23.0955 47.7478 22.8601 47.5549 22.5872 47.5553H18.1628L18.183 44.8646ZM26.2875 46.2338L26.2879 46.233C26.1148 46.2358 25.9519 46.3171 25.8446 46.4546C25.7373 46.5917 25.6963 46.7707 25.7338 46.9417C25.9341 47.931 26.2307 48.8852 26.6117 49.794C26.9931 50.7028 27.4592 51.5669 28.0008 52.3749H28.0004C28.0852 52.506 28.2181 52.5973 28.3699 52.6284C28.5218 52.6591 28.6795 52.6272 28.8077 52.5395C28.9359 52.4518 29.0238 52.3159 29.0518 52.162C29.0798 52.0078 29.0455 51.8491 28.9564 51.7212C28.4563 50.975 28.0256 50.1778 27.6738 49.3392C27.3216 48.5005 27.0491 47.62 26.8645 46.7073C26.8125 46.4279 26.5683 46.2274 26.2871 46.2326L26.2875 46.2338ZM54.676 46.2338V46.233C54.4015 46.2366 54.1676 46.4351 54.1163 46.7077C53.9313 47.6205 53.6572 48.5009 53.3058 49.3396C52.9536 50.1782 52.5237 50.9754 52.0241 51.7216H52.0245C51.9318 51.8496 51.8947 52.0098 51.9215 52.1656C51.9488 52.3219 52.0371 52.4602 52.1669 52.5487C52.2966 52.6376 52.4563 52.6695 52.6098 52.6368C52.7628 52.6041 52.8965 52.5096 52.9797 52.3753C53.5216 51.567 53.9886 50.7032 54.3696 49.7944C54.751 48.8852 55.0468 47.9314 55.2471 46.9421C55.285 46.7683 55.2424 46.5866 55.1312 46.4483C55.0196 46.3103 54.8523 46.231 54.6761 46.2334L54.676 46.2338ZM30.2403 53.622L30.2407 53.6212C30.0056 53.6216 29.7946 53.7659 29.7063 53.9856C29.6183 54.2056 29.6708 54.4575 29.8388 54.6229C30.5199 55.3105 31.2665 55.9319 32.0679 56.478C32.8693 57.024 33.7256 57.494 34.6268 57.8783H34.6272C34.7692 57.9436 34.9309 57.948 35.0764 57.891C35.2215 57.8336 35.3379 57.7192 35.3982 57.5741C35.459 57.4286 35.4586 57.2648 35.3978 57.1197C35.3371 56.9747 35.2203 56.8607 35.0752 56.8037C34.2434 56.4485 33.4531 56.0144 32.7131 55.5102C31.9732 55.0056 31.2839 54.4321 30.6543 53.7975V53.7971C30.5455 53.6843 30.396 53.6209 30.2402 53.6213L30.2403 53.622ZM50.7222 53.622L50.7226 53.6212C50.5723 53.6256 50.4299 53.689 50.3254 53.7974C49.6963 54.4316 49.0066 55.006 48.2666 55.5102C47.5267 56.0148 46.7364 56.4488 45.9045 56.8036V56.804C45.7606 56.8622 45.6462 56.9762 45.5866 57.1209C45.5275 57.2652 45.5279 57.4278 45.5878 57.5721C45.6482 57.716 45.7629 57.8296 45.9069 57.8874C46.0508 57.9452 46.2118 57.942 46.3534 57.8786C47.2546 57.4948 48.1108 57.024 48.9122 56.4783C49.7132 55.9322 50.4594 55.3105 51.1405 54.6232C51.3113 54.4554 51.3626 54.1991 51.2699 53.9775C51.1772 53.7563 50.9599 53.6148 50.7217 53.6216L50.7222 53.622ZM43.4034 57.6068L43.4038 57.6064C43.3667 57.608 43.3304 57.6128 43.2945 57.6215C42.3894 57.8085 41.4519 57.9061 40.4907 57.9061C39.5296 57.9061 38.5916 57.8077 37.6866 57.6215C37.6491 57.6128 37.6109 57.6076 37.5726 57.6064C37.2729 57.6012 37.0189 57.8288 36.9885 58.1301C36.9581 58.4319 37.1612 58.7069 37.4559 58.7631C38.4367 58.9656 39.4523 59.0712 40.4911 59.0712C41.5299 59.0712 42.5451 58.9648 43.5256 58.7631C43.8238 58.7089 44.03 58.4315 43.9977 58.1269C43.9658 57.8228 43.7066 57.5952 43.4041 57.6056L43.4034 57.6068Z" stroke="#4BB134" mask="url(#path-1-outside-1_216_4909)"/>
</svg>
