<svg width="62" height="54" viewBox="0 0 62 54" fill="none" xmlns="http://www.w3.org/2000/svg">
<path d="M30.0155 1.00043C29.7398 0.999537 29.4752 1.10454 29.2803 1.2923C29.085 1.48005 28.976 1.73544 28.9769 2.00107C28.9778 2.26579 29.0873 2.5194 29.2821 2.70583C29.477 2.89269 29.7407 2.99681 30.0155 2.99592H32.238V7.24133C27.1238 8.26065 22.446 10.8768 18.9742 14.7588C18.7932 14.9599 18.7031 15.2224 18.7244 15.488C18.7456 15.7536 18.8763 15.9997 19.0873 16.1718C19.296 16.3436 19.5666 16.4281 19.8405 16.4077C20.1139 16.3867 20.3678 16.2622 20.5461 16.0611C24.698 11.4173 30.7302 8.75581 37.0786 8.75581C49.1579 8.75581 58.9321 18.1962 58.9321 29.8775C58.9321 41.5592 49.1584 51.0072 37.0786 51.0072C30.7305 51.0072 24.699 48.3376 20.5461 43.694V43.6936C20.1725 43.2771 19.5195 43.2309 19.0873 43.5903C18.8786 43.7621 18.7497 44.0068 18.7285 44.2706C18.7073 44.534 18.7955 44.7952 18.9742 44.9959C23.5172 50.0769 30.1284 53 37.0778 53C50.279 53 61 42.6324 61 29.8771C61 18.7237 52.8034 9.40115 41.9187 7.23476V2.99504H44.1413V2.99548C44.7102 2.99326 45.1706 2.54877 45.1715 2.00063C45.1729 1.73634 45.0649 1.48229 44.8718 1.29454C44.6784 1.10723 44.4156 1.00089 44.1413 1L30.0155 1.00043ZM34.3068 2.99551H39.8506V6.91802C38.9409 6.81613 38.0163 6.76229 37.0785 6.76229C36.1471 6.76229 35.2217 6.81524 34.3065 6.91802L34.3068 2.99551ZM48.2351 18.0987C47.9598 18.0987 47.6957 18.2046 47.5017 18.3928L39.839 25.7954C39.0442 25.2922 38.0958 24.9995 37.0793 24.9995C34.2981 24.9995 32.0247 27.1943 32.0247 29.8776C32.0247 32.5605 34.2984 34.7634 37.0793 34.7634C39.8606 34.7634 42.134 32.5605 42.134 29.8776C42.134 28.8943 41.8274 27.9768 41.3037 27.2089L48.9689 19.7983H48.9684C49.1637 19.611 49.2732 19.3569 49.2732 19.0913C49.2732 18.8262 49.1638 18.5721 48.9684 18.3848C48.7731 18.1997 48.5094 18.0969 48.2351 18.0987L48.2351 18.0987ZM8.78869 21.7409C8.51439 21.7396 8.25071 21.8437 8.0563 22.0301C7.86144 22.2161 7.75153 22.4693 7.75015 22.7336C7.75153 22.9978 7.86144 23.251 8.0563 23.437C8.25071 23.6234 8.51439 23.7275 8.78869 23.7262H25.7633C26.0376 23.7275 26.3013 23.6234 26.4957 23.437C26.6906 23.251 26.8005 22.9978 26.8019 22.7336C26.8005 22.4693 26.6906 22.2161 26.4957 22.0301C26.3013 21.8437 26.0376 21.7396 25.7633 21.7409H8.78869ZM37.079 26.9928C37.8673 26.9928 38.5798 27.2815 39.1113 27.7558C39.1348 27.7847 39.1597 27.8128 39.1861 27.8395C39.2138 27.8648 39.2429 27.8888 39.2733 27.9115C39.7651 28.4241 40.0653 29.1133 40.0653 29.8777C40.0653 31.487 38.7385 32.7684 37.0794 32.7684C35.4198 32.7684 34.0935 31.487 34.0935 29.8777C34.0935 28.2684 35.4202 26.9928 37.0794 26.9928L37.079 26.9928ZM2.03855 28.8845C1.76425 28.8836 1.50057 28.9878 1.30616 29.1737C1.11129 29.3597 1.00139 29.6129 1.00001 29.8772C0.999082 30.1428 1.10806 30.3982 1.3034 30.5859C1.49826 30.7737 1.76287 30.8787 2.03856 30.8778H19.0132C19.2889 30.8787 19.5535 30.7737 19.7488 30.5859C19.9437 30.3982 20.0527 30.1428 20.0518 29.8772C20.0504 29.6129 19.9405 29.3597 19.7456 29.1737C19.5512 28.9878 19.2875 28.8836 19.0132 28.8845H2.03855ZM8.78845 36.0283C8.51277 36.0274 8.24817 36.1324 8.05283 36.3201C7.85796 36.5083 7.74898 36.7633 7.7499 37.0289C7.75129 37.2932 7.86119 37.5464 8.05606 37.7323C8.25046 37.9188 8.51414 38.0229 8.78844 38.0215H25.7631C26.0374 38.0229 26.3011 37.9188 26.4955 37.7323C26.6904 37.5464 26.8003 37.2932 26.8016 37.0289C26.8026 36.7633 26.6936 36.5083 26.4987 36.3201C26.3034 36.1324 26.0388 36.0274 25.7631 36.0283H8.78845Z" fill="#43B02A" stroke="#43B02A"/>
</svg>
