<svg width="78" height="79" viewBox="0 0 78 79" fill="none" xmlns="http://www.w3.org/2000/svg">
<path d="M61 53.5C61 52.3063 60.5258 51.162 59.6821 50.3179C58.838 49.4742 57.6933 49 56.5 49C55.3063 49 54.162 49.4742 53.3179 50.3179C52.4742 51.162 52 52.3063 52 53.5C52 54.6933 52.4742 55.838 53.3179 56.6821C54.162 57.5258 55.3067 58 56.5 58C57.6929 57.9988 58.8368 57.5242 59.6804 56.6805C60.5241 55.8369 60.9988 54.693 60.9999 53.5001L61 53.5ZM54.0546 53.5C54.0546 52.8514 54.3122 52.2295 54.7708 51.7708C55.2295 51.3121 55.8515 51.0545 56.5 51.0545C57.1486 51.0545 57.7706 51.3121 58.2292 51.7708C58.6879 52.2295 58.9455 52.8514 58.9455 53.5C58.9455 54.1486 58.6879 54.7705 58.2292 55.2292C57.7706 55.6875 57.1486 55.9451 56.5 55.9451C55.8518 55.9447 55.2303 55.6867 54.7716 55.228C54.3134 54.7697 54.0554 54.1482 54.0546 53.5L54.0546 53.5Z" fill="#43B02A"/>
<path d="M14.699 43.3621C14.8721 43.752 15.2342 44 15.6312 44H19.0675C19.1771 44 19.2859 43.9812 19.3899 43.9439C19.4939 43.9812 19.6027 44 19.7119 44H32.7832C33.0579 44 33.3212 43.8808 33.5155 43.6688C33.7099 43.4568 33.8191 43.1694 33.8191 42.8697V36.3736C34.3165 36.9383 34.9513 37.659 35.7614 38.5794C36.2969 39.2589 37.0449 39.6966 37.8603 39.8065C38.7359 39.895 39.6052 39.5743 40.2515 38.9233L46.998 32.1714C47.8138 31.3513 48.1671 30.1194 47.925 28.9383C47.6833 27.7572 46.8827 26.8065 45.8248 26.4433C44.7669 26.0802 43.6119 26.3597 42.7937 27.1767L38.5958 31.3811L37.0758 29.1288H37.0762C35.745 27.1653 33.6404 26.0048 31.4022 26H20.9959C19.7139 25.9974 18.4629 26.4315 17.4182 27.242C16.3736 28.0529 15.5872 29.1994 15.1687 30.522L13.2741 37.3702C12.8959 38.2837 12.9096 39.3333 13.3119 40.2345L14.699 43.3621ZM15.1752 38.2732V38.2728C15.1993 38.218 15.2197 38.1611 15.2362 38.1028L17.1452 31.2011C17.427 30.335 17.9498 29.5863 18.6399 29.0592C19.33 28.5322 20.1535 28.2531 20.9958 28.261H31.4021C32.9823 28.2645 34.4682 29.0837 35.4077 30.4698L37.6122 33.7358V33.7362C37.7868 33.9943 38.0534 34.1599 38.3461 34.191C38.6391 34.2217 38.9298 34.1156 39.1466 33.8988L44.1944 28.8427C44.3983 28.6443 44.6641 28.5391 44.9371 28.5488C45.3542 28.568 45.72 28.8594 45.8645 29.2869C46.0086 29.715 45.903 30.1951 45.5967 30.5053L38.8447 37.2638C38.6335 37.4767 38.3497 37.5827 38.063 37.5564C37.8173 37.5271 37.688 37.4714 37.2311 36.9865C37.2311 36.9865 33.6873 32.9617 33.5581 32.8118C33.2726 32.46 32.8177 32.3378 32.4155 32.5043C32.0132 32.6712 31.747 33.0918 31.7474 33.5614V41.7389H20.7481L20.7477 36.3315C20.7485 36.0309 20.6397 35.7427 20.4454 35.5302C20.251 35.3177 19.9873 35.1981 19.7119 35.1981C19.4368 35.1981 19.1731 35.3177 18.9788 35.5302C18.7845 35.7427 18.6757 36.0309 18.6761 36.3315V41.7389H16.2812L15.1784 39.2527V39.2531C15.0391 38.9443 15.0379 38.5828 15.1752 38.2727L15.1752 38.2732Z" fill="#43B02A"/>
<path d="M39.0008 59C34.4877 59 30.7316 61.5388 30.0199 64.8568H30.0195C29.9592 65.1377 30.0404 65.4288 30.2417 65.6498C30.443 65.8709 30.7426 65.9992 31.0594 66H31.1508C31.6684 65.9911 32.1065 65.6506 32.1942 65.1892C32.7297 62.8134 35.5781 60.9946 39.0004 60.9946C42.4222 60.9946 45.2702 62.8134 45.8057 65.1892C45.8937 65.6506 46.3314 65.9911 46.8494 66H46.9409H46.9405C47.2572 65.9992 47.5572 65.8709 47.7581 65.6498C47.9594 65.4288 48.0411 65.1377 47.9804 64.8568C47.2691 61.5388 43.513 59 39.0008 59H39.0008Z" fill="#43B02A"/>
<path d="M48.0184 64.8568C47.9615 65.1377 48.0382 65.4288 48.2283 65.6498C48.4184 65.8709 48.7014 65.9992 49.0005 66H49.0865C49.5758 65.9911 49.9895 65.6506 50.0723 65.1892C50.5781 62.8134 53.2682 60.9946 56.5003 60.9946C59.7321 60.9946 62.4218 62.8134 62.9276 65.1892C63.0107 65.6506 63.4241 65.9911 63.9133 66H63.9993C64.2984 65.9992 64.5818 65.8709 64.7716 65.6498C64.9617 65.4288 65.0388 65.1377 64.9815 64.8568C64.3093 61.5388 60.7623 59 56.5003 59C52.2384 59 48.6905 61.5388 48.0184 64.8568H48.0184Z" fill="#43B02A"/>
<path d="M26.5004 24C27.9589 24 29.3579 23.4204 30.3893 22.3889C31.4208 21.3575 32 19.9585 32 18.5C32 17.0411 31.4204 15.6425 30.3889 14.6111C29.3574 13.5796 27.9585 13 26.5 13C25.0415 13 23.6425 13.5796 22.6111 14.6111C21.5796 15.6425 21 17.0415 21 18.5C21.0017 19.9585 21.5817 21.3562 22.6131 22.3872C23.6441 23.4183 25.0418 23.9983 26.5003 23.9999L26.5004 24ZM26.5004 15.1337C27.393 15.1337 28.2491 15.4884 28.8808 16.1197C29.5121 16.7509 29.8668 17.6071 29.8668 18.5C29.8668 19.3929 29.5121 20.2491 28.8804 20.8804C28.2491 21.5117 27.3929 21.8664 26.5 21.8664C25.6075 21.8668 24.7509 21.5121 24.1196 20.8808C23.4884 20.2491 23.1337 19.3929 23.1337 18.5C23.1345 17.6075 23.4896 16.7517 24.1209 16.1209C24.7517 15.4897 25.6075 15.1345 26.5004 15.1337L26.5004 15.1337Z" fill="#43B02A"/>
<path d="M26 53.5C26 52.3063 25.5258 51.1617 24.6817 50.3179C23.838 49.4738 22.6933 49 21.5 49C20.3063 49 19.1617 49.4742 18.3179 50.3179C17.4738 51.162 17 52.3063 17 53.5C17 54.6933 17.4738 55.838 18.3179 56.6821C19.1616 57.5258 20.3063 58 21.5 58C22.6929 57.9988 23.8368 57.5242 24.6804 56.6805C25.5241 55.8369 25.9984 54.693 25.9999 53.5001L26 53.5ZM19.0546 53.5C19.0546 52.8514 19.3122 52.2295 19.7708 51.7708C20.2295 51.3121 20.8515 51.0545 21.5 51.0545C22.1486 51.0545 22.7706 51.3121 23.2292 51.7708C23.6875 52.2295 23.9451 52.8514 23.9451 53.5C23.9451 54.1486 23.6875 54.7705 23.2288 55.2292C22.7706 55.6875 22.1486 55.9451 21.5 55.9451C20.8514 55.9447 20.2299 55.6867 19.7717 55.228C19.313 54.7697 19.0554 54.1482 19.0546 53.5L19.0546 53.5Z" fill="#43B02A"/>
<path d="M13.0184 64.8568C12.9615 65.1377 13.0382 65.4288 13.2283 65.6498C13.4184 65.8709 13.7014 65.9992 14.0006 66H14.0869H14.0865C14.5758 65.9911 14.9892 65.6506 15.0723 65.1892C15.5782 62.8134 18.2679 60.9946 21.4998 60.9946C24.7321 60.9946 27.4219 62.8134 27.9277 65.1892C28.0104 65.6506 28.4242 65.9911 28.9131 66H28.9994C29.2986 65.9992 29.5816 65.8709 29.7717 65.6498C29.9618 65.4288 30.0385 65.1377 29.9816 64.8568C29.3095 61.5388 25.7619 59 21.4998 59C17.2377 59 13.6905 61.5388 13.0184 64.8568H13.0184Z" fill="#43B02A"/>
<path d="M39 49C37.6741 49 36.4022 49.4742 35.4644 50.3183C34.5269 51.1619 34 52.3066 34 53.4998C34 54.6934 34.5264 55.838 35.4644 56.6817C36.4022 57.5258 37.6737 58 39 58C40.3259 58 41.5978 57.5258 42.5356 56.6821C43.4731 55.8381 44 54.6934 44 53.5002C43.9987 52.307 43.4713 51.1631 42.5339 50.3195C41.597 49.4762 40.326 49.0016 39.0001 49.0001L39 49ZM39 55.9451C38.2798 55.9455 37.5883 55.6875 37.0787 55.2293C36.5695 54.7706 36.2828 54.1487 36.2828 53.5002C36.2828 52.8516 36.569 52.2297 37.0787 51.771C37.5883 51.3124 38.2794 51.0548 39 51.0548C39.7207 51.0548 40.4117 51.3124 40.9213 51.771C41.431 52.2293 41.7172 52.8516 41.7172 53.5002C41.7163 54.1483 41.4301 54.7698 40.9204 55.2281C40.4112 55.6867 39.7206 55.9447 39 55.9451L39 55.9451Z" fill="#43B02A"/>
<path d="M63.9441 12.0005H35.0539C34.4715 12.0017 34 12.4944 34 13.1009C34 13.7079 34.4715 14.2001 35.0539 14.2014H62.888V41.7991H44.4412C43.8589 41.8004 43.3878 42.293 43.3878 42.8995C43.3878 43.5065 43.8588 43.9987 44.4412 44H63.9441C64.2241 44.0004 64.4925 43.8844 64.6906 43.678C64.8887 43.4715 65 43.1917 65 42.8995V13.1005C65 12.8087 64.8887 12.5289 64.6906 12.3225C64.4925 12.116 64.2241 12 63.9441 12V12.0005Z" fill="#43B02A"/>
</svg>
