<svg width="80" height="80" viewBox="0 0 80 80" fill="none" xmlns="http://www.w3.org/2000/svg">
<path d="M22.0747 32.7743H22.0733C21.8946 32.7734 21.7175 32.8497 21.5831 32.9939C21.4486 33.1392 21.3694 33.3399 21.3682 33.5536C21.3694 33.7675 21.4487 33.9685 21.5828 34.1131L22.0747 32.7743ZM22.0747 32.7743L31.5692 32.7743L31.5706 32.7743C31.75 32.7734 31.927 32.8498 32.0609 32.994C32.1958 33.1393 32.2749 33.34 32.2757 33.5536C32.2749 33.7675 32.1957 33.9685 32.0611 34.1131L32.0609 34.1133C31.927 34.2575 31.7498 34.3341 31.5701 34.3334H31.5692L22.0747 34.3334L22.0738 34.3334M22.0747 32.7743L22.0738 34.3334M31.5692 34.5834H22.0747H31.5692ZM31.5692 34.5834C31.822 34.5843 32.0649 34.4763 32.2441 34.2834L31.5692 34.5834ZM22.0738 34.3334C21.8947 34.3341 21.7175 34.2576 21.583 34.1133L22.0738 34.3334ZM24.1251 26.0379L24.1251 26.0369C24.1235 25.5851 24.4556 25.2522 24.8246 25.2502C24.8248 25.2502 24.8249 25.2502 24.8251 25.2502L52.8604 25.25C53.2294 25.2519 53.5615 25.5849 53.5598 26.0367V26.0376V29.5178V29.7678H53.8098H63.9031C64.1361 29.7686 64.362 29.8995 64.494 30.1306L64.4942 30.131L69.6424 39.1079C69.6426 39.1082 69.6428 39.1085 69.643 39.1088C69.7127 39.2334 69.7503 39.378 69.75 39.5259V39.5265L69.75 49.6666L69.75 49.6676C69.7517 50.1193 69.4195 50.4524 69.05 50.4542C69.0499 50.4542 69.0498 50.4542 69.0496 50.4542L65.699 50.4542H65.4905L65.4531 50.6593C65.0263 52.996 63.1589 54.75 60.9555 54.75C58.7525 54.75 56.8832 52.996 56.4564 50.6593L56.4189 50.4542H56.2104H38.0947H37.8863L37.8488 50.6593C37.4216 52.9959 35.5526 54.75 33.3492 54.75C31.1461 54.75 29.2828 52.9964 28.8572 50.6594L28.8198 50.4542H28.6113H24.825C24.6455 50.4531 24.4693 50.3752 24.3359 50.2298C24.2021 50.0832 24.1244 49.8814 24.1254 49.6678L24.1254 49.6674C24.1268 49.2181 24.4573 48.8889 24.8246 48.8869H28.6057H28.8157L28.8519 48.6801C29.2649 46.3251 31.135 44.5527 33.3492 44.5527C35.5637 44.5527 37.4398 46.3255 37.854 48.6802L37.8904 48.8869H38.1002H51.9046H52.1546V48.6369V27.0676V26.8176H51.9046H25.7805H25.5305V27.0676V28.7934L25.5305 28.7941C25.5312 29.0095 25.4525 29.2124 25.3176 29.3587L25.3174 29.359C25.1831 29.5049 25.0056 29.582 24.8254 29.581L24.8249 29.581C24.6455 29.5803 24.4693 29.5026 24.3357 29.3566L24.1836 29.4959L24.3357 29.3566C24.2021 29.2106 24.1241 29.0085 24.1251 28.7945V28.7934L24.1251 26.0379ZM25.7805 28.7934V27.3176L24.824 29.831C25.078 29.8324 25.3218 29.7234 25.5014 29.5282C25.681 29.3334 25.7814 29.0689 25.7805 28.7934ZM53.8096 31.335H53.5596L53.5596 31.5851L53.5597 48.6372V48.8872H53.8097H56.2048H56.4147L56.451 48.6805C56.8652 46.3259 58.7413 44.553 60.9559 44.553C63.1705 44.553 65.0466 46.3259 65.4604 48.6805L65.4967 48.8872H65.7066H68.0941H68.3441V48.6372V39.8254V39.7588L68.3109 39.701L63.584 31.4607L63.5119 31.335H63.3671H53.8096ZM15.3112 39.2778L15.3112 39.277C15.3119 38.8264 15.6438 38.4962 16.0121 38.495C16.0122 38.495 16.0123 38.495 16.0124 38.495L28.5384 38.495L28.5394 38.495C28.7191 38.4944 28.8966 38.571 29.0303 38.7154C29.1655 38.8613 29.2446 39.0628 29.245 39.277L29.245 39.2774C29.2456 39.4927 29.167 39.6956 29.032 39.842C28.8977 39.9877 28.7199 40.0649 28.5393 40.0642H28.5384L16.0122 40.0642C16.0121 40.0642 16.0119 40.0642 16.0118 40.0642C15.8327 40.0638 15.656 39.986 15.5226 39.8408C15.3884 39.6942 15.3102 39.4919 15.3112 39.2778ZM25.9981 45.5651L25.9979 45.5653C25.8641 45.7095 25.6869 45.7861 25.5072 45.7854H25.5063L9.95039 45.7854C9.95025 45.7854 9.95012 45.7854 9.94998 45.7854C9.5826 45.7836 9.25169 45.4543 9.25 45.0047C9.24938 44.7905 9.32704 44.5888 9.461 44.4424C9.59409 44.297 9.77059 44.2189 9.94974 44.2181C9.9499 44.2181 9.95005 44.2181 9.95021 44.2181L25.5063 44.2181L25.5072 44.2181C25.6878 44.2174 25.8656 44.2946 25.9999 44.4403C26.135 44.5869 26.2138 44.7897 26.2128 45.0045L26.2128 45.0049C26.2122 45.219 26.1329 45.4203 25.9981 45.5651ZM33.3484 46.1145C33.3456 46.1145 33.3411 46.1145 33.3355 46.1144C33.3179 46.1142 33.289 46.1138 33.2659 46.1146C31.5243 46.164 30.1732 47.7338 30.1732 49.6527C30.1732 51.6029 31.568 53.1831 33.3484 53.1831C35.1285 53.1831 36.5314 51.6036 36.5314 49.6527C36.5314 47.7026 35.1288 46.1145 33.3484 46.1145ZM60.9556 46.1145C60.9437 46.1145 60.9028 46.1136 60.8725 46.1146C59.1309 46.1634 57.7726 47.7328 57.7726 49.6527C57.7726 51.6038 59.176 53.1831 60.9556 53.1831C62.7357 53.1831 64.1386 51.6036 64.1386 49.6527C64.1386 47.7026 62.736 46.1145 60.9556 46.1145Z" fill="#43B02A" stroke="#43B02A" stroke-width="0.5"/>
<circle cx="40" cy="40" r="39" stroke="#0084C7" stroke-width="2"/>
</svg>
