<svg width="80" height="80" viewBox="0 0 80 80" fill="none" xmlns="http://www.w3.org/2000/svg">
<path d="M66.2701 41.926C65.6819 41.1417 64.8035 40.6271 63.832 40.4968C62.8605 40.3671 61.8773 40.633 61.1039 41.2349L54.0171 46.7478C53.7877 46.2195 53.4092 45.7699 52.9287 45.4529C52.4478 45.1355 51.8852 44.9651 51.3095 44.9623H41.8573C38.919 43.7264 35.7043 43.2957 32.5442 43.7152C30.0136 44.0302 25.7403 46.393 24.4404 47.1387L24.3898 47.0516C23.9739 46.33 23.2877 45.8036 22.4833 45.5882C21.679 45.3728 20.8215 45.4866 20.1011 45.9036L13.2212 49.8704C13.0099 49.9925 12.9371 50.2633 13.0593 50.4751L22.466 66.7789C22.5247 66.8806 22.6215 66.9545 22.7352 66.985C22.8485 67.0152 22.9695 66.9995 23.0711 66.9404L29.9506 62.9652C30.5348 62.6313 30.9961 62.1163 31.2633 61.4983C31.5305 60.8807 31.5899 60.1929 31.4332 59.5379H49.1939C51.2675 59.5436 53.2624 58.7444 54.7587 57.3088L65.8623 46.7619C66.5116 46.1459 66.9118 45.313 66.987 44.4215C67.0625 43.5299 66.8069 42.642 66.2701 41.926ZM29.5074 62.1991L23.012 65.9522L14.0481 50.4156L20.5451 46.6698C21.0626 46.3701 21.6778 46.2885 22.2555 46.4432C22.8333 46.5979 23.3259 46.9764 23.624 47.4947L30.3187 59.0959L30.4192 59.288C30.6638 59.7986 30.7052 60.3829 30.5361 60.9229C30.3669 61.4629 29.9991 61.9191 29.5074 62.1991ZM65.2528 46.1205L54.1482 56.6675C52.8163 57.9456 51.0403 58.6571 49.1941 58.6519H31.0838L24.8845 47.9054C26.155 47.1798 30.3211 44.884 32.6535 44.5935C35.6773 44.199 38.7511 44.6156 41.5604 45.8013C41.6215 45.8314 41.689 45.8475 41.7573 45.8475H51.3099C51.7965 45.8487 52.2666 46.0218 52.6382 46.336C53.0095 46.6502 53.2582 47.0854 53.3402 47.5651L53.343 47.5719C53.3438 47.5755 53.3422 47.5787 53.343 47.5824C53.3619 47.6864 53.3703 47.7921 53.3687 47.8982C53.3651 48.443 53.1469 48.9645 52.7616 49.3498C52.3763 49.7351 51.8548 49.9533 51.31 49.9569H43.2311C43.1126 49.9553 42.9981 50.0011 42.9137 50.0842C42.8293 50.1674 42.7819 50.2811 42.7819 50.3996C42.7819 50.5178 42.8293 50.6315 42.9137 50.7146C42.9981 50.7978 43.1126 50.8436 43.2311 50.842H51.3104C52.0902 50.8384 52.8364 50.527 53.3876 49.9758C53.9388 49.4245 54.2502 48.6776 54.2543 47.8982C54.2543 47.8302 54.2414 47.766 54.237 47.6989L61.6456 41.9349C62.2374 41.4929 62.9788 41.3004 63.7108 41.3981C64.4429 41.4957 65.1074 41.8762 65.5627 42.4576C65.9693 43 66.1621 43.673 66.1047 44.3484C66.0476 45.0238 65.7446 45.6541 65.2528 46.1205ZM32.7783 29.7601L37.0011 30.6629C37.1799 31.2323 37.4069 31.7843 37.681 32.3139L35.3357 35.9348C35.2224 36.1099 35.2469 36.341 35.3943 36.4884L37.963 39.0575C38.1105 39.2049 38.3415 39.2294 38.5167 39.1157L42.1376 36.7705C42.6676 37.0445 43.2196 37.2723 43.789 37.4507L44.6919 41.6735C44.7353 41.878 44.9161 42.0235 45.1246 42.0235H48.7556C48.9645 42.0235 49.1449 41.8776 49.1883 41.6731L50.0912 37.4503C50.6605 37.2715 51.2129 37.0445 51.7425 36.7705L55.3635 39.1157C55.5387 39.2294 55.7693 39.2049 55.9168 39.0575L58.4854 36.4884C58.6333 36.341 58.6574 36.1099 58.5441 35.9348L56.1988 32.3139C56.4733 31.7843 56.7007 31.2318 56.8791 30.6625L61.1019 29.7597C61.3064 29.7159 61.4523 29.5359 61.4523 29.327V25.6965C61.4523 25.4875 61.3064 25.3071 61.1019 25.2633L56.8791 24.3605C56.7007 23.7912 56.4733 23.2388 56.1988 22.7092L58.5441 19.0883C58.6574 18.9131 58.6333 18.6825 58.4858 18.535L55.9172 15.966C55.7697 15.8181 55.5387 15.794 55.3635 15.9073L51.7425 18.253C51.213 17.9785 50.6605 17.7511 50.0912 17.5727L49.1883 13.3499C49.1445 13.1458 48.9641 13 48.7556 13H45.1246C44.9161 13 44.7357 13.1459 44.6919 13.3499L43.789 17.5727C43.2201 17.7511 42.6673 17.9785 42.1376 18.253L38.5167 15.9077C38.3415 15.794 38.1105 15.8181 37.963 15.966L35.3943 18.535C35.2469 18.6825 35.2224 18.9131 35.3357 19.0883L37.681 22.7092C37.4065 23.2391 37.1791 23.7915 37.0007 24.3609L32.7779 25.2638C32.5738 25.3075 32.4279 25.4879 32.4279 25.6965V29.3274C32.4279 29.5359 32.5742 29.7163 32.7783 29.7601ZM33.3134 26.0545L37.4427 25.1718C37.603 25.1372 37.7308 25.0171 37.7758 24.8592C37.9699 24.1778 38.2403 23.5204 38.5822 22.9001C38.6609 22.7574 38.6545 22.5831 38.5661 22.4464L36.2735 18.9076L38.3359 16.8452L41.8749 19.1382C42.0115 19.227 42.1859 19.233 42.3285 19.1546C42.9493 18.8127 43.6062 18.5423 44.2877 18.3483C44.4456 18.3037 44.5657 18.1751 44.5998 18.0148L45.4826 13.8856H48.3972L49.2799 18.0148C49.3145 18.1751 49.4346 18.3037 49.5921 18.3483C50.2736 18.5423 50.9309 18.8127 51.5509 19.1546C51.6939 19.2326 51.8679 19.2266 52.0049 19.1382L55.5443 16.8452L57.6067 18.9076L55.3141 22.4469C55.2253 22.5835 55.2192 22.7578 55.298 22.9005C55.6395 23.5208 55.9099 24.1782 56.104 24.8592C56.1486 25.0171 56.2771 25.1372 56.4375 25.1718L60.567 26.0545V28.9695L56.4375 29.8522C56.2771 29.8867 56.1486 30.0065 56.104 30.1644C55.9099 30.8454 55.6395 31.5027 55.298 32.1231C55.2192 32.2657 55.2257 32.4401 55.3145 32.5767L57.6071 36.1156L55.5442 38.1784L52.0049 35.8858C51.8683 35.7974 51.6939 35.791 51.5513 35.8693C50.9309 36.2112 50.274 36.4816 49.5925 36.6753C49.4346 36.7203 49.3145 36.8485 49.2803 37.0088L48.3972 41.1383H45.4826L44.5998 37.0088C44.5657 36.8485 44.4456 36.7203 44.2876 36.6753C43.6062 36.4812 42.9492 36.2108 42.3285 35.8693C42.1859 35.7906 42.0115 35.797 41.8749 35.8858L38.3359 38.178L36.2735 36.1156L38.5661 32.5767C38.6545 32.4401 38.6609 32.2657 38.5822 32.1231C38.2407 31.5027 37.9702 30.8454 37.7762 30.1644C37.7312 30.0065 37.6034 29.8863 37.4431 29.8518L33.3131 28.9691L33.3134 26.0545ZM46.6121 33.5502C46.696 33.6446 46.8166 33.698 46.9427 33.698C47.0689 33.698 47.1894 33.6442 47.2734 33.5498L51.745 28.5186C52.4469 27.6596 52.6406 26.4925 52.252 25.453C51.8639 24.4136 50.953 23.6586 49.8593 23.4702C48.766 23.2818 47.6547 23.688 46.9411 24.5374C46.2255 23.6868 45.1114 23.281 44.016 23.4723C42.9211 23.6631 42.0103 24.4225 41.625 25.4655C41.2401 26.5082 41.4389 27.6774 42.1469 28.534L46.6121 33.5502ZM44.5477 24.3104C44.9623 24.3099 45.3685 24.4245 45.7217 24.641C46.0749 24.8576 46.3614 25.1678 46.549 25.537C46.6245 25.6848 46.7768 25.7777 46.9428 25.7777H46.944C47.1107 25.7773 47.2622 25.6836 47.3377 25.535C47.6242 24.9717 48.1365 24.5562 48.7468 24.3915C49.3575 24.2272 50.0088 24.3288 50.54 24.672C51.0712 25.0147 51.432 25.5667 51.5332 26.1907C51.6345 26.8151 51.4665 27.4528 51.0708 27.9457L46.9423 32.5895L42.8208 27.9605C42.4624 27.5214 42.2848 26.9637 42.3222 26.3984C42.3599 25.8331 42.6106 25.3035 43.0237 24.9158C43.4367 24.5285 43.9816 24.3116 44.5477 24.3104Z" fill="#43B02A" stroke="#43B02A"/>
</svg>
