<svg width="81" height="80" viewBox="0 0 81 80" fill="none" xmlns="http://www.w3.org/2000/svg">
<path d="M15.8854 52.6235C15.3436 52.6241 14.8873 53.0852 14.8868 53.6764C14.8869 54.2679 15.3434 54.7284 15.8864 54.7284H50.4077L50.4083 54.72L50.6433 54.72L57.0726 54.7205L57.3225 54.7205V54.7355C59.4847 54.858 61.1959 56.6722 61.1959 58.8849C61.1959 61.0912 59.4961 62.8996 57.3448 63.033L57.3456 63.0418L57.0755 63.0451C56.5124 63.0518 56.0528 63.5163 56.0528 64.0931C56.0528 64.6696 56.5057 65.1317 57.0648 65.1444C57.079 65.1418 57.0972 65.1395 57.1173 65.1395M15.8854 52.6235L57.118 65.3895M15.8854 52.6235C15.8856 52.6235 15.8857 52.6235 15.8859 52.6235M15.8854 52.6235H15.8859M57.1173 65.1395C57.1176 65.1395 57.1178 65.1395 57.118 65.1395V65.3895M57.1173 65.1395C57.1171 65.1395 57.1169 65.1395 57.1167 65.1395L57.118 65.3895M57.1173 65.1395C60.5109 65.1204 63.2607 62.3302 63.2607 58.8818C63.2607 55.4219 60.4915 52.6215 57.0819 52.6215L36.372 52.6226L22.2805 52.6233L17.6434 52.6235L16.3448 52.6236L16.0028 52.6236L15.9151 52.6236H15.8929H15.8873H15.8859C15.8859 52.6236 15.8859 52.6236 15.8859 52.6235M57.118 65.3895C60.6522 65.37 63.5107 62.4651 63.5107 58.8818C63.5107 55.2869 60.6326 52.3715 57.0819 52.3715L15.9006 52.3736L15.9147 52.6219L15.9137 52.622L15.8864 52.3822V52.6235C15.8862 52.6235 15.886 52.6235 15.8859 52.6235M57.0725 62.7893L57.0725 62.7951L57.0725 62.7893ZM57.0725 62.7893C57.0775 62.7894 57.0825 62.7909 57.0875 62.7909H57.0891H57.0896C57.1 62.7909 57.1104 62.7909 57.1208 62.7908C57.1885 62.7902 57.2557 62.7879 57.3225 62.7839L57.0725 62.7893ZM26.2076 57.5822L26.2071 57.5822L26.2076 57.5822ZM26.2076 57.5822L26.2131 57.8322L26.2126 57.8322L26.2106 57.8322L26.2197 57.8322L26.2556 57.8322L26.3959 57.8323L26.9283 57.8326L28.8289 57.8335L34.598 57.8366L40.3723 57.8399C41.2383 57.8405 41.9415 57.841 42.4011 57.8414C42.7828 57.8417 42.9964 57.8418 42.9954 57.8418L42.9953 57.8419L43.0046 57.8421C45.6597 57.8934 47.8031 60.0825 47.8031 62.7903C47.8031 65.5223 45.6217 67.7325 42.9332 67.7463M26.2076 57.5822L26.2083 57.8322L26.2071 57.8323V57.8322C25.6374 57.8322 25.171 58.3015 25.1714 58.8842V58.8844C25.1714 59.4691 25.6371 59.936 26.207 59.936C26.207 59.936 26.2071 59.936 26.2071 59.936L42.9281 59.9287L43.1782 59.9286V59.9514C44.6137 60.086 45.7341 61.3086 45.7341 62.7908C45.7341 64.2683 44.6233 65.4854 43.1967 65.6298L43.1983 65.6509H42.9287C42.9115 65.6509 42.8959 65.6492 42.882 65.6467C42.3281 65.6634 41.8779 66.1256 41.8779 66.6984C41.8779 67.2753 42.3324 67.7376 42.8906 67.7498C42.9019 67.748 42.9164 67.7464 42.9332 67.7463M26.2076 57.5822C26.2076 57.5822 42.9816 57.5906 43.0094 57.5922L26.2076 57.5822ZM42.9332 67.7463C42.933 67.7463 42.9328 67.7463 42.9326 67.7463L42.9339 67.9963V67.7463C42.9337 67.7463 42.9334 67.7463 42.9332 67.7463ZM54.5651 49.4958H54.5514C54.5446 49.4958 54.0798 49.4958 53.2877 49.4963L53.2802 49.4963L53.2727 49.4968C53.2455 49.4984 53.2229 49.5032 53.2069 49.5074C53.2013 49.5088 53.1958 49.5103 53.191 49.5118C52.6317 49.4995 52.1787 49.0369 52.1787 48.4604C52.1787 47.8763 52.6444 47.4082 53.2139 47.4082H53.4639V47.3931H54.5023V47.3932L54.5117 47.3929C63.2778 47.0631 70.1776 39.8063 70.1776 30.8829C70.1776 21.7725 62.8572 14.3553 53.8537 14.3553C46.6401 14.3553 40.1996 19.2553 38.1881 26.2668C38.1046 26.558 37.9034 26.7969 37.6356 26.9241L37.6339 26.925C37.3681 27.0537 37.0602 27.0597 36.7872 26.9391L36.7859 26.9385C35.4677 26.3651 34.0689 26.0732 32.6278 26.0732C27.9742 26.0732 23.8181 29.2333 22.5177 33.7545L22.5176 33.7548C22.4342 34.0462 22.2335 34.2832 21.9658 34.4118C21.6974 34.5406 21.3919 34.5477 21.1194 34.4286L21.1185 34.4282C20.2893 34.0695 19.4102 33.8883 18.502 33.8883C14.8155 33.8883 11.8227 36.922 11.8227 40.647C11.8227 44.3712 14.8154 47.4073 18.502 47.4073C21.0256 47.4073 27.1276 47.4095 32.5991 47.4117C37.7652 47.4138 42.3694 47.4159 42.869 47.4161L42.9139 47.4162C44.4752 47.4162 45.7349 46.1346 45.7349 44.5613C45.7349 43.0737 44.6079 41.8482 43.166 41.7187V41.7069H42.916C42.9126 41.7069 42.9092 41.707 42.9058 41.7071C42.9041 41.7072 42.9024 41.7073 42.9007 41.7074C42.3379 41.701 41.8771 41.2353 41.8771 40.6542C41.8771 40.0837 42.3284 39.6258 42.8854 39.6098L42.8853 39.606C42.894 39.6047 42.9018 39.6033 42.9066 39.6025L42.9083 39.6022C42.9116 39.6017 42.914 39.6013 42.9156 39.601C45.612 39.6045 47.8022 41.8202 47.8022 44.5596C47.8022 47.3 45.6086 49.5173 42.9093 49.5173L30.9865 49.5139C24.9907 49.5122 18.9011 49.5105 18.5014 49.5105C13.6798 49.5105 9.75 45.5366 9.75 40.6459C9.75 35.7562 13.6787 31.7829 18.5014 31.7829C19.2398 31.7829 19.9648 31.8755 20.6693 32.0572L20.8813 32.1118L20.9635 31.9089C22.88 27.1737 27.5061 23.9689 32.6282 23.9689C33.8916 23.9689 35.1266 24.1558 36.3183 24.5258L36.5448 24.5961L36.6269 24.3735C39.2836 17.1695 46.1844 12.25 53.8546 12.25C63.9934 12.25 72.25 20.6051 72.25 30.8806C72.2495 40.9435 64.4795 49.1115 54.5651 49.4958ZM56.8753 62.8127L57.072 62.7951L56.8753 62.8127ZM57.036 54.7339L57.0363 54.7339L57.036 54.7339ZM42.6792 65.4178L42.6794 65.4198L42.9132 65.4021L42.9282 65.401L42.6792 65.4178ZM42.8587 67.7567C42.8573 67.7571 42.8583 67.7568 42.8595 67.7565L42.8587 67.7567ZM42.8527 41.7148C42.8523 41.7149 42.8531 41.7147 42.8547 41.7143L42.8542 41.7145L42.8531 41.7147L42.8527 41.7148Z" fill="#43B02A" stroke="#43B02A" stroke-width="0.5"/>
</svg>
